G75*
G70*
%OFA0B0*%
%FSLAX24Y24*%
%IPPOS*%
%LPD*%
%AMOC8*
5,1,8,0,0,1.08239X$1,22.5*
%
%ADD10R,0.0315X0.0354*%
%ADD11R,0.0512X0.0630*%
%ADD12R,0.0472X0.0472*%
%ADD13R,0.0248X0.0327*%
%ADD14R,0.0327X0.0248*%
%ADD15R,0.0630X0.0512*%
%ADD16R,0.0600X0.0300*%
D10*
X009854Y020834D03*
X010602Y020834D03*
X010228Y021661D03*
X021354Y019334D03*
X022102Y019334D03*
X021728Y020161D03*
X032354Y021334D03*
X033102Y021334D03*
X032728Y022161D03*
D11*
X008104Y019728D03*
X008852Y019728D03*
X009854Y019728D03*
X010602Y019728D03*
X019604Y018353D03*
X020352Y018353D03*
X021354Y018353D03*
X022102Y018353D03*
X029354Y019728D03*
X030102Y019728D03*
X031354Y019728D03*
X032102Y019728D03*
X031227Y006978D03*
X030479Y006978D03*
D12*
X034728Y024564D03*
X034728Y025391D03*
X023228Y025391D03*
X023228Y024564D03*
X011728Y024564D03*
X011728Y025391D03*
D13*
X007681Y021728D03*
X006775Y021728D03*
D14*
X020478Y020056D03*
X020478Y019150D03*
X031603Y021150D03*
X031603Y022056D03*
D15*
X034728Y022854D03*
X034728Y023602D03*
X023228Y023602D03*
X023228Y022854D03*
X031228Y011352D03*
X031228Y010604D03*
X031228Y009102D03*
X031228Y008354D03*
X011728Y022854D03*
X011728Y023602D03*
D16*
X033228Y014228D03*
X033228Y012728D03*
X035228Y012728D03*
X035228Y014228D03*
X035228Y010603D03*
X035228Y009103D03*
X035228Y006978D03*
X035228Y005478D03*
X033228Y005478D03*
X033228Y006978D03*
X033228Y009103D03*
X033228Y010603D03*
M02*
