G75*
G70*
%OFA0B0*%
%FSLAX24Y24*%
%IPPOS*%
%LPD*%
%AMOC8*
5,1,8,0,0,1.08239X$1,22.5*
%
%ADD10C,0.0000*%
%ADD11C,0.1181*%
%ADD12C,0.1210*%
%ADD13C,0.0673*%
%ADD14C,0.1300*%
%ADD15C,0.0760*%
%ADD16R,0.0315X0.0354*%
%ADD17R,0.0512X0.0630*%
%ADD18R,0.0472X0.0472*%
%ADD19R,0.0248X0.0327*%
%ADD20R,0.0327X0.0248*%
%ADD21C,0.0594*%
%ADD22R,0.0630X0.0512*%
%ADD23C,0.0320*%
%ADD24C,0.0160*%
%ADD25C,0.0240*%
%ADD26C,0.0436*%
%ADD27C,0.1500*%
D10*
X000728Y002728D02*
X000728Y038728D01*
X002137Y038728D02*
X002139Y038776D01*
X002145Y038824D01*
X002155Y038871D01*
X002168Y038917D01*
X002186Y038962D01*
X002206Y039006D01*
X002231Y039048D01*
X002259Y039087D01*
X002289Y039124D01*
X002323Y039158D01*
X002360Y039190D01*
X002398Y039219D01*
X002439Y039244D01*
X002482Y039266D01*
X002527Y039284D01*
X002573Y039298D01*
X002620Y039309D01*
X002668Y039316D01*
X002716Y039319D01*
X002764Y039318D01*
X002812Y039313D01*
X002860Y039304D01*
X002906Y039292D01*
X002951Y039275D01*
X002995Y039255D01*
X003037Y039232D01*
X003077Y039205D01*
X003115Y039175D01*
X003150Y039142D01*
X003182Y039106D01*
X003212Y039068D01*
X003238Y039027D01*
X003260Y038984D01*
X003280Y038940D01*
X003295Y038895D01*
X003307Y038848D01*
X003315Y038800D01*
X003319Y038752D01*
X003319Y038704D01*
X003315Y038656D01*
X003307Y038608D01*
X003295Y038561D01*
X003280Y038516D01*
X003260Y038472D01*
X003238Y038429D01*
X003212Y038388D01*
X003182Y038350D01*
X003150Y038314D01*
X003115Y038281D01*
X003077Y038251D01*
X003037Y038224D01*
X002995Y038201D01*
X002951Y038181D01*
X002906Y038164D01*
X002860Y038152D01*
X002812Y038143D01*
X002764Y038138D01*
X002716Y038137D01*
X002668Y038140D01*
X002620Y038147D01*
X002573Y038158D01*
X002527Y038172D01*
X002482Y038190D01*
X002439Y038212D01*
X002398Y038237D01*
X002360Y038266D01*
X002323Y038298D01*
X002289Y038332D01*
X002259Y038369D01*
X002231Y038408D01*
X002206Y038450D01*
X002186Y038494D01*
X002168Y038539D01*
X002155Y038585D01*
X002145Y038632D01*
X002139Y038680D01*
X002137Y038728D01*
X000728Y038728D02*
X000730Y038823D01*
X000737Y038918D01*
X000748Y039013D01*
X000764Y039107D01*
X000784Y039200D01*
X000809Y039291D01*
X000838Y039382D01*
X000871Y039471D01*
X000909Y039559D01*
X000950Y039644D01*
X000996Y039728D01*
X001045Y039809D01*
X001099Y039888D01*
X001156Y039964D01*
X001217Y040038D01*
X001281Y040108D01*
X001348Y040175D01*
X001418Y040239D01*
X001492Y040300D01*
X001568Y040357D01*
X001647Y040411D01*
X001728Y040460D01*
X001812Y040506D01*
X001897Y040547D01*
X001985Y040585D01*
X002074Y040618D01*
X002165Y040647D01*
X002256Y040672D01*
X002349Y040692D01*
X002443Y040708D01*
X002538Y040719D01*
X002633Y040726D01*
X002728Y040728D01*
X034728Y040728D01*
X034137Y038728D02*
X034139Y038776D01*
X034145Y038824D01*
X034155Y038871D01*
X034168Y038917D01*
X034186Y038962D01*
X034206Y039006D01*
X034231Y039048D01*
X034259Y039087D01*
X034289Y039124D01*
X034323Y039158D01*
X034360Y039190D01*
X034398Y039219D01*
X034439Y039244D01*
X034482Y039266D01*
X034527Y039284D01*
X034573Y039298D01*
X034620Y039309D01*
X034668Y039316D01*
X034716Y039319D01*
X034764Y039318D01*
X034812Y039313D01*
X034860Y039304D01*
X034906Y039292D01*
X034951Y039275D01*
X034995Y039255D01*
X035037Y039232D01*
X035077Y039205D01*
X035115Y039175D01*
X035150Y039142D01*
X035182Y039106D01*
X035212Y039068D01*
X035238Y039027D01*
X035260Y038984D01*
X035280Y038940D01*
X035295Y038895D01*
X035307Y038848D01*
X035315Y038800D01*
X035319Y038752D01*
X035319Y038704D01*
X035315Y038656D01*
X035307Y038608D01*
X035295Y038561D01*
X035280Y038516D01*
X035260Y038472D01*
X035238Y038429D01*
X035212Y038388D01*
X035182Y038350D01*
X035150Y038314D01*
X035115Y038281D01*
X035077Y038251D01*
X035037Y038224D01*
X034995Y038201D01*
X034951Y038181D01*
X034906Y038164D01*
X034860Y038152D01*
X034812Y038143D01*
X034764Y038138D01*
X034716Y038137D01*
X034668Y038140D01*
X034620Y038147D01*
X034573Y038158D01*
X034527Y038172D01*
X034482Y038190D01*
X034439Y038212D01*
X034398Y038237D01*
X034360Y038266D01*
X034323Y038298D01*
X034289Y038332D01*
X034259Y038369D01*
X034231Y038408D01*
X034206Y038450D01*
X034186Y038494D01*
X034168Y038539D01*
X034155Y038585D01*
X034145Y038632D01*
X034139Y038680D01*
X034137Y038728D01*
X034728Y040728D02*
X034823Y040726D01*
X034918Y040719D01*
X035013Y040708D01*
X035107Y040692D01*
X035200Y040672D01*
X035291Y040647D01*
X035382Y040618D01*
X035471Y040585D01*
X035559Y040547D01*
X035644Y040506D01*
X035728Y040460D01*
X035809Y040411D01*
X035888Y040357D01*
X035964Y040300D01*
X036038Y040239D01*
X036108Y040175D01*
X036175Y040108D01*
X036239Y040038D01*
X036300Y039964D01*
X036357Y039888D01*
X036411Y039809D01*
X036460Y039728D01*
X036506Y039644D01*
X036547Y039559D01*
X036585Y039471D01*
X036618Y039382D01*
X036647Y039291D01*
X036672Y039200D01*
X036692Y039107D01*
X036708Y039013D01*
X036719Y038918D01*
X036726Y038823D01*
X036728Y038728D01*
X036728Y002728D01*
X034137Y002728D02*
X034139Y002776D01*
X034145Y002824D01*
X034155Y002871D01*
X034168Y002917D01*
X034186Y002962D01*
X034206Y003006D01*
X034231Y003048D01*
X034259Y003087D01*
X034289Y003124D01*
X034323Y003158D01*
X034360Y003190D01*
X034398Y003219D01*
X034439Y003244D01*
X034482Y003266D01*
X034527Y003284D01*
X034573Y003298D01*
X034620Y003309D01*
X034668Y003316D01*
X034716Y003319D01*
X034764Y003318D01*
X034812Y003313D01*
X034860Y003304D01*
X034906Y003292D01*
X034951Y003275D01*
X034995Y003255D01*
X035037Y003232D01*
X035077Y003205D01*
X035115Y003175D01*
X035150Y003142D01*
X035182Y003106D01*
X035212Y003068D01*
X035238Y003027D01*
X035260Y002984D01*
X035280Y002940D01*
X035295Y002895D01*
X035307Y002848D01*
X035315Y002800D01*
X035319Y002752D01*
X035319Y002704D01*
X035315Y002656D01*
X035307Y002608D01*
X035295Y002561D01*
X035280Y002516D01*
X035260Y002472D01*
X035238Y002429D01*
X035212Y002388D01*
X035182Y002350D01*
X035150Y002314D01*
X035115Y002281D01*
X035077Y002251D01*
X035037Y002224D01*
X034995Y002201D01*
X034951Y002181D01*
X034906Y002164D01*
X034860Y002152D01*
X034812Y002143D01*
X034764Y002138D01*
X034716Y002137D01*
X034668Y002140D01*
X034620Y002147D01*
X034573Y002158D01*
X034527Y002172D01*
X034482Y002190D01*
X034439Y002212D01*
X034398Y002237D01*
X034360Y002266D01*
X034323Y002298D01*
X034289Y002332D01*
X034259Y002369D01*
X034231Y002408D01*
X034206Y002450D01*
X034186Y002494D01*
X034168Y002539D01*
X034155Y002585D01*
X034145Y002632D01*
X034139Y002680D01*
X034137Y002728D01*
X034728Y000728D02*
X034823Y000730D01*
X034918Y000737D01*
X035013Y000748D01*
X035107Y000764D01*
X035200Y000784D01*
X035291Y000809D01*
X035382Y000838D01*
X035471Y000871D01*
X035559Y000909D01*
X035644Y000950D01*
X035728Y000996D01*
X035809Y001045D01*
X035888Y001099D01*
X035964Y001156D01*
X036038Y001217D01*
X036108Y001281D01*
X036175Y001348D01*
X036239Y001418D01*
X036300Y001492D01*
X036357Y001568D01*
X036411Y001647D01*
X036460Y001728D01*
X036506Y001812D01*
X036547Y001897D01*
X036585Y001985D01*
X036618Y002074D01*
X036647Y002165D01*
X036672Y002256D01*
X036692Y002349D01*
X036708Y002443D01*
X036719Y002538D01*
X036726Y002633D01*
X036728Y002728D01*
X034728Y000728D02*
X002728Y000728D01*
X002137Y002728D02*
X002139Y002776D01*
X002145Y002824D01*
X002155Y002871D01*
X002168Y002917D01*
X002186Y002962D01*
X002206Y003006D01*
X002231Y003048D01*
X002259Y003087D01*
X002289Y003124D01*
X002323Y003158D01*
X002360Y003190D01*
X002398Y003219D01*
X002439Y003244D01*
X002482Y003266D01*
X002527Y003284D01*
X002573Y003298D01*
X002620Y003309D01*
X002668Y003316D01*
X002716Y003319D01*
X002764Y003318D01*
X002812Y003313D01*
X002860Y003304D01*
X002906Y003292D01*
X002951Y003275D01*
X002995Y003255D01*
X003037Y003232D01*
X003077Y003205D01*
X003115Y003175D01*
X003150Y003142D01*
X003182Y003106D01*
X003212Y003068D01*
X003238Y003027D01*
X003260Y002984D01*
X003280Y002940D01*
X003295Y002895D01*
X003307Y002848D01*
X003315Y002800D01*
X003319Y002752D01*
X003319Y002704D01*
X003315Y002656D01*
X003307Y002608D01*
X003295Y002561D01*
X003280Y002516D01*
X003260Y002472D01*
X003238Y002429D01*
X003212Y002388D01*
X003182Y002350D01*
X003150Y002314D01*
X003115Y002281D01*
X003077Y002251D01*
X003037Y002224D01*
X002995Y002201D01*
X002951Y002181D01*
X002906Y002164D01*
X002860Y002152D01*
X002812Y002143D01*
X002764Y002138D01*
X002716Y002137D01*
X002668Y002140D01*
X002620Y002147D01*
X002573Y002158D01*
X002527Y002172D01*
X002482Y002190D01*
X002439Y002212D01*
X002398Y002237D01*
X002360Y002266D01*
X002323Y002298D01*
X002289Y002332D01*
X002259Y002369D01*
X002231Y002408D01*
X002206Y002450D01*
X002186Y002494D01*
X002168Y002539D01*
X002155Y002585D01*
X002145Y002632D01*
X002139Y002680D01*
X002137Y002728D01*
X000728Y002728D02*
X000730Y002633D01*
X000737Y002538D01*
X000748Y002443D01*
X000764Y002349D01*
X000784Y002256D01*
X000809Y002165D01*
X000838Y002074D01*
X000871Y001985D01*
X000909Y001897D01*
X000950Y001812D01*
X000996Y001728D01*
X001045Y001647D01*
X001099Y001568D01*
X001156Y001492D01*
X001217Y001418D01*
X001281Y001348D01*
X001348Y001281D01*
X001418Y001217D01*
X001492Y001156D01*
X001568Y001099D01*
X001647Y001045D01*
X001728Y000996D01*
X001812Y000950D01*
X001897Y000909D01*
X001985Y000871D01*
X002074Y000838D01*
X002165Y000809D01*
X002256Y000784D01*
X002349Y000764D01*
X002443Y000748D01*
X002538Y000737D01*
X002633Y000730D01*
X002728Y000728D01*
D11*
X010684Y031185D03*
X010684Y034189D03*
X022122Y034189D03*
X022122Y031185D03*
X033622Y031185D03*
X033622Y034189D03*
D12*
X026629Y030185D03*
X015129Y030185D03*
X003692Y030185D03*
D13*
X005188Y025185D03*
X009188Y025185D03*
X016626Y025185D03*
X020626Y025185D03*
X028126Y025185D03*
X032126Y025185D03*
D14*
X030728Y038478D03*
X028728Y038478D03*
X019228Y038478D03*
X017228Y038478D03*
X009728Y038478D03*
X007728Y038478D03*
D15*
X003728Y021228D03*
X003728Y020228D03*
X003728Y019228D03*
X003728Y018228D03*
X003728Y017228D03*
X003728Y016228D03*
D16*
X009854Y020834D03*
X010602Y020834D03*
X010228Y021661D03*
X021354Y019334D03*
X022102Y019334D03*
X021728Y020161D03*
X032354Y021334D03*
X033102Y021334D03*
X032728Y022161D03*
D17*
X032102Y019728D03*
X031354Y019728D03*
X030102Y019728D03*
X029354Y019728D03*
X022102Y018353D03*
X021354Y018353D03*
X020352Y018353D03*
X019604Y018353D03*
X010602Y019728D03*
X009854Y019728D03*
X008852Y019728D03*
X008104Y019728D03*
D18*
X011728Y024564D03*
X011728Y025391D03*
X023228Y025391D03*
X023228Y024564D03*
X034728Y024564D03*
X034728Y025391D03*
D19*
X007681Y021728D03*
X006775Y021728D03*
D20*
X020478Y020056D03*
X020478Y019150D03*
X031603Y021150D03*
X031603Y022056D03*
D21*
X029728Y021525D02*
X029728Y020931D01*
X028728Y020931D02*
X028728Y021525D01*
X027728Y021525D02*
X027728Y020931D01*
X026728Y020931D02*
X026728Y021525D01*
X025728Y021525D02*
X025728Y020931D01*
X024728Y020931D02*
X024728Y021525D01*
X023728Y021525D02*
X023728Y020931D01*
X022728Y020931D02*
X022728Y021525D01*
X020978Y021525D02*
X020978Y020931D01*
X019978Y020931D02*
X019978Y021525D01*
X018978Y021525D02*
X018978Y020931D01*
X017978Y020931D02*
X017978Y021525D01*
X016978Y021525D02*
X016978Y020931D01*
X015978Y020931D02*
X015978Y021525D01*
X014978Y021525D02*
X014978Y020931D01*
X013978Y020931D02*
X013978Y021525D01*
X017728Y002525D02*
X017728Y001931D01*
X018728Y001931D02*
X018728Y002525D01*
X019728Y002525D02*
X019728Y001931D01*
X020728Y001931D02*
X020728Y002525D01*
X021728Y002525D02*
X021728Y001931D01*
X022728Y001931D02*
X022728Y002525D01*
X024728Y002525D02*
X024728Y001931D01*
X025728Y001931D02*
X025728Y002525D01*
X026728Y002525D02*
X026728Y001931D01*
X027728Y001931D02*
X027728Y002525D01*
X028728Y002525D02*
X028728Y001931D01*
X029728Y001931D02*
X029728Y002525D01*
D22*
X034728Y022854D03*
X034728Y023602D03*
X023228Y023602D03*
X023228Y022854D03*
X011728Y022854D03*
X011728Y023602D03*
D23*
X011728Y024564D01*
X012978Y024478D02*
X013685Y025185D01*
X016626Y025185D01*
X012978Y024478D02*
X012978Y019728D01*
X013556Y019150D01*
X017056Y019150D01*
X018228Y017978D01*
X018228Y007728D01*
X022728Y003228D01*
X022728Y002228D01*
X022478Y018353D02*
X022102Y018353D01*
X022478Y018353D02*
X022728Y018603D01*
X022728Y021228D01*
X022728Y021853D01*
X023228Y022353D01*
X023228Y022854D01*
X023228Y023602D02*
X023228Y024564D01*
X021728Y020161D02*
X021161Y020161D01*
X021056Y020056D01*
X020478Y020056D01*
X019806Y020056D01*
X019478Y019728D01*
X019400Y019150D02*
X018228Y017978D01*
X019400Y019150D02*
X020478Y019150D01*
X020352Y018353D02*
X021354Y018353D01*
X021354Y019334D01*
X028126Y022580D02*
X028478Y022228D01*
X030103Y022228D01*
X031181Y021150D01*
X031603Y021150D01*
X031603Y020603D02*
X032103Y020603D01*
X032353Y020853D01*
X032353Y021333D01*
X032181Y022056D02*
X031603Y022056D01*
X032181Y022056D02*
X032286Y022161D01*
X032728Y022161D01*
X032728Y022728D01*
X032126Y023330D01*
X032126Y025185D01*
X034728Y024564D02*
X034728Y023602D01*
X034728Y022854D02*
X034728Y020728D01*
X032728Y018728D01*
X029728Y018728D01*
X029354Y019102D01*
X029354Y019728D01*
X028728Y019728D01*
X030102Y019728D02*
X031354Y019728D01*
X031354Y020354D01*
X031603Y020603D01*
X028126Y022580D02*
X028126Y025185D01*
X011728Y022854D02*
X011728Y021728D01*
X011728Y020228D01*
X011228Y019728D01*
X010602Y019728D01*
X009854Y019728D02*
X008852Y019728D01*
X009854Y019728D02*
X009854Y020834D01*
X010228Y021661D02*
X010228Y024145D01*
X009188Y025185D01*
X010161Y021728D02*
X007681Y021728D01*
X006181Y020228D01*
X003728Y020228D01*
X003728Y021228D02*
X004728Y021228D01*
X005228Y021728D01*
X006775Y021728D01*
X003728Y023724D02*
X005188Y025185D01*
X003728Y023724D02*
X003728Y021228D01*
X003728Y019228D02*
X004478Y018478D01*
X004478Y017978D01*
X003728Y017228D01*
D24*
X009853Y019727D02*
X009854Y019728D01*
X010228Y021661D02*
X010161Y021728D01*
X021335Y019353D02*
X021354Y019334D01*
X032353Y021333D02*
X032354Y021334D01*
D25*
X031916Y021515D02*
X031822Y021554D01*
X031777Y021554D01*
X031690Y021590D01*
X031363Y021590D01*
X030352Y022601D01*
X030190Y022668D01*
X030015Y022668D01*
X028660Y022668D01*
X028565Y022762D01*
X028565Y024753D01*
X028648Y024835D01*
X028742Y025062D01*
X028742Y025307D01*
X028648Y025534D01*
X028475Y025707D01*
X028248Y025801D01*
X028003Y025801D01*
X027776Y025707D01*
X027603Y025534D01*
X027509Y025307D01*
X027509Y025062D01*
X027603Y024835D01*
X027686Y024753D01*
X027686Y022668D01*
X027686Y022493D01*
X027752Y022331D01*
X028105Y021979D01*
X028229Y021855D01*
X028238Y021851D01*
X028228Y021826D01*
X028217Y021852D01*
X028055Y022014D01*
X027843Y022102D01*
X027613Y022102D01*
X027401Y022014D01*
X027239Y021852D01*
X027228Y021826D01*
X027217Y021852D01*
X027055Y022014D01*
X026843Y022102D01*
X026613Y022102D01*
X026401Y022014D01*
X026239Y021852D01*
X026228Y021826D01*
X026217Y021852D01*
X026055Y022014D01*
X025843Y022102D01*
X025613Y022102D01*
X025401Y022014D01*
X025239Y021852D01*
X025228Y021826D01*
X025217Y021852D01*
X025055Y022014D01*
X024843Y022102D01*
X024613Y022102D01*
X024401Y022014D01*
X024239Y021852D01*
X024228Y021826D01*
X024217Y021852D01*
X024055Y022014D01*
X023843Y022102D01*
X023613Y022102D01*
X023590Y022092D01*
X023601Y022104D01*
X023668Y022265D01*
X023668Y022347D01*
X023701Y022361D01*
X023780Y022439D01*
X023823Y022542D01*
X023823Y023165D01*
X023797Y023228D01*
X023823Y023290D01*
X023823Y023913D01*
X023780Y024016D01*
X023701Y024095D01*
X023668Y024109D01*
X023668Y024136D01*
X023701Y024170D01*
X023744Y024273D01*
X023744Y024856D01*
X023701Y024959D01*
X023640Y025020D01*
X023669Y025070D01*
X023684Y025126D01*
X023684Y025391D01*
X023228Y025391D01*
X023228Y025391D01*
X023684Y025391D01*
X023684Y025656D01*
X023669Y025712D01*
X023640Y025763D01*
X023599Y025804D01*
X023549Y025832D01*
X023493Y025847D01*
X023228Y025847D01*
X023228Y025392D01*
X023228Y025392D01*
X023228Y025847D01*
X022963Y025847D01*
X022907Y025832D01*
X022857Y025804D01*
X022816Y025763D01*
X022787Y025712D01*
X022772Y025656D01*
X022772Y025391D01*
X022772Y025126D01*
X022787Y025070D01*
X022815Y025020D01*
X022754Y024959D01*
X022712Y024856D01*
X022712Y024273D01*
X022754Y024170D01*
X022788Y024136D01*
X022788Y024109D01*
X022754Y024095D01*
X022676Y024016D01*
X022633Y023913D01*
X022633Y023290D01*
X022659Y023228D01*
X022633Y023165D01*
X022633Y022542D01*
X022676Y022439D01*
X022684Y022431D01*
X022479Y022226D01*
X022479Y022226D01*
X022355Y022102D01*
X022288Y021940D01*
X022288Y021901D01*
X022239Y021852D01*
X022151Y021640D01*
X022151Y020816D01*
X022239Y020604D01*
X022288Y020554D01*
X022288Y019731D01*
X022102Y019731D01*
X022102Y019335D01*
X022102Y019335D01*
X022102Y019731D01*
X022007Y019731D01*
X022044Y019746D01*
X022123Y019825D01*
X022165Y019928D01*
X022165Y020067D01*
X022168Y020073D01*
X022168Y020248D01*
X022165Y020255D01*
X022165Y020394D01*
X022128Y020484D01*
X022128Y024003D01*
X022128Y024162D01*
X022067Y024309D01*
X021242Y025134D01*
X021242Y025307D01*
X021148Y025534D01*
X020975Y025707D01*
X020748Y025801D01*
X020503Y025801D01*
X020276Y025707D01*
X020103Y025534D01*
X020009Y025307D01*
X020009Y025062D01*
X020103Y024835D01*
X020276Y024662D01*
X020503Y024568D01*
X020676Y024568D01*
X021328Y023916D01*
X021328Y021991D01*
X021305Y022014D01*
X021093Y022102D01*
X020863Y022102D01*
X020651Y022014D01*
X020489Y021852D01*
X020478Y021826D01*
X020467Y021852D01*
X020305Y022014D01*
X020093Y022102D01*
X019863Y022102D01*
X019651Y022014D01*
X019489Y021852D01*
X019478Y021826D01*
X019467Y021852D01*
X019305Y022014D01*
X019093Y022102D01*
X018863Y022102D01*
X018651Y022014D01*
X018489Y021852D01*
X018478Y021826D01*
X018467Y021852D01*
X018305Y022014D01*
X018093Y022102D01*
X017863Y022102D01*
X017651Y022014D01*
X017489Y021852D01*
X017478Y021826D01*
X017467Y021852D01*
X017305Y022014D01*
X017093Y022102D01*
X016863Y022102D01*
X016651Y022014D01*
X016489Y021852D01*
X016478Y021826D01*
X016467Y021852D01*
X016305Y022014D01*
X016093Y022102D01*
X015863Y022102D01*
X015651Y022014D01*
X015489Y021852D01*
X015445Y021747D01*
X015420Y021796D01*
X015372Y021862D01*
X015315Y021919D01*
X015249Y021967D01*
X015176Y022004D01*
X015099Y022029D01*
X015019Y022042D01*
X014978Y022042D01*
X014978Y021228D01*
X014978Y021228D01*
X014978Y022042D01*
X014937Y022042D01*
X014857Y022029D01*
X014779Y022004D01*
X014707Y021967D01*
X014641Y021919D01*
X014583Y021862D01*
X014536Y021796D01*
X014511Y021747D01*
X014467Y021852D01*
X014305Y022014D01*
X014093Y022102D01*
X013863Y022102D01*
X013651Y022014D01*
X013489Y021852D01*
X013418Y021681D01*
X013418Y024296D01*
X013867Y024745D01*
X016194Y024745D01*
X016276Y024662D01*
X016503Y024568D01*
X016748Y024568D01*
X016975Y024662D01*
X017148Y024835D01*
X017242Y025062D01*
X017242Y025307D01*
X017148Y025534D01*
X016975Y025707D01*
X016748Y025801D01*
X016503Y025801D01*
X016276Y025707D01*
X016194Y025625D01*
X013772Y025625D01*
X013597Y025625D01*
X013435Y025558D01*
X012605Y024727D01*
X012538Y024565D01*
X012538Y024390D01*
X012538Y019815D01*
X012538Y019640D01*
X012605Y019479D01*
X013183Y018901D01*
X013306Y018777D01*
X013468Y018710D01*
X016873Y018710D01*
X017788Y017796D01*
X017788Y007815D01*
X017788Y007640D01*
X017855Y007479D01*
X022288Y003046D01*
X022288Y002901D01*
X022239Y002852D01*
X022195Y002747D01*
X022170Y002796D01*
X022122Y002862D01*
X022065Y002919D01*
X021999Y002967D01*
X021926Y003004D01*
X021849Y003029D01*
X021769Y003042D01*
X021728Y003042D01*
X021728Y002228D01*
X021728Y002228D01*
X021728Y003042D01*
X021687Y003042D01*
X021607Y003029D01*
X021529Y003004D01*
X021457Y002967D01*
X021391Y002919D01*
X021333Y002862D01*
X021286Y002796D01*
X021249Y002724D01*
X021228Y002660D01*
X021207Y002724D01*
X021170Y002796D01*
X021122Y002862D01*
X021065Y002919D01*
X020999Y002967D01*
X020926Y003004D01*
X020849Y003029D01*
X020769Y003042D01*
X020728Y003042D01*
X020728Y002228D01*
X020728Y002228D01*
X021245Y002228D01*
X021727Y002228D01*
X021727Y002228D01*
X021245Y002228D01*
X020728Y002228D01*
X020728Y002228D01*
X020728Y003042D01*
X020687Y003042D01*
X020607Y003029D01*
X020529Y003004D01*
X020457Y002967D01*
X020391Y002919D01*
X020333Y002862D01*
X020286Y002796D01*
X020261Y002747D01*
X020217Y002852D01*
X020055Y003014D01*
X019843Y003102D01*
X019613Y003102D01*
X019401Y003014D01*
X019239Y002852D01*
X019228Y002826D01*
X019217Y002852D01*
X019055Y003014D01*
X018843Y003102D01*
X018613Y003102D01*
X018401Y003014D01*
X018239Y002852D01*
X018228Y002826D01*
X018217Y002852D01*
X018055Y003014D01*
X017843Y003102D01*
X017613Y003102D01*
X017401Y003014D01*
X017239Y002852D01*
X017151Y002640D01*
X017151Y001816D01*
X017239Y001604D01*
X017401Y001441D01*
X017613Y001354D01*
X017843Y001354D01*
X018055Y001441D01*
X018217Y001604D01*
X018228Y001630D01*
X018239Y001604D01*
X018401Y001441D01*
X018613Y001354D01*
X018843Y001354D01*
X019055Y001441D01*
X019217Y001604D01*
X019228Y001630D01*
X019239Y001604D01*
X019401Y001441D01*
X019613Y001354D01*
X019843Y001354D01*
X020055Y001441D01*
X020217Y001604D01*
X020261Y001709D01*
X020286Y001660D01*
X020333Y001594D01*
X020391Y001536D01*
X020457Y001488D01*
X020529Y001451D01*
X020607Y001426D01*
X020687Y001414D01*
X020728Y001414D01*
X020769Y001414D01*
X020849Y001426D01*
X020926Y001451D01*
X020999Y001488D01*
X021065Y001536D01*
X021122Y001594D01*
X021170Y001660D01*
X021207Y001732D01*
X021228Y001796D01*
X021249Y001732D01*
X021286Y001660D01*
X021333Y001594D01*
X021391Y001536D01*
X021457Y001488D01*
X021529Y001451D01*
X021607Y001426D01*
X021687Y001414D01*
X021728Y001414D01*
X021769Y001414D01*
X021849Y001426D01*
X021926Y001451D01*
X021999Y001488D01*
X022065Y001536D01*
X022122Y001594D01*
X022170Y001660D01*
X022195Y001709D01*
X022239Y001604D01*
X022401Y001441D01*
X022613Y001354D01*
X022843Y001354D01*
X023055Y001441D01*
X023217Y001604D01*
X023305Y001816D01*
X023305Y002640D01*
X023217Y002852D01*
X023168Y002901D01*
X023168Y003315D01*
X023101Y003477D01*
X022977Y003601D01*
X018668Y007910D01*
X018668Y017796D01*
X019128Y018256D01*
X019128Y018009D01*
X019143Y017953D01*
X019172Y017903D01*
X019213Y017862D01*
X019263Y017833D01*
X019319Y017818D01*
X019596Y017818D01*
X019596Y018345D01*
X019612Y018345D01*
X019612Y017818D01*
X019889Y017818D01*
X019913Y017825D01*
X019937Y017801D01*
X020040Y017758D01*
X020663Y017758D01*
X020766Y017801D01*
X020845Y017879D01*
X020853Y017898D01*
X020861Y017879D01*
X020939Y017801D01*
X021042Y017758D01*
X021665Y017758D01*
X021728Y017784D01*
X021790Y017758D01*
X022413Y017758D01*
X022516Y017801D01*
X022595Y017879D01*
X022618Y017935D01*
X022727Y017980D01*
X022851Y018104D01*
X023101Y018354D01*
X023168Y018515D01*
X023168Y018690D01*
X023168Y020554D01*
X023217Y020604D01*
X023228Y020630D01*
X023239Y020604D01*
X023401Y020441D01*
X023613Y020354D01*
X023843Y020354D01*
X024055Y020441D01*
X024217Y020604D01*
X024228Y020630D01*
X024239Y020604D01*
X024401Y020441D01*
X024613Y020354D01*
X024843Y020354D01*
X025055Y020441D01*
X025217Y020604D01*
X025228Y020630D01*
X025239Y020604D01*
X025401Y020441D01*
X025613Y020354D01*
X025843Y020354D01*
X026055Y020441D01*
X026217Y020604D01*
X026228Y020630D01*
X026239Y020604D01*
X026401Y020441D01*
X026613Y020354D01*
X026843Y020354D01*
X027055Y020441D01*
X027217Y020604D01*
X027228Y020630D01*
X027239Y020604D01*
X027401Y020441D01*
X027613Y020354D01*
X027843Y020354D01*
X028055Y020441D01*
X028217Y020604D01*
X028228Y020630D01*
X028239Y020604D01*
X028401Y020441D01*
X028613Y020354D01*
X028843Y020354D01*
X029055Y020441D01*
X029217Y020604D01*
X029228Y020630D01*
X029239Y020604D01*
X029401Y020441D01*
X029613Y020354D01*
X029843Y020354D01*
X030055Y020441D01*
X030217Y020604D01*
X030305Y020816D01*
X030305Y021404D01*
X030931Y020777D01*
X031089Y020712D01*
X030981Y020603D01*
X030914Y020441D01*
X030914Y020266D01*
X030914Y020255D01*
X030861Y020201D01*
X030847Y020168D01*
X030609Y020168D01*
X030595Y020201D01*
X030516Y020280D01*
X030413Y020323D01*
X029790Y020323D01*
X029728Y020297D01*
X029665Y020323D01*
X029042Y020323D01*
X028939Y020280D01*
X028868Y020209D01*
X028827Y020226D01*
X028629Y020226D01*
X028446Y020150D01*
X028306Y020010D01*
X028230Y019827D01*
X028230Y019629D01*
X028306Y019446D01*
X028446Y019306D01*
X028629Y019230D01*
X028827Y019230D01*
X028868Y019247D01*
X028914Y019201D01*
X028914Y019189D01*
X028914Y019014D01*
X028981Y018853D01*
X029355Y018479D01*
X029355Y018479D01*
X029479Y018355D01*
X029640Y018288D01*
X032640Y018288D01*
X032815Y018288D01*
X032977Y018355D01*
X035101Y020479D01*
X035168Y020640D01*
X035168Y020815D01*
X035168Y022347D01*
X035201Y022361D01*
X035280Y022439D01*
X035323Y022542D01*
X035323Y023165D01*
X035297Y023228D01*
X035323Y023290D01*
X035323Y023913D01*
X035280Y024016D01*
X035201Y024095D01*
X035168Y024109D01*
X035168Y024136D01*
X035201Y024170D01*
X035244Y024273D01*
X035244Y024856D01*
X035201Y024959D01*
X035140Y025020D01*
X035169Y025070D01*
X035184Y025126D01*
X035184Y025391D01*
X034728Y025391D01*
X034728Y025391D01*
X035184Y025391D01*
X035184Y025656D01*
X035169Y025712D01*
X035140Y025763D01*
X035099Y025804D01*
X035049Y025832D01*
X034993Y025847D01*
X034728Y025847D01*
X034728Y025392D01*
X034728Y025392D01*
X034728Y025847D01*
X034463Y025847D01*
X034407Y025832D01*
X034357Y025804D01*
X034316Y025763D01*
X034287Y025712D01*
X034272Y025656D01*
X034272Y025391D01*
X034272Y025126D01*
X034287Y025070D01*
X034315Y025020D01*
X034254Y024959D01*
X034212Y024856D01*
X034212Y024273D01*
X034254Y024170D01*
X034288Y024136D01*
X034288Y024109D01*
X034254Y024095D01*
X034176Y024016D01*
X034133Y023913D01*
X034133Y023290D01*
X034159Y023228D01*
X034133Y023165D01*
X034133Y022542D01*
X034176Y022439D01*
X034254Y022361D01*
X034288Y022347D01*
X034288Y020910D01*
X032546Y019168D01*
X031750Y019168D01*
X031768Y019176D01*
X031792Y019200D01*
X031817Y019193D01*
X032094Y019193D01*
X032094Y019720D01*
X032110Y019720D01*
X032110Y019736D01*
X032578Y019736D01*
X032578Y020072D01*
X032563Y020128D01*
X032534Y020178D01*
X032493Y020219D01*
X032443Y020248D01*
X032387Y020263D01*
X032385Y020263D01*
X032602Y020480D01*
X032726Y020604D01*
X032793Y020765D01*
X032793Y020997D01*
X032809Y020981D01*
X032859Y020952D01*
X032915Y020937D01*
X033102Y020937D01*
X033288Y020937D01*
X033344Y020952D01*
X033394Y020981D01*
X033435Y021022D01*
X033464Y021072D01*
X033479Y021128D01*
X033479Y021334D01*
X033102Y021334D01*
X033102Y021334D01*
X033102Y020937D01*
X033102Y021334D01*
X033102Y021334D01*
X033479Y021334D01*
X033479Y021540D01*
X033464Y021596D01*
X033435Y021646D01*
X033394Y021687D01*
X033344Y021716D01*
X033288Y021731D01*
X033102Y021731D01*
X033102Y021335D01*
X033102Y021335D01*
X033102Y021731D01*
X033007Y021731D01*
X033044Y021746D01*
X033123Y021825D01*
X033165Y021928D01*
X033165Y022067D01*
X033168Y022073D01*
X033168Y022815D01*
X033101Y022977D01*
X032977Y023101D01*
X032565Y023512D01*
X032565Y024753D01*
X032648Y024835D01*
X032742Y025062D01*
X032742Y025307D01*
X032648Y025534D01*
X032475Y025707D01*
X032248Y025801D01*
X032003Y025801D01*
X031776Y025707D01*
X031603Y025534D01*
X031509Y025307D01*
X031509Y025062D01*
X031603Y024835D01*
X031686Y024753D01*
X031686Y023243D01*
X031752Y023081D01*
X031876Y022957D01*
X032233Y022601D01*
X032198Y022601D01*
X032037Y022534D01*
X031998Y022496D01*
X031515Y022496D01*
X031428Y022460D01*
X031384Y022460D01*
X031281Y022417D01*
X031202Y022338D01*
X031159Y022235D01*
X031159Y021876D01*
X031202Y021773D01*
X031281Y021694D01*
X031384Y021652D01*
X031428Y021652D01*
X031515Y021616D01*
X031937Y021616D01*
X031916Y021567D01*
X031916Y021515D01*
X031330Y021674D02*
X031279Y021674D01*
X031159Y021912D02*
X031041Y021912D01*
X031159Y022151D02*
X030802Y022151D01*
X030563Y022389D02*
X031253Y022389D01*
X031967Y022867D02*
X028565Y022867D01*
X028565Y023105D02*
X031742Y023105D01*
X031686Y023344D02*
X028565Y023344D01*
X028565Y023582D02*
X031686Y023582D01*
X031686Y023821D02*
X028565Y023821D01*
X028565Y024059D02*
X031686Y024059D01*
X031686Y024298D02*
X028565Y024298D01*
X028565Y024536D02*
X031686Y024536D01*
X031663Y024775D02*
X028588Y024775D01*
X028722Y025013D02*
X031529Y025013D01*
X031509Y025252D02*
X028742Y025252D01*
X028666Y025491D02*
X031585Y025491D01*
X031829Y025729D02*
X028422Y025729D01*
X027829Y025729D02*
X023659Y025729D01*
X023684Y025491D02*
X027585Y025491D01*
X027509Y025252D02*
X023684Y025252D01*
X023647Y025013D02*
X027529Y025013D01*
X027663Y024775D02*
X023744Y024775D01*
X023744Y024536D02*
X027686Y024536D01*
X027686Y024298D02*
X023744Y024298D01*
X023737Y024059D02*
X027686Y024059D01*
X027686Y023821D02*
X023823Y023821D01*
X023823Y023582D02*
X027686Y023582D01*
X027686Y023344D02*
X023823Y023344D01*
X023823Y023105D02*
X027686Y023105D01*
X027686Y022867D02*
X023823Y022867D01*
X023823Y022628D02*
X027686Y022628D01*
X027728Y022389D02*
X023730Y022389D01*
X023620Y022151D02*
X027933Y022151D01*
X028157Y021912D02*
X028171Y021912D01*
X027299Y021912D02*
X027157Y021912D01*
X026299Y021912D02*
X026157Y021912D01*
X025299Y021912D02*
X025157Y021912D01*
X024299Y021912D02*
X024157Y021912D01*
X024095Y020481D02*
X024361Y020481D01*
X025095Y020481D02*
X025361Y020481D01*
X026095Y020481D02*
X026361Y020481D01*
X027095Y020481D02*
X027361Y020481D01*
X028095Y020481D02*
X028361Y020481D01*
X028303Y020004D02*
X023168Y020004D01*
X023168Y019766D02*
X028230Y019766D01*
X028272Y019527D02*
X023168Y019527D01*
X023168Y019288D02*
X028487Y019288D01*
X028914Y019050D02*
X023168Y019050D01*
X023168Y018811D02*
X029022Y018811D01*
X029261Y018573D02*
X023168Y018573D01*
X023081Y018334D02*
X029528Y018334D01*
X028902Y020243D02*
X023168Y020243D01*
X023168Y020481D02*
X023361Y020481D01*
X022288Y020481D02*
X022129Y020481D01*
X022128Y020720D02*
X022191Y020720D01*
X022151Y020958D02*
X022128Y020958D01*
X022128Y021197D02*
X022151Y021197D01*
X022151Y021435D02*
X022128Y021435D01*
X022128Y021674D02*
X022165Y021674D01*
X022128Y021912D02*
X022288Y021912D01*
X022404Y022151D02*
X022128Y022151D01*
X022128Y022389D02*
X022642Y022389D01*
X022633Y022628D02*
X022128Y022628D01*
X022128Y022867D02*
X022633Y022867D01*
X022633Y023105D02*
X022128Y023105D01*
X022128Y023344D02*
X022633Y023344D01*
X022633Y023582D02*
X022128Y023582D01*
X022128Y023821D02*
X022633Y023821D01*
X022718Y024059D02*
X022128Y024059D01*
X022071Y024298D02*
X022712Y024298D01*
X022712Y024536D02*
X021839Y024536D01*
X021601Y024775D02*
X022712Y024775D01*
X022809Y025013D02*
X021362Y025013D01*
X021242Y025252D02*
X022772Y025252D01*
X022772Y025391D02*
X023227Y025391D01*
X023227Y025391D01*
X022772Y025391D01*
X022772Y025491D02*
X021166Y025491D01*
X020922Y025729D02*
X022796Y025729D01*
X023228Y025729D02*
X023228Y025729D01*
X023228Y025491D02*
X023228Y025491D01*
X021728Y024082D02*
X020626Y025185D01*
X020708Y024536D02*
X013659Y024536D01*
X013420Y024298D02*
X020947Y024298D01*
X021185Y024059D02*
X013418Y024059D01*
X013418Y023821D02*
X021328Y023821D01*
X021328Y023582D02*
X013418Y023582D01*
X013418Y023344D02*
X021328Y023344D01*
X021328Y023105D02*
X013418Y023105D01*
X013418Y022867D02*
X021328Y022867D01*
X021328Y022628D02*
X013418Y022628D01*
X013418Y022389D02*
X021328Y022389D01*
X021328Y022151D02*
X013418Y022151D01*
X013418Y021912D02*
X013549Y021912D01*
X014407Y021912D02*
X014634Y021912D01*
X014978Y021912D02*
X014978Y021912D01*
X014978Y021674D02*
X014978Y021674D01*
X014978Y021435D02*
X014978Y021435D01*
X014978Y021227D02*
X014978Y020414D01*
X015019Y020414D01*
X015099Y020426D01*
X015176Y020451D01*
X015249Y020488D01*
X015315Y020536D01*
X015372Y020594D01*
X015420Y020660D01*
X015445Y020709D01*
X015489Y020604D01*
X015651Y020441D01*
X015863Y020354D01*
X016093Y020354D01*
X016305Y020441D01*
X016467Y020604D01*
X016478Y020630D01*
X016489Y020604D01*
X016651Y020441D01*
X016863Y020354D01*
X017093Y020354D01*
X017305Y020441D01*
X017467Y020604D01*
X017478Y020630D01*
X017489Y020604D01*
X017651Y020441D01*
X017863Y020354D01*
X018093Y020354D01*
X018305Y020441D01*
X018467Y020604D01*
X018478Y020630D01*
X018489Y020604D01*
X018651Y020441D01*
X018863Y020354D01*
X019093Y020354D01*
X019305Y020441D01*
X019467Y020604D01*
X019478Y020630D01*
X019489Y020604D01*
X019632Y020460D01*
X019556Y020429D01*
X019336Y020208D01*
X019196Y020150D01*
X019056Y020010D01*
X018980Y019827D01*
X018980Y019629D01*
X019056Y019446D01*
X019065Y019437D01*
X018228Y018600D01*
X017305Y019523D01*
X017143Y019590D01*
X016968Y019590D01*
X013738Y019590D01*
X013418Y019910D01*
X013418Y020775D01*
X013489Y020604D01*
X013651Y020441D01*
X013863Y020354D01*
X014093Y020354D01*
X014305Y020441D01*
X014467Y020604D01*
X014511Y020709D01*
X014536Y020660D01*
X014583Y020594D01*
X014641Y020536D01*
X014707Y020488D01*
X014779Y020451D01*
X014857Y020426D01*
X014937Y020414D01*
X014978Y020414D01*
X014978Y021227D01*
X014978Y021227D01*
X014978Y021197D02*
X014978Y021197D01*
X014978Y020958D02*
X014978Y020958D01*
X014978Y020720D02*
X014978Y020720D01*
X014978Y020481D02*
X014978Y020481D01*
X015235Y020481D02*
X015611Y020481D01*
X016345Y020481D02*
X016611Y020481D01*
X017345Y020481D02*
X017611Y020481D01*
X018345Y020481D02*
X018611Y020481D01*
X019053Y020004D02*
X013418Y020004D01*
X013418Y020243D02*
X019370Y020243D01*
X019345Y020481D02*
X019611Y020481D01*
X018980Y019766D02*
X013562Y019766D01*
X013611Y020481D02*
X013418Y020481D01*
X013418Y020720D02*
X013441Y020720D01*
X012538Y020720D02*
X012168Y020720D01*
X012168Y020958D02*
X012538Y020958D01*
X012538Y021197D02*
X012168Y021197D01*
X012168Y021435D02*
X012538Y021435D01*
X012538Y021674D02*
X012226Y021674D01*
X012226Y021629D02*
X012226Y021827D01*
X012168Y021967D01*
X012168Y022347D01*
X012201Y022361D01*
X012280Y022439D01*
X012323Y022542D01*
X012323Y023165D01*
X012297Y023228D01*
X012323Y023290D01*
X012323Y023913D01*
X012280Y024016D01*
X012201Y024095D01*
X012168Y024109D01*
X012168Y024136D01*
X012201Y024170D01*
X012244Y024273D01*
X012244Y024856D01*
X012201Y024959D01*
X012140Y025020D01*
X012169Y025070D01*
X012184Y025126D01*
X012184Y025391D01*
X011728Y025391D01*
X011728Y025391D01*
X012184Y025391D01*
X012184Y025656D01*
X012169Y025712D01*
X012140Y025763D01*
X012099Y025804D01*
X012049Y025832D01*
X011993Y025847D01*
X011728Y025847D01*
X011728Y025392D01*
X011728Y025392D01*
X011728Y025847D01*
X011463Y025847D01*
X011407Y025832D01*
X011357Y025804D01*
X011316Y025763D01*
X011287Y025712D01*
X011272Y025656D01*
X011272Y025391D01*
X011272Y025126D01*
X011287Y025070D01*
X011315Y025020D01*
X011254Y024959D01*
X011212Y024856D01*
X011212Y024273D01*
X011254Y024170D01*
X011288Y024136D01*
X011288Y024109D01*
X011254Y024095D01*
X011176Y024016D01*
X011133Y023913D01*
X011133Y023290D01*
X011159Y023228D01*
X011133Y023165D01*
X011133Y022542D01*
X011176Y022439D01*
X011254Y022361D01*
X011288Y022347D01*
X011288Y021967D01*
X011230Y021827D01*
X011230Y021629D01*
X011288Y021489D01*
X011288Y020410D01*
X011087Y020209D01*
X011016Y020280D01*
X010913Y020323D01*
X010294Y020323D01*
X010294Y020496D01*
X010309Y020481D01*
X010294Y020481D01*
X010309Y020481D02*
X010359Y020452D01*
X010415Y020437D01*
X010602Y020437D01*
X010788Y020437D01*
X010844Y020452D01*
X010894Y020481D01*
X010935Y020522D01*
X010964Y020572D01*
X010979Y020628D01*
X010979Y020834D01*
X010602Y020834D01*
X010602Y020834D01*
X010602Y020437D01*
X010602Y020834D01*
X010602Y020834D01*
X010979Y020834D01*
X010979Y021040D01*
X010964Y021096D01*
X010935Y021146D01*
X010894Y021187D01*
X010844Y021216D01*
X010788Y021231D01*
X010602Y021231D01*
X010602Y020835D01*
X010602Y020835D01*
X010602Y021231D01*
X010507Y021231D01*
X010544Y021246D01*
X010623Y021325D01*
X010665Y021428D01*
X010665Y021567D01*
X010668Y021573D01*
X010668Y024057D01*
X010668Y024232D01*
X010601Y024394D01*
X009805Y025190D01*
X009805Y025307D01*
X009711Y025534D01*
X009537Y025707D01*
X009311Y025801D01*
X009065Y025801D01*
X008839Y025707D01*
X008665Y025534D01*
X008571Y025307D01*
X008571Y025062D01*
X008665Y024835D01*
X008839Y024662D01*
X009065Y024568D01*
X009182Y024568D01*
X009788Y023962D01*
X009788Y022168D01*
X007868Y022168D01*
X007860Y022171D01*
X007501Y022171D01*
X007398Y022129D01*
X007319Y022050D01*
X007277Y021947D01*
X007277Y021946D01*
X007195Y021864D01*
X007179Y021902D01*
X007179Y021947D01*
X007136Y022050D01*
X007058Y022129D01*
X006955Y022171D01*
X006595Y022171D01*
X006587Y022168D01*
X005140Y022168D01*
X004979Y022101D01*
X004855Y021977D01*
X004546Y021668D01*
X004221Y021668D01*
X004168Y021721D01*
X004168Y023542D01*
X005194Y024568D01*
X005311Y024568D01*
X005537Y024662D01*
X005711Y024835D01*
X005805Y025062D01*
X005805Y025307D01*
X005711Y025534D01*
X005537Y025707D01*
X005311Y025801D01*
X005065Y025801D01*
X004839Y025707D01*
X004665Y025534D01*
X004571Y025307D01*
X004571Y025190D01*
X003355Y023974D01*
X003288Y023812D01*
X003288Y023637D01*
X003288Y021721D01*
X003168Y021602D01*
X003068Y021359D01*
X003068Y021097D01*
X003168Y020854D01*
X003295Y020728D01*
X003168Y020602D01*
X003068Y020359D01*
X003068Y020097D01*
X003168Y019854D01*
X003295Y019728D01*
X003168Y019602D01*
X003068Y019359D01*
X003068Y019097D01*
X003168Y018854D01*
X003295Y018728D01*
X003168Y018602D01*
X003068Y018359D01*
X003068Y018097D01*
X003168Y017854D01*
X003295Y017728D01*
X003168Y017602D01*
X003068Y017359D01*
X003068Y017097D01*
X003168Y016854D01*
X003295Y016728D01*
X003168Y016602D01*
X003068Y016359D01*
X003068Y016097D01*
X003168Y015854D01*
X003354Y015668D01*
X003597Y015568D01*
X003859Y015568D01*
X004102Y015668D01*
X004287Y015854D01*
X004388Y016097D01*
X004388Y016359D01*
X004287Y016602D01*
X004161Y016728D01*
X004287Y016854D01*
X004388Y017097D01*
X004388Y017266D01*
X004851Y017729D01*
X004918Y017890D01*
X004918Y018065D01*
X004918Y018565D01*
X004851Y018727D01*
X004727Y018851D01*
X004388Y019190D01*
X004388Y019359D01*
X004287Y019602D01*
X004161Y019728D01*
X004221Y019788D01*
X006093Y019788D01*
X006268Y019788D01*
X006430Y019855D01*
X007859Y021284D01*
X007860Y021284D01*
X007868Y021288D01*
X009632Y021288D01*
X009538Y021249D01*
X009459Y021170D01*
X009416Y021067D01*
X009416Y020928D01*
X009414Y020922D01*
X009414Y020255D01*
X009361Y020201D01*
X009353Y020183D01*
X009345Y020201D01*
X009266Y020280D01*
X009163Y020323D01*
X008540Y020323D01*
X008437Y020280D01*
X008413Y020256D01*
X008389Y020263D01*
X008112Y020263D01*
X008112Y019736D01*
X008096Y019736D01*
X008096Y020263D01*
X007819Y020263D01*
X007763Y020248D01*
X007713Y020219D01*
X007672Y020178D01*
X007643Y020128D01*
X007628Y020072D01*
X007628Y019736D01*
X008096Y019736D01*
X008096Y019720D01*
X008112Y019720D01*
X008112Y019193D01*
X008389Y019193D01*
X008413Y019200D01*
X008437Y019176D01*
X008540Y019133D01*
X009163Y019133D01*
X009266Y019176D01*
X009345Y019254D01*
X009353Y019273D01*
X009361Y019254D01*
X009439Y019176D01*
X009542Y019133D01*
X010165Y019133D01*
X010228Y019159D01*
X010290Y019133D01*
X010913Y019133D01*
X011016Y019176D01*
X011095Y019254D01*
X011109Y019288D01*
X011315Y019288D01*
X011477Y019355D01*
X011601Y019479D01*
X012101Y019979D01*
X012168Y020140D01*
X012168Y020315D01*
X012168Y021489D01*
X012226Y021629D01*
X012191Y021912D02*
X012538Y021912D01*
X012538Y022151D02*
X012168Y022151D01*
X012230Y022389D02*
X012538Y022389D01*
X012538Y022628D02*
X012323Y022628D01*
X012323Y022867D02*
X012538Y022867D01*
X012538Y023105D02*
X012323Y023105D01*
X012323Y023344D02*
X012538Y023344D01*
X012538Y023582D02*
X012323Y023582D01*
X012323Y023821D02*
X012538Y023821D01*
X012538Y024059D02*
X012237Y024059D01*
X012244Y024298D02*
X012538Y024298D01*
X012538Y024536D02*
X012244Y024536D01*
X012244Y024775D02*
X012653Y024775D01*
X012891Y025013D02*
X012147Y025013D01*
X012184Y025252D02*
X013130Y025252D01*
X013368Y025491D02*
X012184Y025491D01*
X012159Y025729D02*
X016329Y025729D01*
X016922Y025729D02*
X020329Y025729D01*
X020085Y025491D02*
X017166Y025491D01*
X017242Y025252D02*
X020009Y025252D01*
X020029Y025013D02*
X017222Y025013D01*
X017088Y024775D02*
X020163Y024775D01*
X021728Y024082D02*
X021728Y020161D01*
X022168Y020243D02*
X022288Y020243D01*
X022288Y020004D02*
X022165Y020004D01*
X022063Y019766D02*
X022288Y019766D01*
X022102Y019527D02*
X022102Y019527D01*
X022843Y018096D02*
X036448Y018096D01*
X036448Y018334D02*
X032927Y018334D01*
X033195Y018573D02*
X036448Y018573D01*
X036448Y018811D02*
X033434Y018811D01*
X033672Y019050D02*
X036448Y019050D01*
X036448Y019288D02*
X033911Y019288D01*
X034149Y019527D02*
X036448Y019527D01*
X036448Y019766D02*
X034388Y019766D01*
X034626Y020004D02*
X036448Y020004D01*
X036448Y020243D02*
X034865Y020243D01*
X035102Y020481D02*
X036448Y020481D01*
X036448Y020720D02*
X035168Y020720D01*
X035168Y020958D02*
X036448Y020958D01*
X036448Y021197D02*
X035168Y021197D01*
X035168Y021435D02*
X036448Y021435D01*
X036448Y021674D02*
X035168Y021674D01*
X035168Y021912D02*
X036448Y021912D01*
X036448Y022151D02*
X035168Y022151D01*
X035230Y022389D02*
X036448Y022389D01*
X036448Y022628D02*
X035323Y022628D01*
X035323Y022867D02*
X036448Y022867D01*
X036448Y023105D02*
X035323Y023105D01*
X035323Y023344D02*
X036448Y023344D01*
X036448Y023582D02*
X035323Y023582D01*
X035323Y023821D02*
X036448Y023821D01*
X036448Y024059D02*
X035237Y024059D01*
X035244Y024298D02*
X036448Y024298D01*
X036448Y024536D02*
X035244Y024536D01*
X035244Y024775D02*
X036448Y024775D01*
X036448Y025013D02*
X035147Y025013D01*
X035184Y025252D02*
X036448Y025252D01*
X036448Y025491D02*
X035184Y025491D01*
X035159Y025729D02*
X036448Y025729D01*
X036448Y025968D02*
X001008Y025968D01*
X001008Y026206D02*
X036448Y026206D01*
X036448Y026228D02*
X036448Y003441D01*
X036309Y003744D01*
X035959Y004149D01*
X035509Y004438D01*
X035509Y004438D01*
X034995Y004589D01*
X034460Y004589D01*
X033947Y004438D01*
X033947Y004438D01*
X033497Y004149D01*
X033497Y004149D01*
X033497Y004149D01*
X033146Y003744D01*
X032924Y003258D01*
X032924Y003257D01*
X032848Y002728D01*
X032848Y002728D01*
X032924Y002198D01*
X033146Y001711D01*
X033497Y001307D01*
X033947Y001018D01*
X033981Y001008D01*
X003475Y001008D01*
X003509Y001018D01*
X003959Y001307D01*
X003959Y001307D01*
X004309Y001711D01*
X004532Y002198D01*
X004608Y002728D01*
X004532Y003257D01*
X004532Y003258D01*
X004309Y003744D01*
X003959Y004149D01*
X003509Y004438D01*
X003509Y004438D01*
X002995Y004589D01*
X002460Y004589D01*
X001947Y004438D01*
X001947Y004438D01*
X001497Y004149D01*
X001497Y004149D01*
X001497Y004149D01*
X001146Y003744D01*
X001008Y003441D01*
X001008Y026228D01*
X036448Y026228D01*
X034728Y025729D02*
X034728Y025729D01*
X034728Y025491D02*
X034728Y025491D01*
X034727Y025391D02*
X034727Y025391D01*
X034272Y025391D01*
X034727Y025391D01*
X034272Y025491D02*
X032666Y025491D01*
X032742Y025252D02*
X034272Y025252D01*
X034309Y025013D02*
X032722Y025013D01*
X032588Y024775D02*
X034212Y024775D01*
X034212Y024536D02*
X032565Y024536D01*
X032565Y024298D02*
X034212Y024298D01*
X034218Y024059D02*
X032565Y024059D01*
X032565Y023821D02*
X034133Y023821D01*
X034133Y023582D02*
X032565Y023582D01*
X032734Y023344D02*
X034133Y023344D01*
X034133Y023105D02*
X032973Y023105D01*
X033147Y022867D02*
X034133Y022867D01*
X034133Y022628D02*
X033168Y022628D01*
X033168Y022389D02*
X034225Y022389D01*
X034288Y022151D02*
X033168Y022151D01*
X033159Y021912D02*
X034288Y021912D01*
X034288Y021674D02*
X033408Y021674D01*
X033479Y021435D02*
X034288Y021435D01*
X034288Y021197D02*
X033479Y021197D01*
X033355Y020958D02*
X034288Y020958D01*
X034097Y020720D02*
X032774Y020720D01*
X032793Y020958D02*
X032849Y020958D01*
X033102Y020958D02*
X033102Y020958D01*
X033102Y021197D02*
X033102Y021197D01*
X033102Y021435D02*
X033102Y021435D01*
X033102Y021674D02*
X033102Y021674D01*
X032603Y020481D02*
X033859Y020481D01*
X033620Y020243D02*
X032452Y020243D01*
X032578Y020004D02*
X033382Y020004D01*
X033143Y019766D02*
X032578Y019766D01*
X032578Y019720D02*
X032110Y019720D01*
X032110Y019193D01*
X032387Y019193D01*
X032443Y019208D01*
X032493Y019237D01*
X032534Y019278D01*
X032563Y019328D01*
X032578Y019384D01*
X032578Y019720D01*
X032578Y019527D02*
X032905Y019527D01*
X032666Y019288D02*
X032540Y019288D01*
X032110Y019288D02*
X032094Y019288D01*
X032094Y019527D02*
X032110Y019527D01*
X030902Y020243D02*
X030554Y020243D01*
X030930Y020481D02*
X030095Y020481D01*
X030265Y020720D02*
X031070Y020720D01*
X030750Y020958D02*
X030305Y020958D01*
X030305Y021197D02*
X030512Y021197D01*
X029361Y020481D02*
X029095Y020481D01*
X030287Y022628D02*
X032205Y022628D01*
X032422Y025729D02*
X034296Y025729D01*
X036448Y017857D02*
X022573Y017857D01*
X020883Y017857D02*
X020823Y017857D01*
X019612Y017857D02*
X019596Y017857D01*
X019596Y018096D02*
X019612Y018096D01*
X019596Y018334D02*
X019612Y018334D01*
X019128Y018096D02*
X018968Y018096D01*
X018729Y017857D02*
X019221Y017857D01*
X018668Y017619D02*
X036448Y017619D01*
X036448Y017380D02*
X018668Y017380D01*
X018668Y017142D02*
X036448Y017142D01*
X036448Y016903D02*
X018668Y016903D01*
X018668Y016664D02*
X036448Y016664D01*
X036448Y016426D02*
X018668Y016426D01*
X018668Y016187D02*
X036448Y016187D01*
X036448Y015949D02*
X018668Y015949D01*
X018668Y015710D02*
X036448Y015710D01*
X036448Y015472D02*
X018668Y015472D01*
X018668Y015233D02*
X036448Y015233D01*
X036448Y014995D02*
X018668Y014995D01*
X018668Y014756D02*
X036448Y014756D01*
X036448Y014518D02*
X018668Y014518D01*
X018668Y014279D02*
X036448Y014279D01*
X036448Y014040D02*
X018668Y014040D01*
X018668Y013802D02*
X036448Y013802D01*
X036448Y013563D02*
X018668Y013563D01*
X018668Y013325D02*
X036448Y013325D01*
X036448Y013086D02*
X018668Y013086D01*
X018668Y012848D02*
X036448Y012848D01*
X036448Y012609D02*
X018668Y012609D01*
X018668Y012371D02*
X036448Y012371D01*
X036448Y012132D02*
X018668Y012132D01*
X018668Y011894D02*
X036448Y011894D01*
X036448Y011655D02*
X018668Y011655D01*
X018668Y011416D02*
X036448Y011416D01*
X036448Y011178D02*
X018668Y011178D01*
X018668Y010939D02*
X036448Y010939D01*
X036448Y010701D02*
X018668Y010701D01*
X018668Y010462D02*
X036448Y010462D01*
X036448Y010224D02*
X018668Y010224D01*
X018668Y009985D02*
X036448Y009985D01*
X036448Y009747D02*
X018668Y009747D01*
X018668Y009508D02*
X036448Y009508D01*
X036448Y009270D02*
X018668Y009270D01*
X018668Y009031D02*
X036448Y009031D01*
X036448Y008793D02*
X018668Y008793D01*
X018668Y008554D02*
X036448Y008554D01*
X036448Y008315D02*
X018668Y008315D01*
X018668Y008077D02*
X036448Y008077D01*
X036448Y007838D02*
X018740Y007838D01*
X018978Y007600D02*
X036448Y007600D01*
X036448Y007361D02*
X019217Y007361D01*
X019455Y007123D02*
X036448Y007123D01*
X036448Y006884D02*
X019694Y006884D01*
X019932Y006646D02*
X036448Y006646D01*
X036448Y006407D02*
X020171Y006407D01*
X020409Y006169D02*
X036448Y006169D01*
X036448Y005930D02*
X020648Y005930D01*
X020886Y005691D02*
X036448Y005691D01*
X036448Y005453D02*
X021125Y005453D01*
X021364Y005214D02*
X036448Y005214D01*
X036448Y004976D02*
X021602Y004976D01*
X021841Y004737D02*
X036448Y004737D01*
X036448Y004499D02*
X035302Y004499D01*
X034995Y004589D02*
X034995Y004589D01*
X034460Y004589D02*
X034460Y004589D01*
X034154Y004499D02*
X022079Y004499D01*
X022318Y004260D02*
X033670Y004260D01*
X033387Y004022D02*
X022556Y004022D01*
X022795Y003783D02*
X033180Y003783D01*
X033146Y003744D02*
X033146Y003744D01*
X033055Y003545D02*
X023033Y003545D01*
X023168Y003306D02*
X032946Y003306D01*
X032897Y003067D02*
X029926Y003067D01*
X029843Y003102D02*
X029613Y003102D01*
X029401Y003014D01*
X029239Y002852D01*
X029228Y002826D01*
X029217Y002852D01*
X029055Y003014D01*
X028843Y003102D01*
X028613Y003102D01*
X028401Y003014D01*
X028239Y002852D01*
X028228Y002826D01*
X028217Y002852D01*
X028055Y003014D01*
X027843Y003102D01*
X027613Y003102D01*
X027401Y003014D01*
X027239Y002852D01*
X027228Y002826D01*
X027217Y002852D01*
X027055Y003014D01*
X026843Y003102D01*
X026613Y003102D01*
X026401Y003014D01*
X026239Y002852D01*
X026228Y002826D01*
X026217Y002852D01*
X026055Y003014D01*
X025843Y003102D01*
X025613Y003102D01*
X025401Y003014D01*
X025239Y002852D01*
X025228Y002826D01*
X025217Y002852D01*
X025055Y003014D01*
X024843Y003102D01*
X024613Y003102D01*
X024401Y003014D01*
X024239Y002852D01*
X024151Y002640D01*
X024151Y001816D01*
X024239Y001604D01*
X024401Y001441D01*
X024613Y001354D01*
X024843Y001354D01*
X025055Y001441D01*
X025217Y001604D01*
X025228Y001630D01*
X025239Y001604D01*
X025401Y001441D01*
X025613Y001354D01*
X025843Y001354D01*
X026055Y001441D01*
X026217Y001604D01*
X026228Y001630D01*
X026239Y001604D01*
X026401Y001441D01*
X026613Y001354D01*
X026843Y001354D01*
X027055Y001441D01*
X027217Y001604D01*
X027228Y001630D01*
X027239Y001604D01*
X027401Y001441D01*
X027613Y001354D01*
X027843Y001354D01*
X028055Y001441D01*
X028217Y001604D01*
X028228Y001630D01*
X028239Y001604D01*
X028401Y001441D01*
X028613Y001354D01*
X028843Y001354D01*
X029055Y001441D01*
X029217Y001604D01*
X029228Y001630D01*
X029239Y001604D01*
X029401Y001441D01*
X029613Y001354D01*
X029843Y001354D01*
X030055Y001441D01*
X030217Y001604D01*
X030305Y001816D01*
X030305Y002640D01*
X030217Y002852D01*
X030055Y003014D01*
X029843Y003102D01*
X029529Y003067D02*
X028926Y003067D01*
X029227Y002829D02*
X029229Y002829D01*
X028529Y003067D02*
X027926Y003067D01*
X028227Y002829D02*
X028229Y002829D01*
X027529Y003067D02*
X026926Y003067D01*
X027227Y002829D02*
X027229Y002829D01*
X026529Y003067D02*
X025926Y003067D01*
X026227Y002829D02*
X026229Y002829D01*
X025529Y003067D02*
X024926Y003067D01*
X025227Y002829D02*
X025229Y002829D01*
X024529Y003067D02*
X023168Y003067D01*
X023227Y002829D02*
X024229Y002829D01*
X024151Y002590D02*
X023305Y002590D01*
X023305Y002352D02*
X024151Y002352D01*
X024151Y002113D02*
X023305Y002113D01*
X023305Y001875D02*
X024151Y001875D01*
X024225Y001636D02*
X023231Y001636D01*
X022949Y001398D02*
X024506Y001398D01*
X024949Y001398D02*
X025506Y001398D01*
X025949Y001398D02*
X026506Y001398D01*
X026949Y001398D02*
X027506Y001398D01*
X027949Y001398D02*
X028506Y001398D01*
X028949Y001398D02*
X029506Y001398D01*
X029949Y001398D02*
X033418Y001398D01*
X033497Y001307D02*
X033497Y001307D01*
X033727Y001159D02*
X003729Y001159D01*
X004037Y001398D02*
X017506Y001398D01*
X017225Y001636D02*
X004244Y001636D01*
X004384Y001875D02*
X017151Y001875D01*
X017151Y002113D02*
X004493Y002113D01*
X004532Y002198D02*
X004532Y002198D01*
X004554Y002352D02*
X017151Y002352D01*
X017151Y002590D02*
X004588Y002590D01*
X004593Y002829D02*
X017229Y002829D01*
X017529Y003067D02*
X004559Y003067D01*
X004510Y003306D02*
X022027Y003306D01*
X021789Y003545D02*
X004401Y003545D01*
X004309Y003744D02*
X004309Y003744D01*
X004276Y003783D02*
X021550Y003783D01*
X021312Y004022D02*
X004069Y004022D01*
X003959Y004149D02*
X003959Y004149D01*
X003785Y004260D02*
X021073Y004260D01*
X020835Y004499D02*
X003302Y004499D01*
X002995Y004589D02*
X002995Y004589D01*
X002460Y004589D02*
X002460Y004589D01*
X002154Y004499D02*
X001008Y004499D01*
X001008Y004737D02*
X020596Y004737D01*
X020358Y004976D02*
X001008Y004976D01*
X001008Y005214D02*
X020119Y005214D01*
X019881Y005453D02*
X001008Y005453D01*
X001008Y005691D02*
X019642Y005691D01*
X019403Y005930D02*
X001008Y005930D01*
X001008Y006169D02*
X019165Y006169D01*
X018926Y006407D02*
X001008Y006407D01*
X001008Y006646D02*
X018688Y006646D01*
X018449Y006884D02*
X001008Y006884D01*
X001008Y007123D02*
X018211Y007123D01*
X017972Y007361D02*
X001008Y007361D01*
X001008Y007600D02*
X017805Y007600D01*
X017788Y007838D02*
X001008Y007838D01*
X001008Y008077D02*
X017788Y008077D01*
X017788Y008315D02*
X001008Y008315D01*
X001008Y008554D02*
X017788Y008554D01*
X017788Y008793D02*
X001008Y008793D01*
X001008Y009031D02*
X017788Y009031D01*
X017788Y009270D02*
X001008Y009270D01*
X001008Y009508D02*
X017788Y009508D01*
X017788Y009747D02*
X001008Y009747D01*
X001008Y009985D02*
X017788Y009985D01*
X017788Y010224D02*
X001008Y010224D01*
X001008Y010462D02*
X017788Y010462D01*
X017788Y010701D02*
X001008Y010701D01*
X001008Y010939D02*
X017788Y010939D01*
X017788Y011178D02*
X001008Y011178D01*
X001008Y011416D02*
X017788Y011416D01*
X017788Y011655D02*
X001008Y011655D01*
X001008Y011894D02*
X017788Y011894D01*
X017788Y012132D02*
X001008Y012132D01*
X001008Y012371D02*
X017788Y012371D01*
X017788Y012609D02*
X001008Y012609D01*
X001008Y012848D02*
X017788Y012848D01*
X017788Y013086D02*
X001008Y013086D01*
X001008Y013325D02*
X017788Y013325D01*
X017788Y013563D02*
X001008Y013563D01*
X001008Y013802D02*
X017788Y013802D01*
X017788Y014040D02*
X001008Y014040D01*
X001008Y014279D02*
X017788Y014279D01*
X017788Y014518D02*
X001008Y014518D01*
X001008Y014756D02*
X017788Y014756D01*
X017788Y014995D02*
X001008Y014995D01*
X001008Y015233D02*
X017788Y015233D01*
X017788Y015472D02*
X001008Y015472D01*
X001008Y015710D02*
X003312Y015710D01*
X003129Y015949D02*
X001008Y015949D01*
X001008Y016187D02*
X003068Y016187D01*
X003096Y016426D02*
X001008Y016426D01*
X001008Y016664D02*
X003231Y016664D01*
X003148Y016903D02*
X001008Y016903D01*
X001008Y017142D02*
X003068Y017142D01*
X003077Y017380D02*
X001008Y017380D01*
X001008Y017619D02*
X003185Y017619D01*
X003167Y017857D02*
X001008Y017857D01*
X001008Y018096D02*
X003068Y018096D01*
X003068Y018334D02*
X001008Y018334D01*
X001008Y018573D02*
X003156Y018573D01*
X003211Y018811D02*
X001008Y018811D01*
X001008Y019050D02*
X003087Y019050D01*
X003068Y019288D02*
X001008Y019288D01*
X001008Y019527D02*
X003137Y019527D01*
X003257Y019766D02*
X001008Y019766D01*
X001008Y020004D02*
X003106Y020004D01*
X003068Y020243D02*
X001008Y020243D01*
X001008Y020481D02*
X003118Y020481D01*
X003286Y020720D02*
X001008Y020720D01*
X001008Y020958D02*
X003125Y020958D01*
X003068Y021197D02*
X001008Y021197D01*
X001008Y021435D02*
X003099Y021435D01*
X003241Y021674D02*
X001008Y021674D01*
X001008Y021912D02*
X003288Y021912D01*
X003288Y022151D02*
X001008Y022151D01*
X001008Y022389D02*
X003288Y022389D01*
X003288Y022628D02*
X001008Y022628D01*
X001008Y022867D02*
X003288Y022867D01*
X003288Y023105D02*
X001008Y023105D01*
X001008Y023344D02*
X003288Y023344D01*
X003288Y023582D02*
X001008Y023582D01*
X001008Y023821D02*
X003292Y023821D01*
X003441Y024059D02*
X001008Y024059D01*
X001008Y024298D02*
X003679Y024298D01*
X003918Y024536D02*
X001008Y024536D01*
X001008Y024775D02*
X004156Y024775D01*
X004395Y025013D02*
X001008Y025013D01*
X001008Y025252D02*
X004571Y025252D01*
X004647Y025491D02*
X001008Y025491D01*
X001008Y025729D02*
X004892Y025729D01*
X005484Y025729D02*
X008892Y025729D01*
X008647Y025491D02*
X005729Y025491D01*
X005805Y025252D02*
X008571Y025252D01*
X008592Y025013D02*
X005784Y025013D01*
X005650Y024775D02*
X008726Y024775D01*
X009214Y024536D02*
X005162Y024536D01*
X004924Y024298D02*
X009452Y024298D01*
X009691Y024059D02*
X004685Y024059D01*
X004446Y023821D02*
X009788Y023821D01*
X009788Y023582D02*
X004208Y023582D01*
X004168Y023344D02*
X009788Y023344D01*
X009788Y023105D02*
X004168Y023105D01*
X004168Y022867D02*
X009788Y022867D01*
X009788Y022628D02*
X004168Y022628D01*
X004168Y022389D02*
X009788Y022389D01*
X010668Y022389D02*
X011225Y022389D01*
X011288Y022151D02*
X010668Y022151D01*
X010668Y021912D02*
X011265Y021912D01*
X011230Y021674D02*
X010668Y021674D01*
X010665Y021435D02*
X011288Y021435D01*
X011288Y021197D02*
X010878Y021197D01*
X010979Y020958D02*
X011288Y020958D01*
X011288Y020720D02*
X010979Y020720D01*
X010895Y020481D02*
X011288Y020481D01*
X011120Y020243D02*
X011054Y020243D01*
X010602Y020481D02*
X010602Y020481D01*
X010602Y020720D02*
X010602Y020720D01*
X010602Y020958D02*
X010602Y020958D01*
X010602Y021197D02*
X010602Y021197D01*
X009486Y021197D02*
X007772Y021197D01*
X007533Y020958D02*
X009416Y020958D01*
X009414Y020720D02*
X007295Y020720D01*
X007056Y020481D02*
X009414Y020481D01*
X009402Y020243D02*
X009304Y020243D01*
X008112Y020243D02*
X008096Y020243D01*
X008096Y020004D02*
X008112Y020004D01*
X008096Y019766D02*
X008112Y019766D01*
X008096Y019720D02*
X007628Y019720D01*
X007628Y019384D01*
X007643Y019328D01*
X007672Y019278D01*
X007713Y019237D01*
X007763Y019208D01*
X007819Y019193D01*
X008096Y019193D01*
X008096Y019720D01*
X008096Y019527D02*
X008112Y019527D01*
X008096Y019288D02*
X008112Y019288D01*
X007666Y019288D02*
X004388Y019288D01*
X004318Y019527D02*
X007628Y019527D01*
X007628Y019766D02*
X004199Y019766D01*
X004528Y019050D02*
X013034Y019050D01*
X013272Y018811D02*
X004767Y018811D01*
X004915Y018573D02*
X017011Y018573D01*
X017249Y018334D02*
X004918Y018334D01*
X004918Y018096D02*
X017488Y018096D01*
X017726Y017857D02*
X004904Y017857D01*
X004741Y017619D02*
X017788Y017619D01*
X017788Y017380D02*
X004502Y017380D01*
X004388Y017142D02*
X017788Y017142D01*
X017788Y016903D02*
X004308Y016903D01*
X004225Y016664D02*
X017788Y016664D01*
X017788Y016426D02*
X004360Y016426D01*
X004388Y016187D02*
X017788Y016187D01*
X017788Y015949D02*
X004327Y015949D01*
X004144Y015710D02*
X017788Y015710D01*
X018017Y018811D02*
X018439Y018811D01*
X018678Y019050D02*
X017778Y019050D01*
X017540Y019288D02*
X018916Y019288D01*
X019022Y019527D02*
X017296Y019527D01*
X017407Y021912D02*
X017549Y021912D01*
X016549Y021912D02*
X016407Y021912D01*
X015549Y021912D02*
X015322Y021912D01*
X014721Y020481D02*
X014345Y020481D01*
X012795Y019288D02*
X011317Y019288D01*
X011649Y019527D02*
X012585Y019527D01*
X012538Y019766D02*
X011888Y019766D01*
X012111Y020004D02*
X012538Y020004D01*
X012538Y020243D02*
X012168Y020243D01*
X012168Y020481D02*
X012538Y020481D01*
X011133Y022628D02*
X010668Y022628D01*
X010668Y022867D02*
X011133Y022867D01*
X011133Y023105D02*
X010668Y023105D01*
X010668Y023344D02*
X011133Y023344D01*
X011133Y023582D02*
X010668Y023582D01*
X010668Y023821D02*
X011133Y023821D01*
X011218Y024059D02*
X010668Y024059D01*
X010641Y024298D02*
X011212Y024298D01*
X011212Y024536D02*
X010458Y024536D01*
X010220Y024775D02*
X011212Y024775D01*
X011309Y025013D02*
X009981Y025013D01*
X009805Y025252D02*
X011272Y025252D01*
X011272Y025391D02*
X011727Y025391D01*
X011727Y025391D01*
X011272Y025391D01*
X011272Y025491D02*
X009729Y025491D01*
X009484Y025729D02*
X011296Y025729D01*
X011728Y025729D02*
X011728Y025729D01*
X011728Y025491D02*
X011728Y025491D01*
X007452Y022151D02*
X007004Y022151D01*
X007179Y021912D02*
X007243Y021912D01*
X006818Y020243D02*
X007754Y020243D01*
X007628Y020004D02*
X006579Y020004D01*
X004790Y021912D02*
X004168Y021912D01*
X004168Y022151D02*
X005100Y022151D01*
X004552Y021674D02*
X004215Y021674D01*
X018407Y021912D02*
X018549Y021912D01*
X019407Y021912D02*
X019549Y021912D01*
X020407Y021912D02*
X020549Y021912D01*
X035785Y004260D02*
X036448Y004260D01*
X036448Y004022D02*
X036069Y004022D01*
X035959Y004149D02*
X035959Y004149D01*
X036276Y003783D02*
X036448Y003783D01*
X036309Y003744D02*
X036309Y003744D01*
X036401Y003545D02*
X036448Y003545D01*
X033947Y001018D02*
X033947Y001018D01*
X033211Y001636D02*
X030231Y001636D01*
X030305Y001875D02*
X033072Y001875D01*
X033146Y001711D02*
X033146Y001711D01*
X032963Y002113D02*
X030305Y002113D01*
X030305Y002352D02*
X032902Y002352D01*
X032924Y002198D02*
X032924Y002198D01*
X032868Y002590D02*
X030305Y002590D01*
X030227Y002829D02*
X032862Y002829D01*
X022506Y001398D02*
X019949Y001398D01*
X020231Y001636D02*
X020303Y001636D01*
X020728Y001636D02*
X020728Y001636D01*
X020728Y001414D02*
X020728Y002227D01*
X020728Y002227D01*
X020728Y001414D01*
X020728Y001875D02*
X020728Y001875D01*
X020728Y002113D02*
X020728Y002113D01*
X020728Y002352D02*
X020728Y002352D01*
X020728Y002590D02*
X020728Y002590D01*
X020728Y002829D02*
X020728Y002829D01*
X021146Y002829D02*
X021309Y002829D01*
X021728Y002829D02*
X021728Y002829D01*
X021728Y002590D02*
X021728Y002590D01*
X021728Y002352D02*
X021728Y002352D01*
X021728Y002227D02*
X021728Y001414D01*
X021728Y002227D01*
X021728Y002227D01*
X021728Y002113D02*
X021728Y002113D01*
X021728Y001875D02*
X021728Y001875D01*
X021728Y001636D02*
X021728Y001636D01*
X022153Y001636D02*
X022225Y001636D01*
X022229Y002829D02*
X022146Y002829D01*
X022266Y003067D02*
X019926Y003067D01*
X020227Y002829D02*
X020309Y002829D01*
X019529Y003067D02*
X018926Y003067D01*
X019227Y002829D02*
X019229Y002829D01*
X018529Y003067D02*
X017926Y003067D01*
X018227Y002829D02*
X018229Y002829D01*
X018506Y001398D02*
X017949Y001398D01*
X018949Y001398D02*
X019506Y001398D01*
X021153Y001636D02*
X021303Y001636D01*
X001670Y004260D02*
X001008Y004260D01*
X001008Y004022D02*
X001387Y004022D01*
X001180Y003783D02*
X001008Y003783D01*
X001146Y003744D02*
X001146Y003744D01*
X001055Y003545D02*
X001008Y003545D01*
D26*
X011728Y021728D03*
X019478Y019728D03*
X028728Y019728D03*
D27*
X026629Y030185D02*
X026629Y036379D01*
X028728Y038478D01*
X030728Y038478D02*
X030728Y034078D01*
X033622Y031185D01*
X022122Y031185D02*
X019228Y034078D01*
X019228Y038478D01*
X017228Y038478D02*
X015129Y036379D01*
X015129Y030185D01*
X010684Y031185D02*
X008728Y033141D01*
X008728Y035728D01*
X009728Y036728D01*
X009728Y038478D01*
X007728Y038478D02*
X005478Y036228D01*
X005478Y031970D01*
X003692Y030185D01*
M02*
