%
M48
M72
T01C0.0236
T02C0.0354
T03C0.0394
T04C0.0433
T05C0.0470
T06C0.0787
T07C0.0810
T08C0.1181
%
T01
X19478Y19728
X11728Y21728
X28728Y19728
T02
X28728Y21228
X27728Y21228
X26728Y21228
X25728Y21228
X24728Y21228
X23728Y21228
X22728Y21228
X20978Y21228
X19978Y21228
X18978Y21228
X17978Y21228
X16978Y21228
X15978Y21228
X14978Y21228
X13978Y21228
X29728Y21228
X29728Y2228
X28728Y2228
X27728Y2228
X26728Y2228
X25728Y2228
X24728Y2228
X22728Y2228
X21728Y2228
X20728Y2228
X19728Y2228
X18728Y2228
X17728Y2228
T03
X3728Y16228
X3728Y17228
X3728Y18228
X3728Y19228
X3728Y20228
X3728Y21228
T04
X5188Y25185
X9188Y25185
X16626Y25185
X20626Y25185
X28126Y25185
X32126Y25185
T05
X30728Y38478
X28728Y38478
X19228Y38478
X17228Y38478
X9728Y38478
X7728Y38478
T06
X10684Y34189
X10684Y31185
X22122Y31185
X22122Y34189
X33622Y34189
X33622Y31185
T07
X26629Y30185
X15129Y30185
X3692Y30185
T08
X2728Y2728
X34728Y2728
X34728Y38728
X2728Y38728
M30
