G75*
G70*
%OFA0B0*%
%FSLAX24Y24*%
%IPPOS*%
%LPD*%
%AMOC8*
5,1,8,0,0,1.08239X$1,22.5*
%
%ADD10C,0.0080*%
%ADD11C,0.0160*%
%ADD12C,0.0070*%
%ADD13C,0.0060*%
%ADD14C,0.0110*%
%ADD15C,0.0090*%
%ADD16R,0.0079X0.0079*%
%ADD17C,0.0050*%
%ADD18C,0.0059*%
D10*
X002098Y002728D02*
X002100Y002778D01*
X002106Y002828D01*
X002116Y002877D01*
X002130Y002925D01*
X002147Y002972D01*
X002168Y003017D01*
X002193Y003061D01*
X002221Y003102D01*
X002253Y003141D01*
X002287Y003178D01*
X002324Y003212D01*
X002364Y003242D01*
X002406Y003269D01*
X002450Y003293D01*
X002496Y003314D01*
X002543Y003330D01*
X002591Y003343D01*
X002641Y003352D01*
X002690Y003357D01*
X002741Y003358D01*
X002791Y003355D01*
X002840Y003348D01*
X002889Y003337D01*
X002937Y003322D01*
X002983Y003304D01*
X003028Y003282D01*
X003071Y003256D01*
X003112Y003227D01*
X003151Y003195D01*
X003187Y003160D01*
X003219Y003122D01*
X003249Y003082D01*
X003276Y003039D01*
X003299Y002995D01*
X003318Y002949D01*
X003334Y002901D01*
X003346Y002852D01*
X003354Y002803D01*
X003358Y002753D01*
X003358Y002703D01*
X003354Y002653D01*
X003346Y002604D01*
X003334Y002555D01*
X003318Y002507D01*
X003299Y002461D01*
X003276Y002417D01*
X003249Y002374D01*
X003219Y002334D01*
X003187Y002296D01*
X003151Y002261D01*
X003112Y002229D01*
X003071Y002200D01*
X003028Y002174D01*
X002983Y002152D01*
X002937Y002134D01*
X002889Y002119D01*
X002840Y002108D01*
X002791Y002101D01*
X002741Y002098D01*
X002690Y002099D01*
X002641Y002104D01*
X002591Y002113D01*
X002543Y002126D01*
X002496Y002142D01*
X002450Y002163D01*
X002406Y002187D01*
X002364Y002214D01*
X002324Y002244D01*
X002287Y002278D01*
X002253Y002315D01*
X002221Y002354D01*
X002193Y002395D01*
X002168Y002439D01*
X002147Y002484D01*
X002130Y002531D01*
X002116Y002579D01*
X002106Y002628D01*
X002100Y002678D01*
X002098Y002728D01*
X001313Y015768D02*
X000893Y015768D01*
X000893Y016048D01*
X001033Y016228D02*
X001313Y016228D01*
X001173Y016228D02*
X001033Y016368D01*
X001033Y016438D01*
X001103Y016612D02*
X001243Y016612D01*
X001313Y016682D01*
X001313Y016822D01*
X001243Y016892D01*
X001103Y016892D01*
X001033Y016822D01*
X001033Y016682D01*
X001103Y016612D01*
X001033Y017072D02*
X001033Y017142D01*
X001103Y017212D01*
X001033Y017282D01*
X001103Y017352D01*
X001313Y017352D01*
X001313Y017212D02*
X001103Y017212D01*
X001033Y017072D02*
X001313Y017072D01*
X001518Y016807D02*
X001518Y016737D01*
X001518Y016807D02*
X001938Y016807D01*
X001938Y016737D02*
X001938Y016877D01*
X001868Y017044D02*
X001938Y017114D01*
X001938Y017324D01*
X001728Y017324D01*
X001658Y017254D01*
X001658Y017114D01*
X001798Y017114D02*
X001798Y017324D01*
X001868Y017504D02*
X001938Y017574D01*
X001938Y017784D01*
X002008Y017784D02*
X002078Y017714D01*
X002078Y017644D01*
X002008Y017784D02*
X001658Y017784D01*
X001658Y017504D02*
X001868Y017504D01*
X001798Y017114D02*
X001868Y017044D01*
X001798Y016557D02*
X001798Y016276D01*
X001868Y016276D02*
X001728Y016276D01*
X001658Y016347D01*
X001658Y016487D01*
X001728Y016557D01*
X001798Y016557D01*
X001938Y016487D02*
X001938Y016347D01*
X001868Y016276D01*
X001658Y016103D02*
X001658Y016033D01*
X001798Y015893D01*
X001938Y015893D02*
X001658Y015893D01*
X001103Y015908D02*
X001103Y015768D01*
X002643Y016228D02*
X002923Y016228D01*
X002783Y016368D02*
X002783Y016088D01*
X002853Y016518D02*
X002713Y016518D01*
X002643Y016588D01*
X002783Y016728D02*
X002853Y016728D01*
X002923Y016658D01*
X002923Y016588D01*
X002853Y016518D01*
X002853Y016728D02*
X002923Y016798D01*
X002923Y016868D01*
X002853Y016938D01*
X002713Y016938D01*
X002643Y016868D01*
X002643Y017228D02*
X002923Y017228D01*
X002783Y018088D02*
X002783Y018368D01*
X002643Y018228D02*
X002923Y018228D01*
X002923Y018518D02*
X002643Y018518D01*
X002923Y018798D01*
X002923Y018868D01*
X002853Y018938D01*
X002713Y018938D01*
X002643Y018868D01*
X002643Y019228D02*
X002923Y019228D01*
X002908Y020088D02*
X002908Y020368D01*
X002908Y020518D02*
X002908Y020938D01*
X002768Y020798D01*
X002768Y020518D02*
X003048Y020518D01*
X003048Y020228D02*
X002768Y020228D01*
X001938Y020183D02*
X001938Y020393D01*
X001658Y020393D01*
X001658Y020573D02*
X001658Y020713D01*
X001588Y020643D02*
X001868Y020643D01*
X001938Y020713D01*
X001938Y020880D02*
X001938Y021090D01*
X001868Y021160D01*
X001798Y021090D01*
X001798Y020950D01*
X001728Y020880D01*
X001658Y020950D01*
X001658Y021160D01*
X001313Y021062D02*
X001033Y021062D01*
X001173Y021062D02*
X001033Y021202D01*
X001033Y021272D01*
X001103Y020882D02*
X001173Y020882D01*
X001173Y020602D01*
X001243Y020602D02*
X001103Y020602D01*
X001033Y020672D01*
X001033Y020812D01*
X001103Y020882D01*
X001313Y020812D02*
X001313Y020672D01*
X001243Y020602D01*
X001313Y020435D02*
X001243Y020365D01*
X000963Y020365D01*
X001033Y020295D02*
X001033Y020435D01*
X001103Y020115D02*
X001173Y020115D01*
X001173Y019834D01*
X001243Y019834D02*
X001103Y019834D01*
X001033Y019904D01*
X001033Y020044D01*
X001103Y020115D01*
X001313Y020044D02*
X001313Y019904D01*
X001243Y019834D01*
X001313Y019654D02*
X001103Y019654D01*
X001033Y019584D01*
X001103Y019514D01*
X001313Y019514D01*
X001313Y019374D02*
X001033Y019374D01*
X001033Y019444D01*
X001103Y019514D01*
X001103Y019194D02*
X001103Y019054D01*
X001103Y019194D02*
X001243Y019194D01*
X001313Y019124D01*
X001313Y018984D01*
X001243Y018914D01*
X000963Y018914D01*
X000893Y018984D01*
X000893Y019124D01*
X000963Y019194D01*
X000893Y018734D02*
X000893Y018453D01*
X001313Y018453D01*
X001313Y018734D01*
X001103Y018593D02*
X001103Y018453D01*
X001173Y018273D02*
X001103Y018203D01*
X001103Y018063D01*
X001033Y017993D01*
X000963Y017993D01*
X000893Y018063D01*
X000893Y018203D01*
X000963Y018273D01*
X001173Y018273D02*
X001243Y018273D01*
X001313Y018203D01*
X001313Y018063D01*
X001243Y017993D01*
X001728Y018425D02*
X001868Y018425D01*
X001938Y018495D01*
X001938Y018635D01*
X001868Y018705D01*
X001728Y018705D01*
X001658Y018635D01*
X001658Y018495D01*
X001728Y018425D01*
X001658Y018885D02*
X001868Y018885D01*
X001938Y018955D01*
X001938Y019165D01*
X001658Y019165D01*
X001658Y019346D02*
X001658Y019486D01*
X001588Y019416D02*
X001868Y019416D01*
X001938Y019486D01*
X001938Y019652D02*
X001938Y019863D01*
X001868Y019933D01*
X001728Y019933D01*
X001658Y019863D01*
X001658Y019652D01*
X002078Y019652D01*
X001868Y020113D02*
X001938Y020183D01*
X001868Y020113D02*
X001658Y020113D01*
X002768Y021228D02*
X003048Y021228D01*
X003460Y022870D02*
X010743Y022870D01*
X010743Y022869D02*
X010777Y022874D01*
X010810Y022883D01*
X010841Y022895D01*
X010871Y022911D01*
X010900Y022930D01*
X010925Y022952D01*
X010948Y022977D01*
X010969Y023005D01*
X010986Y023034D01*
X011000Y023065D01*
X011010Y023097D01*
X011016Y023131D01*
X011019Y023165D01*
X011019Y030251D01*
X011022Y030285D01*
X011028Y030319D01*
X011038Y030351D01*
X011052Y030382D01*
X011069Y030411D01*
X011090Y030439D01*
X011113Y030464D01*
X011138Y030486D01*
X011167Y030505D01*
X011197Y030521D01*
X011228Y030533D01*
X011261Y030542D01*
X011295Y030547D01*
X011294Y030547D02*
X012909Y030547D01*
X012908Y030546D02*
X012942Y030551D01*
X012975Y030560D01*
X013006Y030572D01*
X013036Y030588D01*
X013065Y030607D01*
X013090Y030629D01*
X013113Y030654D01*
X013134Y030682D01*
X013151Y030711D01*
X013165Y030742D01*
X013175Y030774D01*
X013181Y030808D01*
X013184Y030842D01*
X013184Y035228D01*
X013185Y035227D02*
X013186Y035262D01*
X013184Y035296D01*
X013178Y035330D01*
X013169Y035363D01*
X013157Y035395D01*
X013141Y035425D01*
X013123Y035454D01*
X013101Y035481D01*
X013077Y035505D01*
X013051Y035527D01*
X013022Y035546D01*
X012992Y035562D01*
X012960Y035574D01*
X012927Y035584D01*
X012893Y035590D01*
X012859Y035592D01*
X012824Y035591D01*
X012790Y035586D01*
X002790Y035586D01*
X002790Y035587D02*
X002752Y035585D01*
X002713Y035579D01*
X002676Y035569D01*
X002639Y035555D01*
X002604Y035539D01*
X002571Y035519D01*
X002540Y035495D01*
X002511Y035469D01*
X002485Y035440D01*
X002462Y035409D01*
X002442Y035376D01*
X002425Y035341D01*
X002412Y035304D01*
X002402Y035267D01*
X002396Y035228D01*
X002397Y035228D02*
X002397Y028952D01*
X002398Y028920D01*
X002402Y028888D01*
X002409Y028857D01*
X002420Y028827D01*
X002435Y028798D01*
X002452Y028771D01*
X002473Y028747D01*
X002496Y028724D01*
X002522Y028705D01*
X002549Y028689D01*
X002579Y028675D01*
X002609Y028666D01*
X002641Y028660D01*
X002673Y028657D01*
X002672Y028657D02*
X002909Y028657D01*
X002908Y028657D02*
X002942Y028652D01*
X002975Y028643D01*
X003006Y028631D01*
X003036Y028615D01*
X003065Y028596D01*
X003090Y028574D01*
X003113Y028549D01*
X003134Y028521D01*
X003151Y028492D01*
X003165Y028461D01*
X003175Y028429D01*
X003181Y028395D01*
X003184Y028361D01*
X003184Y028362D02*
X003184Y023126D01*
X003185Y023125D02*
X003193Y023093D01*
X003204Y023061D01*
X003218Y023031D01*
X003236Y023002D01*
X003257Y022976D01*
X003280Y022952D01*
X003306Y022930D01*
X003334Y022912D01*
X003363Y022896D01*
X003395Y022884D01*
X003427Y022875D01*
X003460Y022870D01*
X002688Y023408D02*
X002268Y023408D01*
X002268Y023268D02*
X002268Y023548D01*
X002338Y023728D02*
X002408Y023728D01*
X002478Y023798D01*
X002478Y024008D01*
X002618Y024008D02*
X002338Y024008D01*
X002268Y023938D01*
X002268Y023798D01*
X002338Y023728D01*
X002618Y023728D02*
X002688Y023798D01*
X002688Y023938D01*
X002618Y024008D01*
X002688Y024189D02*
X002408Y024189D01*
X002268Y024329D01*
X002408Y024469D01*
X002688Y024469D01*
X002618Y024649D02*
X002688Y024719D01*
X002688Y024859D01*
X002618Y024929D01*
X002548Y024929D01*
X002478Y024859D01*
X002478Y024719D01*
X002408Y024649D01*
X002338Y024649D01*
X002268Y024719D01*
X002268Y024859D01*
X002338Y024929D01*
X002268Y025109D02*
X002478Y025109D01*
X002408Y025249D01*
X002408Y025319D01*
X002478Y025390D01*
X002618Y025390D01*
X002688Y025319D01*
X002688Y025179D01*
X002618Y025109D01*
X002268Y025109D02*
X002268Y025390D01*
X002268Y025570D02*
X002268Y025780D01*
X002338Y025850D01*
X002618Y025850D01*
X002688Y025780D01*
X002688Y025570D01*
X002268Y025570D01*
X002408Y026030D02*
X002268Y026170D01*
X002688Y026170D01*
X002688Y026030D02*
X002688Y026310D01*
X002688Y026490D02*
X002408Y026771D01*
X002338Y026771D01*
X002268Y026701D01*
X002268Y026560D01*
X002338Y026490D01*
X002688Y026490D02*
X002688Y026771D01*
X002478Y026951D02*
X002478Y027231D01*
X002408Y027411D02*
X002268Y027551D01*
X002688Y027551D01*
X002688Y027411D02*
X002688Y027691D01*
X002688Y027871D02*
X002408Y028152D01*
X002338Y028152D01*
X002268Y028082D01*
X002268Y027941D01*
X002338Y027871D01*
X002688Y027871D02*
X002688Y028152D01*
X002478Y024469D02*
X002478Y024189D01*
X006008Y020738D02*
X005868Y020598D01*
X006008Y020738D02*
X006008Y020318D01*
X005868Y020318D02*
X006148Y020318D01*
X006328Y020318D02*
X006328Y020738D01*
X006608Y020318D01*
X006608Y020738D01*
X006789Y020528D02*
X007069Y020528D01*
X007249Y020598D02*
X007389Y020738D01*
X007389Y020318D01*
X007249Y020318D02*
X007529Y020318D01*
X007709Y020528D02*
X007990Y020528D01*
X008170Y020458D02*
X008240Y020528D01*
X008380Y020528D01*
X008450Y020458D01*
X008450Y020388D01*
X008380Y020318D01*
X008240Y020318D01*
X008170Y020388D01*
X008170Y020458D01*
X008240Y020528D02*
X008170Y020598D01*
X008170Y020668D01*
X008240Y020738D01*
X008380Y020738D01*
X008450Y020668D01*
X008450Y020598D01*
X008380Y020528D01*
X007919Y020318D02*
X007919Y020738D01*
X007709Y020528D01*
X007658Y020868D02*
X007378Y020868D01*
X007518Y020868D02*
X007518Y021288D01*
X007378Y021148D01*
X007198Y021218D02*
X007128Y021288D01*
X006918Y021288D01*
X006918Y020868D01*
X007128Y020868D01*
X007198Y020938D01*
X007198Y021218D01*
X007031Y021472D02*
X007031Y021984D01*
X007582Y021984D01*
X007582Y021472D02*
X007031Y021472D01*
X006874Y021472D01*
X006874Y021984D02*
X007031Y021984D01*
X006999Y020738D02*
X006789Y020528D01*
X006999Y020318D02*
X006999Y020738D01*
X007993Y019213D02*
X008203Y019213D01*
X008273Y019143D01*
X008273Y019003D01*
X008203Y018933D01*
X007993Y018933D01*
X008133Y018933D02*
X008273Y018793D01*
X008453Y018793D02*
X008453Y018863D01*
X008733Y019143D01*
X008733Y019213D01*
X008453Y019213D01*
X007993Y019213D02*
X007993Y018793D01*
X008148Y018538D02*
X008288Y018538D01*
X008358Y018468D01*
X008078Y018188D01*
X008148Y018118D01*
X008288Y018118D01*
X008358Y018188D01*
X008358Y018468D01*
X008539Y018468D02*
X008609Y018538D01*
X008749Y018538D01*
X008819Y018468D01*
X008539Y018188D01*
X008609Y018118D01*
X008749Y018118D01*
X008819Y018188D01*
X008819Y018468D01*
X008999Y018538D02*
X008999Y018118D01*
X008999Y018258D02*
X009209Y018398D01*
X008999Y018258D02*
X009209Y018118D01*
X009618Y018118D02*
X009898Y018118D01*
X009758Y018118D02*
X009758Y018538D01*
X009618Y018398D01*
X010078Y018468D02*
X010078Y018188D01*
X010358Y018468D01*
X010358Y018188D01*
X010288Y018118D01*
X010148Y018118D01*
X010078Y018188D01*
X010078Y018468D02*
X010148Y018538D01*
X010288Y018538D01*
X010358Y018468D01*
X010539Y018538D02*
X010539Y018118D01*
X010539Y018258D02*
X010749Y018258D01*
X010819Y018328D01*
X010819Y018468D01*
X010749Y018538D01*
X010539Y018538D01*
X010608Y018793D02*
X010328Y018793D01*
X010468Y018793D02*
X010468Y019213D01*
X010328Y019073D01*
X010148Y019003D02*
X010078Y018933D01*
X009868Y018933D01*
X010008Y018933D02*
X010148Y018793D01*
X010148Y019003D02*
X010148Y019143D01*
X010078Y019213D01*
X009868Y019213D01*
X009868Y018793D01*
X010679Y018258D02*
X010819Y018118D01*
X010993Y020318D02*
X011273Y020598D01*
X011273Y020668D01*
X011203Y020738D01*
X011063Y020738D01*
X010993Y020668D01*
X011138Y020968D02*
X011068Y021038D01*
X011068Y021318D01*
X011138Y021388D01*
X011278Y021388D01*
X011348Y021318D01*
X011348Y021038D01*
X011278Y020968D01*
X011138Y020968D01*
X011208Y021108D02*
X011348Y020968D01*
X011528Y020968D02*
X011808Y020968D01*
X011668Y020968D02*
X011668Y021388D01*
X011528Y021248D01*
X011453Y020738D02*
X011733Y020318D01*
X011733Y020738D01*
X011914Y020738D02*
X012194Y020738D01*
X012194Y020668D01*
X011914Y020388D01*
X011914Y020318D01*
X011453Y020318D02*
X011453Y020738D01*
X011273Y020318D02*
X010993Y020318D01*
X010779Y021189D02*
X010779Y021503D01*
X010543Y021503D01*
X009913Y021503D02*
X009677Y021503D01*
X009677Y021189D01*
X008539Y018468D02*
X008539Y018188D01*
X008078Y018188D02*
X008078Y018468D01*
X008148Y018538D01*
X007758Y018538D02*
X007758Y018118D01*
X007618Y018118D02*
X007898Y018118D01*
X007618Y018398D02*
X007758Y018538D01*
X012374Y020388D02*
X012654Y020668D01*
X012654Y020388D01*
X012584Y020318D01*
X012444Y020318D01*
X012374Y020388D01*
X012374Y020668D01*
X012444Y020738D01*
X012584Y020738D01*
X012654Y020668D01*
X012834Y020668D02*
X012834Y020388D01*
X013115Y020668D01*
X013115Y020388D01*
X013044Y020318D01*
X012904Y020318D01*
X012834Y020388D01*
X012834Y020668D02*
X012904Y020738D01*
X013044Y020738D01*
X013115Y020668D01*
X013295Y020668D02*
X013365Y020738D01*
X013505Y020738D01*
X013575Y020668D01*
X013575Y020598D01*
X013295Y020318D01*
X013575Y020318D01*
X013038Y022743D02*
X012828Y022883D01*
X013038Y023023D01*
X012828Y023163D02*
X012828Y022743D01*
X012648Y022743D02*
X012368Y022743D01*
X012508Y022743D02*
X012508Y023163D01*
X012368Y023023D01*
X012368Y023418D02*
X012368Y023838D01*
X012578Y023838D01*
X012648Y023768D01*
X012648Y023628D01*
X012578Y023558D01*
X012368Y023558D01*
X012508Y023558D02*
X012648Y023418D01*
X012828Y023628D02*
X013038Y023838D01*
X013038Y023418D01*
X013108Y023628D02*
X012828Y023628D01*
X013768Y023548D02*
X013768Y023268D01*
X013768Y023408D02*
X014188Y023408D01*
X014118Y023728D02*
X014188Y023798D01*
X014188Y023938D01*
X014118Y024008D01*
X013838Y024008D01*
X013768Y023938D01*
X013768Y023798D01*
X013838Y023728D01*
X013908Y023728D01*
X013978Y023798D01*
X013978Y024008D01*
X013978Y024189D02*
X013978Y024469D01*
X013908Y024469D02*
X014188Y024469D01*
X014118Y024649D02*
X014188Y024719D01*
X014188Y024859D01*
X014118Y024929D01*
X014048Y024929D01*
X013978Y024859D01*
X013978Y024719D01*
X013908Y024649D01*
X013838Y024649D01*
X013768Y024719D01*
X013768Y024859D01*
X013838Y024929D01*
X013768Y025109D02*
X013978Y025109D01*
X013908Y025249D01*
X013908Y025319D01*
X013978Y025390D01*
X014118Y025390D01*
X014188Y025319D01*
X014188Y025179D01*
X014118Y025109D01*
X013768Y025109D02*
X013768Y025390D01*
X013768Y025570D02*
X013768Y025780D01*
X013838Y025850D01*
X014118Y025850D01*
X014188Y025780D01*
X014188Y025570D01*
X013768Y025570D01*
X013908Y026030D02*
X013768Y026170D01*
X014188Y026170D01*
X014188Y026030D02*
X014188Y026310D01*
X014188Y026490D02*
X013908Y026771D01*
X013838Y026771D01*
X013768Y026701D01*
X013768Y026560D01*
X013838Y026490D01*
X014188Y026490D02*
X014188Y026771D01*
X013978Y026951D02*
X013978Y027231D01*
X013908Y027411D02*
X013768Y027551D01*
X014188Y027551D01*
X014188Y027411D02*
X014188Y027691D01*
X014188Y027871D02*
X013908Y028152D01*
X013838Y028152D01*
X013768Y028082D01*
X013768Y027941D01*
X013838Y027871D01*
X014188Y027871D02*
X014188Y028152D01*
X014622Y028361D02*
X014619Y028395D01*
X014613Y028429D01*
X014603Y028461D01*
X014589Y028492D01*
X014572Y028521D01*
X014551Y028549D01*
X014528Y028574D01*
X014503Y028596D01*
X014474Y028615D01*
X014444Y028631D01*
X014413Y028643D01*
X014380Y028652D01*
X014346Y028657D01*
X014110Y028657D01*
X014078Y028660D01*
X014046Y028666D01*
X014016Y028675D01*
X013986Y028689D01*
X013959Y028705D01*
X013933Y028724D01*
X013910Y028747D01*
X013889Y028771D01*
X013872Y028798D01*
X013857Y028827D01*
X013846Y028857D01*
X013839Y028888D01*
X013835Y028920D01*
X013834Y028952D01*
X013834Y035228D01*
X014228Y035586D02*
X024228Y035586D01*
X024227Y035586D02*
X024261Y035591D01*
X024296Y035592D01*
X024330Y035590D01*
X024364Y035584D01*
X024397Y035574D01*
X024429Y035562D01*
X024459Y035546D01*
X024488Y035527D01*
X024514Y035505D01*
X024538Y035481D01*
X024560Y035454D01*
X024578Y035425D01*
X024594Y035395D01*
X024606Y035363D01*
X024615Y035330D01*
X024621Y035296D01*
X024623Y035262D01*
X024622Y035227D01*
X024622Y035228D02*
X024622Y030842D01*
X024619Y030808D01*
X024613Y030774D01*
X024603Y030742D01*
X024589Y030711D01*
X024572Y030682D01*
X024551Y030654D01*
X024528Y030629D01*
X024503Y030607D01*
X024474Y030588D01*
X024444Y030572D01*
X024413Y030560D01*
X024380Y030551D01*
X024346Y030546D01*
X024346Y030547D02*
X022732Y030547D01*
X022698Y030542D01*
X022665Y030533D01*
X022634Y030521D01*
X022604Y030505D01*
X022575Y030486D01*
X022550Y030464D01*
X022527Y030439D01*
X022506Y030411D01*
X022489Y030382D01*
X022475Y030351D01*
X022465Y030319D01*
X022459Y030285D01*
X022456Y030251D01*
X022456Y023165D01*
X022453Y023131D01*
X022447Y023097D01*
X022437Y023065D01*
X022423Y023034D01*
X022406Y023005D01*
X022385Y022977D01*
X022362Y022952D01*
X022337Y022930D01*
X022308Y022911D01*
X022278Y022895D01*
X022247Y022883D01*
X022214Y022874D01*
X022180Y022869D01*
X022181Y022870D02*
X014897Y022870D01*
X014864Y022875D01*
X014832Y022884D01*
X014800Y022896D01*
X014771Y022912D01*
X014743Y022930D01*
X014717Y022952D01*
X014694Y022976D01*
X014673Y023002D01*
X014655Y023031D01*
X014641Y023061D01*
X014630Y023093D01*
X014622Y023125D01*
X014622Y023126D02*
X014622Y028362D01*
X013129Y026643D02*
X012849Y026643D01*
X012989Y026643D02*
X012989Y027063D01*
X012849Y026923D01*
X012669Y026993D02*
X012599Y027063D01*
X012389Y027063D01*
X012389Y026643D01*
X012599Y026643D01*
X012669Y026713D01*
X012669Y026993D01*
X012208Y027063D02*
X011928Y027063D01*
X011928Y026643D01*
X012208Y026643D01*
X012068Y026853D02*
X011928Y026853D01*
X011748Y026643D02*
X011468Y026643D01*
X011468Y027063D01*
X011608Y026313D02*
X011608Y025893D01*
X011468Y025893D02*
X011748Y025893D01*
X011468Y026173D02*
X011608Y026313D01*
X013768Y024329D02*
X013908Y024469D01*
X013768Y024329D02*
X013908Y024189D01*
X014188Y024189D01*
X018293Y020088D02*
X018293Y019668D01*
X018503Y019668D01*
X018573Y019738D01*
X018573Y020018D01*
X018503Y020088D01*
X018293Y020088D01*
X018753Y020018D02*
X018823Y020088D01*
X018963Y020088D01*
X019033Y020018D01*
X019033Y019948D01*
X018753Y019668D01*
X019033Y019668D01*
X019014Y019388D02*
X019014Y018968D01*
X018874Y018968D02*
X019154Y018968D01*
X019334Y019178D02*
X019615Y019178D01*
X019795Y019108D02*
X019865Y019178D01*
X020005Y019178D01*
X020075Y019108D01*
X020075Y019038D01*
X020005Y018968D01*
X019865Y018968D01*
X019795Y019038D01*
X019795Y019108D01*
X019865Y019178D02*
X019795Y019248D01*
X019795Y019318D01*
X019865Y019388D01*
X020005Y019388D01*
X020075Y019318D01*
X020075Y019248D01*
X020005Y019178D01*
X020222Y019249D02*
X020222Y019406D01*
X020734Y019406D01*
X020734Y019957D01*
X021177Y020003D02*
X021177Y019689D01*
X021177Y020003D02*
X021413Y020003D01*
X022043Y020003D02*
X022279Y020003D01*
X022279Y019689D01*
X022568Y019738D02*
X022568Y020018D01*
X022638Y020088D01*
X022778Y020088D01*
X022848Y020018D01*
X022848Y019738D01*
X022778Y019668D01*
X022638Y019668D01*
X022568Y019738D01*
X022708Y019808D02*
X022848Y019668D01*
X023028Y019668D02*
X023308Y019948D01*
X023308Y020018D01*
X023238Y020088D01*
X023098Y020088D01*
X023028Y020018D01*
X023028Y019668D02*
X023308Y019668D01*
X023233Y019388D02*
X023233Y018968D01*
X022953Y019388D01*
X022953Y018968D01*
X022773Y018968D02*
X022493Y018968D01*
X022773Y019248D01*
X022773Y019318D01*
X022703Y019388D01*
X022563Y019388D01*
X022493Y019318D01*
X023414Y019388D02*
X023694Y019388D01*
X023694Y019318D01*
X023414Y019038D01*
X023414Y018968D01*
X023874Y019038D02*
X023874Y019318D01*
X023944Y019388D01*
X024084Y019388D01*
X024154Y019318D01*
X023874Y019038D01*
X023944Y018968D01*
X024084Y018968D01*
X024154Y019038D01*
X024154Y019318D01*
X024334Y019318D02*
X024404Y019388D01*
X024544Y019388D01*
X024615Y019318D01*
X024334Y019038D01*
X024404Y018968D01*
X024544Y018968D01*
X024615Y019038D01*
X024615Y019318D01*
X024795Y019318D02*
X024865Y019388D01*
X025005Y019388D01*
X025075Y019318D01*
X025075Y019248D01*
X024795Y018968D01*
X025075Y018968D01*
X024334Y019038D02*
X024334Y019318D01*
X022233Y017768D02*
X022163Y017838D01*
X022023Y017838D01*
X021953Y017768D01*
X021773Y017768D02*
X021773Y017628D01*
X021703Y017558D01*
X021493Y017558D01*
X021633Y017558D02*
X021773Y017418D01*
X021953Y017418D02*
X022233Y017698D01*
X022233Y017768D01*
X022233Y017418D02*
X021953Y017418D01*
X022039Y017163D02*
X022249Y017163D01*
X022319Y017093D01*
X022319Y016953D01*
X022249Y016883D01*
X022039Y016883D01*
X022179Y016883D02*
X022319Y016743D01*
X022039Y016743D02*
X022039Y017163D01*
X021858Y017093D02*
X021788Y017163D01*
X021648Y017163D01*
X021578Y017093D01*
X021578Y016813D01*
X021858Y017093D01*
X021858Y016813D01*
X021788Y016743D01*
X021648Y016743D01*
X021578Y016813D01*
X021398Y016743D02*
X021118Y016743D01*
X021258Y016743D02*
X021258Y017163D01*
X021118Y017023D01*
X021493Y017418D02*
X021493Y017838D01*
X021703Y017838D01*
X021773Y017768D01*
X020584Y017023D02*
X020374Y016883D01*
X020584Y016743D01*
X020374Y016743D02*
X020374Y017163D01*
X020194Y017093D02*
X019914Y016813D01*
X019984Y016743D01*
X020124Y016743D01*
X020194Y016813D01*
X020194Y017093D01*
X020124Y017163D01*
X019984Y017163D01*
X019914Y017093D01*
X019914Y016813D01*
X019733Y016813D02*
X019663Y016743D01*
X019523Y016743D01*
X019453Y016813D01*
X019733Y017093D01*
X019733Y016813D01*
X019453Y016813D02*
X019453Y017093D01*
X019523Y017163D01*
X019663Y017163D01*
X019733Y017093D01*
X019648Y017418D02*
X019508Y017558D01*
X019578Y017558D02*
X019368Y017558D01*
X019368Y017418D02*
X019368Y017838D01*
X019578Y017838D01*
X019648Y017768D01*
X019648Y017628D01*
X019578Y017558D01*
X019828Y017558D02*
X019898Y017628D01*
X020038Y017628D01*
X020108Y017558D01*
X020108Y017488D01*
X020038Y017418D01*
X019898Y017418D01*
X019828Y017488D01*
X019828Y017558D01*
X019898Y017628D02*
X019828Y017698D01*
X019828Y017768D01*
X019898Y017838D01*
X020038Y017838D01*
X020108Y017768D01*
X020108Y017698D01*
X020038Y017628D01*
X019133Y017163D02*
X019133Y016743D01*
X018993Y016743D02*
X019273Y016743D01*
X018993Y017023D02*
X019133Y017163D01*
X019544Y018968D02*
X019544Y019388D01*
X019334Y019178D01*
X019014Y019388D02*
X018874Y019248D01*
X018694Y019178D02*
X018414Y019178D01*
X018624Y019388D01*
X018624Y018968D01*
X018233Y018968D02*
X018233Y019388D01*
X017953Y019388D02*
X017953Y018968D01*
X017773Y018968D02*
X017493Y018968D01*
X017633Y018968D02*
X017633Y019388D01*
X017493Y019248D01*
X017953Y019388D02*
X018233Y018968D01*
X020222Y019406D02*
X020222Y019957D01*
X020734Y019406D02*
X020734Y019249D01*
X023868Y022743D02*
X024148Y022743D01*
X024008Y022743D02*
X024008Y023163D01*
X023868Y023023D01*
X023868Y023418D02*
X023868Y023838D01*
X024078Y023838D01*
X024148Y023768D01*
X024148Y023628D01*
X024078Y023558D01*
X023868Y023558D01*
X024008Y023558D02*
X024148Y023418D01*
X024328Y023488D02*
X024398Y023418D01*
X024538Y023418D01*
X024608Y023488D01*
X024608Y023628D01*
X024538Y023698D01*
X024468Y023698D01*
X024328Y023628D01*
X024328Y023838D01*
X024608Y023838D01*
X025268Y023798D02*
X025338Y023728D01*
X025408Y023728D01*
X025478Y023798D01*
X025478Y024008D01*
X025618Y024008D02*
X025338Y024008D01*
X025268Y023938D01*
X025268Y023798D01*
X025268Y023548D02*
X025268Y023268D01*
X025268Y023408D02*
X025688Y023408D01*
X025618Y023728D02*
X025688Y023798D01*
X025688Y023938D01*
X025618Y024008D01*
X025688Y024189D02*
X025408Y024189D01*
X025268Y024329D01*
X025408Y024469D01*
X025688Y024469D01*
X025618Y024649D02*
X025688Y024719D01*
X025688Y024859D01*
X025618Y024929D01*
X025548Y024929D01*
X025478Y024859D01*
X025478Y024719D01*
X025408Y024649D01*
X025338Y024649D01*
X025268Y024719D01*
X025268Y024859D01*
X025338Y024929D01*
X025268Y025109D02*
X025478Y025109D01*
X025408Y025249D01*
X025408Y025319D01*
X025478Y025390D01*
X025618Y025390D01*
X025688Y025319D01*
X025688Y025179D01*
X025618Y025109D01*
X025268Y025109D02*
X025268Y025390D01*
X025268Y025570D02*
X025268Y025780D01*
X025338Y025850D01*
X025618Y025850D01*
X025688Y025780D01*
X025688Y025570D01*
X025268Y025570D01*
X025408Y026030D02*
X025268Y026170D01*
X025688Y026170D01*
X025688Y026030D02*
X025688Y026310D01*
X025688Y026490D02*
X025408Y026771D01*
X025338Y026771D01*
X025268Y026701D01*
X025268Y026560D01*
X025338Y026490D01*
X025688Y026490D02*
X025688Y026771D01*
X025478Y026951D02*
X025478Y027231D01*
X025408Y027411D02*
X025268Y027551D01*
X025688Y027551D01*
X025688Y027411D02*
X025688Y027691D01*
X025688Y027871D02*
X025408Y028152D01*
X025338Y028152D01*
X025268Y028082D01*
X025268Y027941D01*
X025338Y027871D01*
X025688Y027871D02*
X025688Y028152D01*
X026122Y028361D02*
X026119Y028395D01*
X026113Y028429D01*
X026103Y028461D01*
X026089Y028492D01*
X026072Y028521D01*
X026051Y028549D01*
X026028Y028574D01*
X026003Y028596D01*
X025974Y028615D01*
X025944Y028631D01*
X025913Y028643D01*
X025880Y028652D01*
X025846Y028657D01*
X025610Y028657D01*
X025578Y028660D01*
X025546Y028666D01*
X025516Y028675D01*
X025486Y028689D01*
X025459Y028705D01*
X025433Y028724D01*
X025410Y028747D01*
X025389Y028771D01*
X025372Y028798D01*
X025357Y028827D01*
X025346Y028857D01*
X025339Y028888D01*
X025335Y028920D01*
X025334Y028952D01*
X025334Y035228D01*
X025340Y035267D01*
X025350Y035304D01*
X025363Y035341D01*
X025380Y035376D01*
X025400Y035409D01*
X025423Y035440D01*
X025449Y035469D01*
X025478Y035495D01*
X025509Y035519D01*
X025542Y035539D01*
X025577Y035555D01*
X025614Y035569D01*
X025651Y035579D01*
X025690Y035585D01*
X025728Y035587D01*
X025728Y035586D02*
X035728Y035586D01*
X035727Y035586D02*
X035761Y035591D01*
X035796Y035592D01*
X035830Y035590D01*
X035864Y035584D01*
X035897Y035574D01*
X035929Y035562D01*
X035959Y035546D01*
X035988Y035527D01*
X036014Y035505D01*
X036038Y035481D01*
X036060Y035454D01*
X036078Y035425D01*
X036094Y035395D01*
X036106Y035363D01*
X036115Y035330D01*
X036121Y035296D01*
X036123Y035262D01*
X036122Y035227D01*
X036122Y035228D02*
X036122Y030842D01*
X036119Y030808D01*
X036113Y030774D01*
X036103Y030742D01*
X036089Y030711D01*
X036072Y030682D01*
X036051Y030654D01*
X036028Y030629D01*
X036003Y030607D01*
X035974Y030588D01*
X035944Y030572D01*
X035913Y030560D01*
X035880Y030551D01*
X035846Y030546D01*
X035846Y030547D02*
X034232Y030547D01*
X034198Y030542D01*
X034165Y030533D01*
X034134Y030521D01*
X034104Y030505D01*
X034075Y030486D01*
X034050Y030464D01*
X034027Y030439D01*
X034006Y030411D01*
X033989Y030382D01*
X033975Y030351D01*
X033965Y030319D01*
X033959Y030285D01*
X033956Y030251D01*
X033956Y023165D01*
X033953Y023131D01*
X033947Y023097D01*
X033937Y023065D01*
X033923Y023034D01*
X033906Y023005D01*
X033885Y022977D01*
X033862Y022952D01*
X033837Y022930D01*
X033808Y022911D01*
X033778Y022895D01*
X033747Y022883D01*
X033714Y022874D01*
X033680Y022869D01*
X033681Y022870D02*
X026397Y022870D01*
X026364Y022875D01*
X026332Y022884D01*
X026300Y022896D01*
X026271Y022912D01*
X026243Y022930D01*
X026217Y022952D01*
X026194Y022976D01*
X026173Y023002D01*
X026155Y023031D01*
X026141Y023061D01*
X026130Y023093D01*
X026122Y023125D01*
X026122Y023126D02*
X026122Y028362D01*
X024679Y026993D02*
X024679Y026923D01*
X024399Y026643D01*
X024679Y026643D01*
X024679Y026993D02*
X024609Y027063D01*
X024469Y027063D01*
X024399Y026993D01*
X024219Y026993D02*
X024219Y026713D01*
X024149Y026643D01*
X023939Y026643D01*
X023939Y027063D01*
X024149Y027063D01*
X024219Y026993D01*
X023758Y027063D02*
X023478Y027063D01*
X023478Y026643D01*
X023758Y026643D01*
X023618Y026853D02*
X023478Y026853D01*
X023298Y026643D02*
X023018Y026643D01*
X023018Y027063D01*
X023088Y026313D02*
X023018Y026243D01*
X023088Y026313D02*
X023228Y026313D01*
X023298Y026243D01*
X023298Y026173D01*
X023018Y025893D01*
X023298Y025893D01*
X025478Y024469D02*
X025478Y024189D01*
X024538Y023023D02*
X024328Y022883D01*
X024538Y022743D01*
X024328Y022743D02*
X024328Y023163D01*
X029118Y018398D02*
X029258Y018538D01*
X029258Y018118D01*
X029118Y018118D02*
X029398Y018118D01*
X029578Y018188D02*
X029858Y018468D01*
X029858Y018188D01*
X029788Y018118D01*
X029648Y018118D01*
X029578Y018188D01*
X029578Y018468D01*
X029648Y018538D01*
X029788Y018538D01*
X029858Y018468D01*
X030039Y018538D02*
X030039Y018118D01*
X030039Y018258D02*
X030249Y018258D01*
X030319Y018328D01*
X030319Y018468D01*
X030249Y018538D01*
X030039Y018538D01*
X030038Y018793D02*
X029898Y018793D01*
X029828Y018863D01*
X029648Y018793D02*
X029508Y018933D01*
X029578Y018933D02*
X029368Y018933D01*
X029368Y018793D02*
X029368Y019213D01*
X029578Y019213D01*
X029648Y019143D01*
X029648Y019003D01*
X029578Y018933D01*
X029828Y019143D02*
X029898Y019213D01*
X030038Y019213D01*
X030108Y019143D01*
X030108Y019073D01*
X030038Y019003D01*
X030108Y018933D01*
X030108Y018863D01*
X030038Y018793D01*
X030038Y019003D02*
X029968Y019003D01*
X030179Y018258D02*
X030319Y018118D01*
X030993Y018118D02*
X031273Y018118D01*
X031133Y018118D02*
X031133Y018538D01*
X030993Y018398D01*
X031453Y018468D02*
X031453Y018188D01*
X031733Y018468D01*
X031733Y018188D01*
X031663Y018118D01*
X031523Y018118D01*
X031453Y018188D01*
X031453Y018468D02*
X031523Y018538D01*
X031663Y018538D01*
X031733Y018468D01*
X031914Y018468D02*
X031914Y018188D01*
X032194Y018468D01*
X032194Y018188D01*
X032124Y018118D01*
X031984Y018118D01*
X031914Y018188D01*
X031914Y018468D02*
X031984Y018538D01*
X032124Y018538D01*
X032194Y018468D01*
X032374Y018538D02*
X032374Y018118D01*
X032374Y018258D02*
X032584Y018398D01*
X032374Y018258D02*
X032584Y018118D01*
X032038Y018793D02*
X032108Y018863D01*
X032108Y019143D01*
X032038Y019213D01*
X031898Y019213D01*
X031828Y019143D01*
X031828Y019073D01*
X031898Y019003D01*
X032108Y019003D01*
X032038Y018793D02*
X031898Y018793D01*
X031828Y018863D01*
X031648Y018793D02*
X031508Y018933D01*
X031578Y018933D02*
X031368Y018933D01*
X031368Y018793D02*
X031368Y019213D01*
X031578Y019213D01*
X031648Y019143D01*
X031648Y019003D01*
X031578Y018933D01*
X032743Y019718D02*
X033023Y019718D01*
X032883Y019718D02*
X032883Y020138D01*
X032743Y019998D01*
X033203Y020138D02*
X033483Y019718D01*
X033483Y020138D01*
X033664Y019928D02*
X033944Y019928D01*
X034124Y019998D02*
X034264Y020138D01*
X034264Y019718D01*
X034124Y019718D02*
X034404Y019718D01*
X034584Y019928D02*
X034794Y020138D01*
X034794Y019718D01*
X034865Y019928D02*
X034584Y019928D01*
X035045Y019998D02*
X035045Y020068D01*
X035115Y020138D01*
X035255Y020138D01*
X035325Y020068D01*
X035325Y019998D01*
X035255Y019928D01*
X035115Y019928D01*
X035045Y019998D01*
X035115Y019928D02*
X035045Y019858D01*
X035045Y019788D01*
X035115Y019718D01*
X035255Y019718D01*
X035325Y019788D01*
X035325Y019858D01*
X035255Y019928D01*
X033874Y019718D02*
X033874Y020138D01*
X033664Y019928D01*
X033203Y019718D02*
X033203Y020138D01*
X033323Y020418D02*
X033253Y020488D01*
X033323Y020418D02*
X033463Y020418D01*
X033533Y020488D01*
X033533Y020558D01*
X033463Y020628D01*
X033393Y020628D01*
X033463Y020628D02*
X033533Y020698D01*
X033533Y020768D01*
X033463Y020838D01*
X033323Y020838D01*
X033253Y020768D01*
X033073Y020768D02*
X033003Y020838D01*
X032793Y020838D01*
X032793Y020418D01*
X033003Y020418D01*
X033073Y020488D01*
X033073Y020768D01*
X033493Y021318D02*
X033773Y021598D01*
X033773Y021668D01*
X033703Y021738D01*
X033563Y021738D01*
X033493Y021668D01*
X033279Y021689D02*
X033279Y022003D01*
X033043Y022003D01*
X033568Y022038D02*
X033568Y022318D01*
X033638Y022388D01*
X033778Y022388D01*
X033848Y022318D01*
X033848Y022038D01*
X033778Y021968D01*
X033638Y021968D01*
X033568Y022038D01*
X033708Y022108D02*
X033848Y021968D01*
X034028Y022038D02*
X034098Y021968D01*
X034238Y021968D01*
X034308Y022038D01*
X034308Y022108D01*
X034238Y022178D01*
X034168Y022178D01*
X034238Y022178D02*
X034308Y022248D01*
X034308Y022318D01*
X034238Y022388D01*
X034098Y022388D01*
X034028Y022318D01*
X033953Y021738D02*
X034233Y021318D01*
X034233Y021738D01*
X034414Y021738D02*
X034694Y021738D01*
X034694Y021668D01*
X034414Y021388D01*
X034414Y021318D01*
X033953Y021318D02*
X033953Y021738D01*
X033773Y021318D02*
X033493Y021318D01*
X032413Y022003D02*
X032177Y022003D01*
X032177Y021689D01*
X031859Y021957D02*
X031859Y021406D01*
X031347Y021406D01*
X031347Y021957D01*
X031347Y021406D02*
X031347Y021249D01*
X031859Y021249D02*
X031859Y021406D01*
X034874Y021388D02*
X035154Y021668D01*
X035154Y021388D01*
X035084Y021318D01*
X034944Y021318D01*
X034874Y021388D01*
X034874Y021668D01*
X034944Y021738D01*
X035084Y021738D01*
X035154Y021668D01*
X035334Y021668D02*
X035334Y021388D01*
X035615Y021668D01*
X035615Y021388D01*
X035544Y021318D01*
X035404Y021318D01*
X035334Y021388D01*
X035334Y021668D02*
X035404Y021738D01*
X035544Y021738D01*
X035615Y021668D01*
X035795Y021668D02*
X035865Y021738D01*
X036005Y021738D01*
X036075Y021668D01*
X036075Y021598D01*
X035795Y021318D01*
X036075Y021318D01*
X035988Y022743D02*
X035778Y022883D01*
X035988Y023023D01*
X035778Y023163D02*
X035778Y022743D01*
X035598Y022743D02*
X035318Y022743D01*
X035458Y022743D02*
X035458Y023163D01*
X035318Y023023D01*
X035318Y023418D02*
X035318Y023838D01*
X035528Y023838D01*
X035598Y023768D01*
X035598Y023628D01*
X035528Y023558D01*
X035318Y023558D01*
X035458Y023558D02*
X035598Y023418D01*
X035778Y023488D02*
X035848Y023418D01*
X035988Y023418D01*
X036058Y023488D01*
X036058Y023558D01*
X035988Y023628D01*
X035778Y023628D01*
X035778Y023488D01*
X035778Y023628D02*
X035918Y023768D01*
X036058Y023838D01*
X034728Y025893D02*
X034588Y025893D01*
X034518Y025963D01*
X034658Y026103D02*
X034728Y026103D01*
X034798Y026033D01*
X034798Y025963D01*
X034728Y025893D01*
X034728Y026103D02*
X034798Y026173D01*
X034798Y026243D01*
X034728Y026313D01*
X034588Y026313D01*
X034518Y026243D01*
X034518Y026643D02*
X034798Y026643D01*
X034978Y026643D02*
X034978Y027063D01*
X035258Y027063D01*
X035439Y027063D02*
X035649Y027063D01*
X035719Y026993D01*
X035719Y026713D01*
X035649Y026643D01*
X035439Y026643D01*
X035439Y027063D01*
X035118Y026853D02*
X034978Y026853D01*
X034978Y026643D02*
X035258Y026643D01*
X035899Y026713D02*
X035969Y026643D01*
X036109Y026643D01*
X036179Y026713D01*
X036179Y026783D01*
X036109Y026853D01*
X036039Y026853D01*
X036109Y026853D02*
X036179Y026923D01*
X036179Y026993D01*
X036109Y027063D01*
X035969Y027063D01*
X035899Y026993D01*
X034518Y027063D02*
X034518Y026643D01*
X034098Y038728D02*
X034100Y038778D01*
X034106Y038828D01*
X034116Y038877D01*
X034130Y038925D01*
X034147Y038972D01*
X034168Y039017D01*
X034193Y039061D01*
X034221Y039102D01*
X034253Y039141D01*
X034287Y039178D01*
X034324Y039212D01*
X034364Y039242D01*
X034406Y039269D01*
X034450Y039293D01*
X034496Y039314D01*
X034543Y039330D01*
X034591Y039343D01*
X034641Y039352D01*
X034690Y039357D01*
X034741Y039358D01*
X034791Y039355D01*
X034840Y039348D01*
X034889Y039337D01*
X034937Y039322D01*
X034983Y039304D01*
X035028Y039282D01*
X035071Y039256D01*
X035112Y039227D01*
X035151Y039195D01*
X035187Y039160D01*
X035219Y039122D01*
X035249Y039082D01*
X035276Y039039D01*
X035299Y038995D01*
X035318Y038949D01*
X035334Y038901D01*
X035346Y038852D01*
X035354Y038803D01*
X035358Y038753D01*
X035358Y038703D01*
X035354Y038653D01*
X035346Y038604D01*
X035334Y038555D01*
X035318Y038507D01*
X035299Y038461D01*
X035276Y038417D01*
X035249Y038374D01*
X035219Y038334D01*
X035187Y038296D01*
X035151Y038261D01*
X035112Y038229D01*
X035071Y038200D01*
X035028Y038174D01*
X034983Y038152D01*
X034937Y038134D01*
X034889Y038119D01*
X034840Y038108D01*
X034791Y038101D01*
X034741Y038098D01*
X034690Y038099D01*
X034641Y038104D01*
X034591Y038113D01*
X034543Y038126D01*
X034496Y038142D01*
X034450Y038163D01*
X034406Y038187D01*
X034364Y038214D01*
X034324Y038244D01*
X034287Y038278D01*
X034253Y038315D01*
X034221Y038354D01*
X034193Y038395D01*
X034168Y038439D01*
X034147Y038484D01*
X034130Y038531D01*
X034116Y038579D01*
X034106Y038628D01*
X034100Y038678D01*
X034098Y038728D01*
X014228Y035587D02*
X014190Y035585D01*
X014151Y035579D01*
X014114Y035569D01*
X014077Y035555D01*
X014042Y035539D01*
X014009Y035519D01*
X013978Y035495D01*
X013949Y035469D01*
X013923Y035440D01*
X013900Y035409D01*
X013880Y035376D01*
X013863Y035341D01*
X013850Y035304D01*
X013840Y035267D01*
X013834Y035228D01*
X002098Y038728D02*
X002100Y038778D01*
X002106Y038828D01*
X002116Y038877D01*
X002130Y038925D01*
X002147Y038972D01*
X002168Y039017D01*
X002193Y039061D01*
X002221Y039102D01*
X002253Y039141D01*
X002287Y039178D01*
X002324Y039212D01*
X002364Y039242D01*
X002406Y039269D01*
X002450Y039293D01*
X002496Y039314D01*
X002543Y039330D01*
X002591Y039343D01*
X002641Y039352D01*
X002690Y039357D01*
X002741Y039358D01*
X002791Y039355D01*
X002840Y039348D01*
X002889Y039337D01*
X002937Y039322D01*
X002983Y039304D01*
X003028Y039282D01*
X003071Y039256D01*
X003112Y039227D01*
X003151Y039195D01*
X003187Y039160D01*
X003219Y039122D01*
X003249Y039082D01*
X003276Y039039D01*
X003299Y038995D01*
X003318Y038949D01*
X003334Y038901D01*
X003346Y038852D01*
X003354Y038803D01*
X003358Y038753D01*
X003358Y038703D01*
X003354Y038653D01*
X003346Y038604D01*
X003334Y038555D01*
X003318Y038507D01*
X003299Y038461D01*
X003276Y038417D01*
X003249Y038374D01*
X003219Y038334D01*
X003187Y038296D01*
X003151Y038261D01*
X003112Y038229D01*
X003071Y038200D01*
X003028Y038174D01*
X002983Y038152D01*
X002937Y038134D01*
X002889Y038119D01*
X002840Y038108D01*
X002791Y038101D01*
X002741Y038098D01*
X002690Y038099D01*
X002641Y038104D01*
X002591Y038113D01*
X002543Y038126D01*
X002496Y038142D01*
X002450Y038163D01*
X002406Y038187D01*
X002364Y038214D01*
X002324Y038244D01*
X002287Y038278D01*
X002253Y038315D01*
X002221Y038354D01*
X002193Y038395D01*
X002168Y038439D01*
X002147Y038484D01*
X002130Y038531D01*
X002116Y038579D01*
X002106Y038628D01*
X002100Y038678D01*
X002098Y038728D01*
X029463Y010688D02*
X029603Y010688D01*
X029673Y010618D01*
X029673Y010548D01*
X029603Y010478D01*
X029673Y010408D01*
X029673Y010338D01*
X029603Y010268D01*
X029463Y010268D01*
X029393Y010338D01*
X029533Y010478D02*
X029603Y010478D01*
X029393Y010618D02*
X029463Y010688D01*
X029853Y010338D02*
X029923Y010338D01*
X029923Y010268D01*
X029853Y010268D01*
X029853Y010338D01*
X030083Y010338D02*
X030153Y010268D01*
X030294Y010268D01*
X030364Y010338D01*
X030364Y010408D01*
X030294Y010478D01*
X030224Y010478D01*
X030294Y010478D02*
X030364Y010548D01*
X030364Y010618D01*
X030294Y010688D01*
X030153Y010688D01*
X030083Y010618D01*
X030544Y010688D02*
X030544Y010268D01*
X030544Y010408D02*
X030754Y010548D01*
X030544Y010408D02*
X030754Y010268D01*
X030478Y008688D02*
X030478Y008268D01*
X030478Y008408D02*
X030688Y008548D01*
X030478Y008408D02*
X030688Y008268D01*
X030298Y008268D02*
X030018Y008268D01*
X030158Y008268D02*
X030158Y008688D01*
X030018Y008548D01*
X029794Y007688D02*
X029794Y007268D01*
X029794Y007408D02*
X030004Y007548D01*
X029794Y007408D02*
X030004Y007268D01*
X029614Y007268D02*
X029333Y007268D01*
X029614Y007548D01*
X029614Y007618D01*
X029544Y007688D01*
X029403Y007688D01*
X029333Y007618D01*
X029173Y007338D02*
X029173Y007268D01*
X029103Y007268D01*
X029103Y007338D01*
X029173Y007338D01*
X028923Y007268D02*
X028643Y007268D01*
X028923Y007548D01*
X028923Y007618D01*
X028853Y007688D01*
X028713Y007688D01*
X028643Y007618D01*
X032768Y007838D02*
X032838Y007768D01*
X032978Y007768D01*
X033048Y007838D01*
X033048Y007908D01*
X032978Y007978D01*
X032838Y007978D01*
X032768Y008048D01*
X032768Y008118D01*
X032838Y008188D01*
X032978Y008188D01*
X033048Y008118D01*
X033228Y008118D02*
X033298Y008188D01*
X033438Y008188D01*
X033508Y008118D01*
X033508Y008048D01*
X033228Y007768D01*
X033508Y007768D01*
X033378Y007428D02*
X035078Y007428D01*
X035428Y006621D02*
X035428Y005828D01*
X035078Y005028D02*
X033378Y005028D01*
X033368Y004688D02*
X033228Y004548D01*
X033048Y004618D02*
X032978Y004688D01*
X032838Y004688D01*
X032768Y004618D01*
X032768Y004548D01*
X032838Y004478D01*
X032978Y004478D01*
X033048Y004408D01*
X033048Y004338D01*
X032978Y004268D01*
X032838Y004268D01*
X032768Y004338D01*
X033228Y004268D02*
X033508Y004268D01*
X033368Y004268D02*
X033368Y004688D01*
X033028Y005828D02*
X033028Y006633D01*
X033528Y006228D02*
X033530Y006280D01*
X033536Y006332D01*
X033546Y006384D01*
X033559Y006434D01*
X033576Y006484D01*
X033597Y006532D01*
X033622Y006578D01*
X033650Y006622D01*
X033681Y006664D01*
X033715Y006704D01*
X033752Y006741D01*
X033792Y006775D01*
X033834Y006806D01*
X033878Y006834D01*
X033924Y006859D01*
X033972Y006880D01*
X034022Y006897D01*
X034072Y006910D01*
X034124Y006920D01*
X034176Y006926D01*
X034228Y006928D01*
X034280Y006926D01*
X034332Y006920D01*
X034384Y006910D01*
X034434Y006897D01*
X034484Y006880D01*
X034532Y006859D01*
X034578Y006834D01*
X034622Y006806D01*
X034664Y006775D01*
X034704Y006741D01*
X034741Y006704D01*
X034775Y006664D01*
X034806Y006622D01*
X034834Y006578D01*
X034859Y006532D01*
X034880Y006484D01*
X034897Y006434D01*
X034910Y006384D01*
X034920Y006332D01*
X034926Y006280D01*
X034928Y006228D01*
X034926Y006176D01*
X034920Y006124D01*
X034910Y006072D01*
X034897Y006022D01*
X034880Y005972D01*
X034859Y005924D01*
X034834Y005878D01*
X034806Y005834D01*
X034775Y005792D01*
X034741Y005752D01*
X034704Y005715D01*
X034664Y005681D01*
X034622Y005650D01*
X034578Y005622D01*
X034532Y005597D01*
X034484Y005576D01*
X034434Y005559D01*
X034384Y005546D01*
X034332Y005536D01*
X034280Y005530D01*
X034228Y005528D01*
X034176Y005530D01*
X034124Y005536D01*
X034072Y005546D01*
X034022Y005559D01*
X033972Y005576D01*
X033924Y005597D01*
X033878Y005622D01*
X033834Y005650D01*
X033792Y005681D01*
X033752Y005715D01*
X033715Y005752D01*
X033681Y005792D01*
X033650Y005834D01*
X033622Y005878D01*
X033597Y005924D01*
X033576Y005972D01*
X033559Y006022D01*
X033546Y006072D01*
X033536Y006124D01*
X033530Y006176D01*
X033528Y006228D01*
X033378Y008528D02*
X035078Y008528D01*
X035428Y009328D02*
X035428Y010121D01*
X035078Y010928D02*
X033378Y010928D01*
X033438Y011268D02*
X033298Y011268D01*
X033228Y011338D01*
X033048Y011338D02*
X032978Y011268D01*
X032838Y011268D01*
X032768Y011338D01*
X032838Y011478D02*
X032978Y011478D01*
X033048Y011408D01*
X033048Y011338D01*
X032838Y011478D02*
X032768Y011548D01*
X032768Y011618D01*
X032838Y011688D01*
X032978Y011688D01*
X033048Y011618D01*
X033228Y011618D02*
X033298Y011688D01*
X033438Y011688D01*
X033508Y011618D01*
X033508Y011548D01*
X033438Y011478D01*
X033508Y011408D01*
X033508Y011338D01*
X033438Y011268D01*
X033438Y011478D02*
X033368Y011478D01*
X033378Y012028D02*
X035078Y012028D01*
X035428Y012828D02*
X035428Y013621D01*
X035078Y014428D02*
X033378Y014428D01*
X033028Y013633D02*
X033028Y012828D01*
X033528Y013228D02*
X033530Y013280D01*
X033536Y013332D01*
X033546Y013384D01*
X033559Y013434D01*
X033576Y013484D01*
X033597Y013532D01*
X033622Y013578D01*
X033650Y013622D01*
X033681Y013664D01*
X033715Y013704D01*
X033752Y013741D01*
X033792Y013775D01*
X033834Y013806D01*
X033878Y013834D01*
X033924Y013859D01*
X033972Y013880D01*
X034022Y013897D01*
X034072Y013910D01*
X034124Y013920D01*
X034176Y013926D01*
X034228Y013928D01*
X034280Y013926D01*
X034332Y013920D01*
X034384Y013910D01*
X034434Y013897D01*
X034484Y013880D01*
X034532Y013859D01*
X034578Y013834D01*
X034622Y013806D01*
X034664Y013775D01*
X034704Y013741D01*
X034741Y013704D01*
X034775Y013664D01*
X034806Y013622D01*
X034834Y013578D01*
X034859Y013532D01*
X034880Y013484D01*
X034897Y013434D01*
X034910Y013384D01*
X034920Y013332D01*
X034926Y013280D01*
X034928Y013228D01*
X034926Y013176D01*
X034920Y013124D01*
X034910Y013072D01*
X034897Y013022D01*
X034880Y012972D01*
X034859Y012924D01*
X034834Y012878D01*
X034806Y012834D01*
X034775Y012792D01*
X034741Y012752D01*
X034704Y012715D01*
X034664Y012681D01*
X034622Y012650D01*
X034578Y012622D01*
X034532Y012597D01*
X034484Y012576D01*
X034434Y012559D01*
X034384Y012546D01*
X034332Y012536D01*
X034280Y012530D01*
X034228Y012528D01*
X034176Y012530D01*
X034124Y012536D01*
X034072Y012546D01*
X034022Y012559D01*
X033972Y012576D01*
X033924Y012597D01*
X033878Y012622D01*
X033834Y012650D01*
X033792Y012681D01*
X033752Y012715D01*
X033715Y012752D01*
X033681Y012792D01*
X033650Y012834D01*
X033622Y012878D01*
X033597Y012924D01*
X033576Y012972D01*
X033559Y013022D01*
X033546Y013072D01*
X033536Y013124D01*
X033530Y013176D01*
X033528Y013228D01*
X033028Y010133D02*
X033028Y009328D01*
X033528Y009728D02*
X033530Y009780D01*
X033536Y009832D01*
X033546Y009884D01*
X033559Y009934D01*
X033576Y009984D01*
X033597Y010032D01*
X033622Y010078D01*
X033650Y010122D01*
X033681Y010164D01*
X033715Y010204D01*
X033752Y010241D01*
X033792Y010275D01*
X033834Y010306D01*
X033878Y010334D01*
X033924Y010359D01*
X033972Y010380D01*
X034022Y010397D01*
X034072Y010410D01*
X034124Y010420D01*
X034176Y010426D01*
X034228Y010428D01*
X034280Y010426D01*
X034332Y010420D01*
X034384Y010410D01*
X034434Y010397D01*
X034484Y010380D01*
X034532Y010359D01*
X034578Y010334D01*
X034622Y010306D01*
X034664Y010275D01*
X034704Y010241D01*
X034741Y010204D01*
X034775Y010164D01*
X034806Y010122D01*
X034834Y010078D01*
X034859Y010032D01*
X034880Y009984D01*
X034897Y009934D01*
X034910Y009884D01*
X034920Y009832D01*
X034926Y009780D01*
X034928Y009728D01*
X034926Y009676D01*
X034920Y009624D01*
X034910Y009572D01*
X034897Y009522D01*
X034880Y009472D01*
X034859Y009424D01*
X034834Y009378D01*
X034806Y009334D01*
X034775Y009292D01*
X034741Y009252D01*
X034704Y009215D01*
X034664Y009181D01*
X034622Y009150D01*
X034578Y009122D01*
X034532Y009097D01*
X034484Y009076D01*
X034434Y009059D01*
X034384Y009046D01*
X034332Y009036D01*
X034280Y009030D01*
X034228Y009028D01*
X034176Y009030D01*
X034124Y009036D01*
X034072Y009046D01*
X034022Y009059D01*
X033972Y009076D01*
X033924Y009097D01*
X033878Y009122D01*
X033834Y009150D01*
X033792Y009181D01*
X033752Y009215D01*
X033715Y009252D01*
X033681Y009292D01*
X033650Y009334D01*
X033622Y009378D01*
X033597Y009424D01*
X033576Y009472D01*
X033559Y009522D01*
X033546Y009572D01*
X033536Y009624D01*
X033530Y009676D01*
X033528Y009728D01*
X034098Y002728D02*
X034100Y002778D01*
X034106Y002828D01*
X034116Y002877D01*
X034130Y002925D01*
X034147Y002972D01*
X034168Y003017D01*
X034193Y003061D01*
X034221Y003102D01*
X034253Y003141D01*
X034287Y003178D01*
X034324Y003212D01*
X034364Y003242D01*
X034406Y003269D01*
X034450Y003293D01*
X034496Y003314D01*
X034543Y003330D01*
X034591Y003343D01*
X034641Y003352D01*
X034690Y003357D01*
X034741Y003358D01*
X034791Y003355D01*
X034840Y003348D01*
X034889Y003337D01*
X034937Y003322D01*
X034983Y003304D01*
X035028Y003282D01*
X035071Y003256D01*
X035112Y003227D01*
X035151Y003195D01*
X035187Y003160D01*
X035219Y003122D01*
X035249Y003082D01*
X035276Y003039D01*
X035299Y002995D01*
X035318Y002949D01*
X035334Y002901D01*
X035346Y002852D01*
X035354Y002803D01*
X035358Y002753D01*
X035358Y002703D01*
X035354Y002653D01*
X035346Y002604D01*
X035334Y002555D01*
X035318Y002507D01*
X035299Y002461D01*
X035276Y002417D01*
X035249Y002374D01*
X035219Y002334D01*
X035187Y002296D01*
X035151Y002261D01*
X035112Y002229D01*
X035071Y002200D01*
X035028Y002174D01*
X034983Y002152D01*
X034937Y002134D01*
X034889Y002119D01*
X034840Y002108D01*
X034791Y002101D01*
X034741Y002098D01*
X034690Y002099D01*
X034641Y002104D01*
X034591Y002113D01*
X034543Y002126D01*
X034496Y002142D01*
X034450Y002163D01*
X034406Y002187D01*
X034364Y002214D01*
X034324Y002244D01*
X034287Y002278D01*
X034253Y002315D01*
X034221Y002354D01*
X034193Y002395D01*
X034168Y002439D01*
X034147Y002484D01*
X034130Y002531D01*
X034116Y002579D01*
X034106Y002628D01*
X034100Y002678D01*
X034098Y002728D01*
D11*
X034207Y015228D02*
X034618Y015228D01*
X035011Y015228D02*
X035422Y015228D01*
X035816Y015228D02*
X036226Y015228D01*
X033813Y015228D02*
X033403Y015228D01*
X033009Y015228D02*
X032598Y015228D01*
X032205Y015228D02*
X031794Y015228D01*
X031400Y015228D02*
X030990Y015228D01*
X030596Y015228D02*
X030185Y015228D01*
X029791Y015228D02*
X029381Y015228D01*
X028987Y015228D02*
X028576Y015228D01*
X028183Y015228D02*
X027772Y015228D01*
X027378Y015228D02*
X026968Y015228D01*
X026574Y015228D02*
X026163Y015228D01*
X025770Y015228D02*
X025359Y015228D01*
X024965Y015228D02*
X024555Y015228D01*
X024161Y015228D02*
X023750Y015228D01*
X023357Y015228D02*
X022946Y015228D01*
X022552Y015228D02*
X022141Y015228D01*
X021748Y015228D02*
X021337Y015228D01*
X020943Y015228D02*
X020533Y015228D01*
X020139Y015228D02*
X019728Y015228D01*
X019335Y015228D02*
X018924Y015228D01*
X018530Y015228D02*
X018120Y015228D01*
X017726Y015228D02*
X017315Y015228D01*
X016922Y015228D02*
X016511Y015228D01*
X016117Y015228D02*
X015707Y015228D01*
X015313Y015228D02*
X014902Y015228D01*
X014508Y015228D02*
X014098Y015228D01*
X013704Y015228D02*
X013293Y015228D01*
X012900Y015228D02*
X012489Y015228D01*
X012095Y015228D02*
X011685Y015228D01*
X011291Y015228D02*
X010880Y015228D01*
X010487Y015228D02*
X010076Y015228D01*
X009682Y015228D02*
X009272Y015228D01*
X008878Y015228D02*
X008467Y015228D01*
X008074Y015228D02*
X007663Y015228D01*
X007269Y015228D02*
X006858Y015228D01*
X006465Y015228D02*
X006054Y015228D01*
X005660Y015228D02*
X005250Y015228D01*
X004856Y015228D02*
X004445Y015228D01*
X004052Y015228D02*
X003641Y015228D01*
X003247Y015228D02*
X002837Y015228D01*
X002443Y015228D02*
X002032Y015228D01*
X001639Y015228D02*
X001228Y015228D01*
X002228Y015853D02*
X002228Y016301D01*
X002228Y016695D02*
X002228Y017143D01*
X002228Y017537D02*
X002228Y017985D01*
X002228Y018379D02*
X002228Y018827D01*
X002228Y019221D02*
X002228Y019669D01*
X002228Y020063D02*
X002228Y020511D01*
X002228Y020904D02*
X002228Y021353D01*
X002478Y021603D01*
X002228Y015853D02*
X002478Y015603D01*
D12*
X023138Y038263D02*
X023391Y038516D01*
X023391Y038580D01*
X023328Y038643D01*
X023201Y038643D01*
X023138Y038580D01*
X023138Y038263D02*
X023391Y038263D01*
X023552Y038326D02*
X023806Y038580D01*
X023806Y038326D01*
X023742Y038263D01*
X023616Y038263D01*
X023552Y038326D01*
X023552Y038580D01*
X023616Y038643D01*
X023742Y038643D01*
X023806Y038580D01*
X023657Y038888D02*
X023530Y038888D01*
X023467Y038951D01*
X023720Y039205D01*
X023720Y038951D01*
X023657Y038888D01*
X023467Y038951D02*
X023467Y039205D01*
X023530Y039268D01*
X023657Y039268D01*
X023720Y039205D01*
X023881Y039268D02*
X023881Y039015D01*
X024008Y038888D01*
X024134Y039015D01*
X024134Y039268D01*
X024710Y039141D02*
X024836Y039268D01*
X024963Y039141D01*
X024963Y038888D01*
X025124Y038951D02*
X025124Y039205D01*
X025187Y039268D01*
X025314Y039268D01*
X025377Y039205D01*
X025377Y038951D02*
X025314Y038888D01*
X025187Y038888D01*
X025124Y038951D01*
X024963Y039078D02*
X024710Y039078D01*
X024710Y039141D02*
X024710Y038888D01*
X024508Y038643D02*
X024634Y038516D01*
X024634Y038263D01*
X024634Y038453D02*
X024381Y038453D01*
X024381Y038516D02*
X024508Y038643D01*
X024381Y038516D02*
X024381Y038263D01*
X025210Y038263D02*
X025210Y038643D01*
X025336Y038516D01*
X025463Y038643D01*
X025463Y038263D01*
X025624Y038263D02*
X025624Y038516D01*
X025751Y038643D01*
X025877Y038516D01*
X025877Y038263D01*
X026038Y038263D02*
X026292Y038643D01*
X026038Y038643D02*
X026292Y038263D01*
X026453Y038263D02*
X026516Y038263D01*
X026516Y038326D01*
X026453Y038326D01*
X026453Y038263D01*
X025877Y038453D02*
X025624Y038453D01*
X025953Y038888D02*
X025953Y039268D01*
X026079Y039141D01*
X026206Y039268D01*
X026206Y038888D01*
X026367Y038888D02*
X026367Y039141D01*
X026494Y039268D01*
X026620Y039141D01*
X026620Y038888D01*
X026781Y038888D02*
X027035Y039268D01*
X026781Y039268D02*
X027035Y038888D01*
X027196Y038888D02*
X027259Y038888D01*
X027259Y038951D01*
X027196Y038951D01*
X027196Y038888D01*
X026620Y039078D02*
X026367Y039078D01*
X023306Y039078D02*
X023052Y039078D01*
X023242Y039268D01*
X023242Y038888D01*
X022891Y038888D02*
X022638Y038888D01*
X022891Y039141D01*
X022891Y039205D01*
X022828Y039268D01*
X022701Y039268D01*
X022638Y039205D01*
D13*
X020228Y039178D02*
X020228Y040128D01*
X016228Y040128D01*
X016228Y039178D01*
X016228Y036578D01*
X020228Y036578D01*
X020228Y039178D01*
X019578Y039178D01*
X018878Y039178D02*
X017578Y039178D01*
X016878Y039178D02*
X016228Y039178D01*
X012225Y034048D02*
X012128Y034048D01*
X012080Y034000D01*
X012080Y033806D01*
X012128Y033758D01*
X012225Y033758D01*
X012274Y033806D01*
X012274Y034000D02*
X012225Y034048D01*
X011951Y034048D02*
X011951Y033758D01*
X011758Y034048D01*
X011758Y033758D01*
X010728Y036578D02*
X010728Y039178D01*
X010728Y040128D01*
X006728Y040128D01*
X006728Y039178D01*
X006728Y036578D01*
X010728Y036578D01*
X010728Y039178D02*
X010078Y039178D01*
X009378Y039178D02*
X008078Y039178D01*
X007378Y039178D02*
X006728Y039178D01*
X001378Y038728D02*
X001380Y038801D01*
X001386Y038874D01*
X001396Y038946D01*
X001410Y039018D01*
X001427Y039089D01*
X001449Y039159D01*
X001474Y039228D01*
X001503Y039295D01*
X001535Y039360D01*
X001571Y039424D01*
X001611Y039486D01*
X001653Y039545D01*
X001699Y039602D01*
X001748Y039656D01*
X001800Y039708D01*
X001854Y039757D01*
X001911Y039803D01*
X001970Y039845D01*
X002032Y039885D01*
X002096Y039921D01*
X002161Y039953D01*
X002228Y039982D01*
X002297Y040007D01*
X002367Y040029D01*
X002438Y040046D01*
X002510Y040060D01*
X002582Y040070D01*
X002655Y040076D01*
X002728Y040078D01*
X002801Y040076D01*
X002874Y040070D01*
X002946Y040060D01*
X003018Y040046D01*
X003089Y040029D01*
X003159Y040007D01*
X003228Y039982D01*
X003295Y039953D01*
X003360Y039921D01*
X003424Y039885D01*
X003486Y039845D01*
X003545Y039803D01*
X003602Y039757D01*
X003656Y039708D01*
X003708Y039656D01*
X003757Y039602D01*
X003803Y039545D01*
X003845Y039486D01*
X003885Y039424D01*
X003921Y039360D01*
X003953Y039295D01*
X003982Y039228D01*
X004007Y039159D01*
X004029Y039089D01*
X004046Y039018D01*
X004060Y038946D01*
X004070Y038874D01*
X004076Y038801D01*
X004078Y038728D01*
X004076Y038655D01*
X004070Y038582D01*
X004060Y038510D01*
X004046Y038438D01*
X004029Y038367D01*
X004007Y038297D01*
X003982Y038228D01*
X003953Y038161D01*
X003921Y038096D01*
X003885Y038032D01*
X003845Y037970D01*
X003803Y037911D01*
X003757Y037854D01*
X003708Y037800D01*
X003656Y037748D01*
X003602Y037699D01*
X003545Y037653D01*
X003486Y037611D01*
X003424Y037571D01*
X003360Y037535D01*
X003295Y037503D01*
X003228Y037474D01*
X003159Y037449D01*
X003089Y037427D01*
X003018Y037410D01*
X002946Y037396D01*
X002874Y037386D01*
X002801Y037380D01*
X002728Y037378D01*
X002655Y037380D01*
X002582Y037386D01*
X002510Y037396D01*
X002438Y037410D01*
X002367Y037427D01*
X002297Y037449D01*
X002228Y037474D01*
X002161Y037503D01*
X002096Y037535D01*
X002032Y037571D01*
X001970Y037611D01*
X001911Y037653D01*
X001854Y037699D01*
X001800Y037748D01*
X001748Y037800D01*
X001699Y037854D01*
X001653Y037911D01*
X001611Y037970D01*
X001571Y038032D01*
X001535Y038096D01*
X001503Y038161D01*
X001474Y038228D01*
X001449Y038297D01*
X001427Y038367D01*
X001410Y038438D01*
X001396Y038510D01*
X001386Y038582D01*
X001380Y038655D01*
X001378Y038728D01*
X003478Y021728D02*
X003228Y021478D01*
X003228Y020978D01*
X003478Y020728D01*
X003228Y020478D01*
X003228Y019978D01*
X003478Y019728D01*
X003978Y019728D01*
X004228Y019978D01*
X004228Y020478D01*
X003978Y020728D01*
X003478Y020728D01*
X003978Y020728D02*
X004228Y020978D01*
X004228Y021478D01*
X003978Y021728D01*
X003478Y021728D01*
X003478Y019728D02*
X003228Y019478D01*
X003228Y018978D01*
X003478Y018728D01*
X003228Y018478D01*
X003228Y017978D01*
X003478Y017728D01*
X003228Y017478D01*
X003228Y016978D01*
X003478Y016728D01*
X003228Y016478D01*
X003228Y015978D01*
X003478Y015728D01*
X003978Y015728D01*
X004228Y015978D01*
X004228Y016478D01*
X003978Y016728D01*
X003478Y016728D01*
X003978Y016728D02*
X004228Y016978D01*
X004228Y017478D01*
X003978Y017728D01*
X003478Y017728D01*
X003978Y017728D02*
X004228Y017978D01*
X004228Y018478D01*
X003978Y018728D01*
X003478Y018728D01*
X003978Y018728D02*
X004228Y018978D01*
X004228Y019478D01*
X003978Y019728D01*
X012574Y005721D02*
X012574Y005673D01*
X012574Y005576D02*
X012574Y005383D01*
X012526Y005383D02*
X012623Y005383D01*
X012741Y005383D02*
X012741Y005576D01*
X012886Y005576D01*
X012934Y005528D01*
X012934Y005383D01*
X013063Y005431D02*
X013111Y005383D01*
X013208Y005383D01*
X013257Y005431D01*
X013257Y005528D01*
X013208Y005576D01*
X013111Y005576D01*
X013063Y005528D01*
X013063Y005431D01*
X012574Y005576D02*
X012526Y005576D01*
X012397Y005576D02*
X012397Y005383D01*
X012252Y005383D01*
X012204Y005431D01*
X012204Y005576D01*
X012075Y005576D02*
X011930Y005576D01*
X011881Y005528D01*
X011881Y005431D01*
X011930Y005383D01*
X012075Y005383D01*
X012075Y005673D01*
X011758Y005576D02*
X011710Y005576D01*
X011613Y005480D01*
X011613Y005576D02*
X011613Y005383D01*
X011484Y005383D02*
X011484Y005576D01*
X011387Y005673D01*
X011291Y005576D01*
X011291Y005383D01*
X011291Y005528D02*
X011484Y005528D01*
X011232Y005221D02*
X011232Y005173D01*
X011232Y005076D02*
X011232Y004883D01*
X011280Y004883D02*
X011183Y004883D01*
X011055Y004931D02*
X011006Y004883D01*
X010861Y004883D01*
X010861Y004786D02*
X010861Y005076D01*
X011006Y005076D01*
X011055Y005028D01*
X011055Y004931D01*
X011183Y005076D02*
X011232Y005076D01*
X011398Y005076D02*
X011398Y004883D01*
X011398Y005076D02*
X011543Y005076D01*
X011592Y005028D01*
X011592Y004883D01*
X011715Y004576D02*
X011860Y004576D01*
X011812Y004480D02*
X011715Y004480D01*
X011667Y004528D01*
X011715Y004576D01*
X011812Y004480D02*
X011860Y004431D01*
X011812Y004383D01*
X011667Y004383D01*
X011989Y004431D02*
X011989Y004576D01*
X011989Y004431D02*
X012037Y004383D01*
X012182Y004383D01*
X012182Y004576D01*
X012311Y004576D02*
X012456Y004576D01*
X012505Y004528D01*
X012505Y004431D01*
X012456Y004383D01*
X012311Y004383D01*
X012311Y004286D02*
X012311Y004576D01*
X012365Y004883D02*
X012365Y004931D01*
X012413Y004931D01*
X012413Y004883D01*
X012365Y004883D01*
X012236Y004931D02*
X012188Y004883D01*
X012091Y004883D01*
X012043Y004931D01*
X012236Y005125D01*
X012236Y004931D01*
X012043Y004931D02*
X012043Y005125D01*
X012091Y005173D01*
X012188Y005173D01*
X012236Y005125D01*
X012633Y004576D02*
X012779Y004576D01*
X012827Y004528D01*
X012827Y004431D01*
X012779Y004383D01*
X012633Y004383D01*
X012633Y004286D02*
X012633Y004576D01*
X012956Y004673D02*
X013004Y004673D01*
X013004Y004383D01*
X012956Y004383D02*
X013052Y004383D01*
X013170Y004431D02*
X013170Y004576D01*
X013170Y004431D02*
X013219Y004383D01*
X013364Y004383D01*
X013364Y004335D02*
X013316Y004286D01*
X013267Y004286D01*
X013364Y004335D02*
X013364Y004576D01*
X013815Y004576D02*
X013815Y004383D01*
X013815Y004480D02*
X013912Y004576D01*
X013960Y004576D01*
X014132Y004576D02*
X014229Y004576D01*
X014277Y004528D01*
X014277Y004383D01*
X014132Y004383D01*
X014084Y004431D01*
X014132Y004480D01*
X014277Y004480D01*
X014406Y004576D02*
X014454Y004576D01*
X014454Y004383D01*
X014406Y004383D02*
X014502Y004383D01*
X014621Y004383D02*
X014717Y004383D01*
X014669Y004383D02*
X014669Y004673D01*
X014621Y004673D01*
X014454Y004673D02*
X014454Y004721D01*
X014835Y004528D02*
X014884Y004480D01*
X014981Y004480D01*
X015029Y004431D01*
X014981Y004383D01*
X014835Y004383D01*
X014835Y004528D02*
X014884Y004576D01*
X015029Y004576D01*
X015480Y004528D02*
X015577Y004528D01*
X015528Y004625D02*
X015577Y004673D01*
X015528Y004625D02*
X015528Y004383D01*
X015695Y004383D02*
X015695Y004576D01*
X015695Y004480D02*
X015791Y004576D01*
X015840Y004576D01*
X015963Y004528D02*
X015963Y004431D01*
X016012Y004383D01*
X016108Y004383D01*
X016157Y004431D01*
X016157Y004528D01*
X016108Y004576D01*
X016012Y004576D01*
X015963Y004528D01*
X016286Y004576D02*
X016286Y004383D01*
X016382Y004383D02*
X016382Y004528D01*
X016431Y004576D01*
X016479Y004528D01*
X016479Y004383D01*
X016382Y004528D02*
X016334Y004576D01*
X016286Y004576D01*
X016930Y004576D02*
X016930Y004383D01*
X016930Y004528D02*
X017124Y004528D01*
X017124Y004576D02*
X017124Y004383D01*
X017252Y004383D02*
X017252Y004576D01*
X017252Y004480D02*
X017349Y004576D01*
X017397Y004576D01*
X017521Y004528D02*
X017569Y004576D01*
X017714Y004576D01*
X017714Y004673D02*
X017714Y004383D01*
X017569Y004383D01*
X017521Y004431D01*
X017521Y004528D01*
X017843Y004576D02*
X017843Y004431D01*
X017891Y004383D01*
X018037Y004383D01*
X018037Y004576D01*
X018165Y004576D02*
X018214Y004576D01*
X018214Y004383D01*
X018262Y004383D02*
X018165Y004383D01*
X018380Y004383D02*
X018380Y004576D01*
X018525Y004576D01*
X018574Y004528D01*
X018574Y004383D01*
X018702Y004431D02*
X018751Y004383D01*
X018848Y004383D01*
X018896Y004431D01*
X018896Y004528D01*
X018848Y004576D01*
X018751Y004576D01*
X018702Y004528D01*
X018702Y004431D01*
X019025Y004431D02*
X019073Y004431D01*
X019073Y004383D01*
X019025Y004383D01*
X019025Y004431D01*
X018214Y004673D02*
X018214Y004721D01*
X018149Y005383D02*
X018053Y005383D01*
X018004Y005431D01*
X018004Y005480D01*
X018053Y005528D01*
X018149Y005528D01*
X018198Y005480D01*
X018198Y005431D01*
X018149Y005383D01*
X018149Y005528D02*
X018198Y005576D01*
X018198Y005625D01*
X018149Y005673D01*
X018053Y005673D01*
X018004Y005625D01*
X018004Y005576D01*
X018053Y005528D01*
X018649Y005480D02*
X018745Y005576D01*
X018794Y005576D01*
X018917Y005528D02*
X018966Y005576D01*
X019062Y005576D01*
X019111Y005528D01*
X019111Y005480D01*
X018917Y005480D01*
X018917Y005528D02*
X018917Y005431D01*
X018966Y005383D01*
X019062Y005383D01*
X019239Y005383D02*
X019385Y005383D01*
X019433Y005431D01*
X019385Y005480D01*
X019288Y005480D01*
X019239Y005528D01*
X019288Y005576D01*
X019433Y005576D01*
X019562Y005576D02*
X019562Y005286D01*
X019562Y005383D02*
X019707Y005383D01*
X019755Y005431D01*
X019755Y005528D01*
X019707Y005576D01*
X019562Y005576D01*
X019884Y005528D02*
X019932Y005576D01*
X020029Y005576D01*
X020077Y005528D01*
X020077Y005480D01*
X019884Y005480D01*
X019884Y005528D02*
X019884Y005431D01*
X019932Y005383D01*
X020029Y005383D01*
X020206Y005431D02*
X020255Y005383D01*
X020400Y005383D01*
X020577Y005431D02*
X020625Y005383D01*
X020577Y005431D02*
X020577Y005625D01*
X020625Y005576D02*
X020528Y005576D01*
X020400Y005576D02*
X020255Y005576D01*
X020206Y005528D01*
X020206Y005431D01*
X020743Y005383D02*
X020840Y005383D01*
X020792Y005383D02*
X020792Y005576D01*
X020743Y005576D01*
X020792Y005673D02*
X020792Y005721D01*
X020958Y005576D02*
X021055Y005383D01*
X021152Y005576D01*
X021280Y005528D02*
X021329Y005576D01*
X021425Y005576D01*
X021474Y005528D01*
X021474Y005480D01*
X021280Y005480D01*
X021280Y005528D02*
X021280Y005431D01*
X021329Y005383D01*
X021425Y005383D01*
X021603Y005383D02*
X021699Y005383D01*
X021651Y005383D02*
X021651Y005673D01*
X021603Y005673D01*
X021817Y005576D02*
X021817Y005431D01*
X021866Y005383D01*
X022011Y005383D01*
X022011Y005335D02*
X021963Y005286D01*
X021914Y005286D01*
X022011Y005335D02*
X022011Y005576D01*
X022140Y005431D02*
X022188Y005431D01*
X022188Y005383D01*
X022140Y005383D01*
X022140Y005431D01*
X018649Y005383D02*
X018649Y005576D01*
X017553Y005576D02*
X017408Y005576D01*
X017360Y005528D01*
X017360Y005431D01*
X017408Y005383D01*
X017553Y005383D01*
X017553Y005673D01*
X017231Y005528D02*
X017231Y005383D01*
X017231Y005528D02*
X017183Y005576D01*
X017037Y005576D01*
X017037Y005383D01*
X016909Y005383D02*
X016764Y005383D01*
X016715Y005431D01*
X016764Y005480D01*
X016909Y005480D01*
X016909Y005528D02*
X016909Y005383D01*
X016909Y005528D02*
X016860Y005576D01*
X016764Y005576D01*
X016264Y005625D02*
X016071Y005431D01*
X016071Y005383D01*
X016071Y005673D02*
X016264Y005673D01*
X016264Y005625D01*
X015630Y005431D02*
X015582Y005431D01*
X015582Y005383D01*
X015630Y005383D01*
X015630Y005431D01*
X015630Y005383D02*
X015534Y005286D01*
X015405Y005431D02*
X015405Y005480D01*
X015356Y005528D01*
X015211Y005528D01*
X015211Y005431D01*
X015260Y005383D01*
X015356Y005383D01*
X015405Y005431D01*
X015308Y005625D02*
X015211Y005528D01*
X015308Y005625D02*
X015405Y005673D01*
X014760Y005576D02*
X014615Y005576D01*
X014567Y005528D01*
X014615Y005480D01*
X014712Y005480D01*
X014760Y005431D01*
X014712Y005383D01*
X014567Y005383D01*
X014438Y005383D02*
X014438Y005528D01*
X014390Y005576D01*
X014245Y005576D01*
X014245Y005383D01*
X014127Y005383D02*
X014030Y005383D01*
X014078Y005383D02*
X014078Y005576D01*
X014030Y005576D01*
X014078Y005673D02*
X014078Y005721D01*
X013901Y005528D02*
X013853Y005576D01*
X013708Y005576D01*
X013708Y005286D01*
X013708Y005383D02*
X013853Y005383D01*
X013901Y005431D01*
X013901Y005528D01*
X011216Y004673D02*
X011216Y004480D01*
X011119Y004383D01*
X011022Y004480D01*
X011022Y004673D01*
X010893Y004673D02*
X010700Y004673D01*
X010700Y004528D01*
X010797Y004576D01*
X010845Y004576D01*
X010893Y004528D01*
X010893Y004431D01*
X010845Y004383D01*
X010748Y004383D01*
X010700Y004431D01*
X010249Y004383D02*
X010249Y004673D01*
X010249Y004576D02*
X010104Y004576D01*
X010055Y004528D01*
X010055Y004431D01*
X010104Y004383D01*
X010249Y004383D01*
X009927Y004383D02*
X009927Y004528D01*
X009878Y004576D01*
X009733Y004576D01*
X009733Y004383D01*
X009604Y004383D02*
X009459Y004383D01*
X009411Y004431D01*
X009459Y004480D01*
X009604Y004480D01*
X009604Y004528D02*
X009604Y004383D01*
X009604Y004528D02*
X009556Y004576D01*
X009459Y004576D01*
X009406Y004883D02*
X009357Y004931D01*
X009406Y004980D01*
X009551Y004980D01*
X009551Y005028D02*
X009551Y004883D01*
X009406Y004883D01*
X009228Y004883D02*
X009228Y005028D01*
X009180Y005076D01*
X009035Y005076D01*
X009035Y004883D01*
X008906Y004883D02*
X008906Y005028D01*
X008858Y005076D01*
X008761Y005076D01*
X008761Y004980D02*
X008906Y004980D01*
X008906Y004883D02*
X008761Y004883D01*
X008713Y004931D01*
X008761Y004980D01*
X008766Y004673D02*
X008766Y004480D01*
X008863Y004383D01*
X008960Y004480D01*
X008960Y004673D01*
X008638Y004625D02*
X008589Y004673D01*
X008493Y004673D01*
X008444Y004625D01*
X008638Y004625D02*
X008638Y004576D01*
X008444Y004383D01*
X008638Y004383D01*
X008315Y004383D02*
X008122Y004383D01*
X008219Y004383D02*
X008219Y004673D01*
X008122Y004576D01*
X008068Y004883D02*
X008068Y005076D01*
X008213Y005076D01*
X008262Y005028D01*
X008262Y004883D01*
X007939Y004931D02*
X007939Y005028D01*
X007891Y005076D01*
X007794Y005076D01*
X007746Y005028D01*
X007746Y004931D01*
X007794Y004883D01*
X007891Y004883D01*
X007939Y004931D01*
X007671Y004576D02*
X007526Y004576D01*
X007477Y004528D01*
X007526Y004480D01*
X007623Y004480D01*
X007671Y004431D01*
X007623Y004383D01*
X007477Y004383D01*
X007349Y004480D02*
X007155Y004480D01*
X007155Y004528D02*
X007155Y004431D01*
X007204Y004383D01*
X007300Y004383D01*
X007349Y004480D02*
X007349Y004528D01*
X007300Y004576D01*
X007204Y004576D01*
X007155Y004528D01*
X007032Y004576D02*
X006983Y004576D01*
X006887Y004480D01*
X006887Y004576D02*
X006887Y004383D01*
X006769Y004383D02*
X006672Y004383D01*
X006720Y004383D02*
X006720Y004576D01*
X006672Y004576D01*
X006720Y004673D02*
X006720Y004721D01*
X006779Y004883D02*
X006779Y005076D01*
X006924Y005076D01*
X006973Y005028D01*
X006973Y004883D01*
X007102Y004883D02*
X007247Y004883D01*
X007295Y004931D01*
X007247Y004980D01*
X007150Y004980D01*
X007102Y005028D01*
X007150Y005076D01*
X007295Y005076D01*
X007306Y005383D02*
X007306Y005673D01*
X007209Y005576D01*
X007209Y005383D02*
X007402Y005383D01*
X007531Y005286D02*
X007628Y005383D01*
X007580Y005383D01*
X007580Y005431D01*
X007628Y005431D01*
X007628Y005383D01*
X008068Y005383D02*
X008262Y005576D01*
X008262Y005625D01*
X008213Y005673D01*
X008117Y005673D01*
X008068Y005625D01*
X008068Y005383D02*
X008262Y005383D01*
X008713Y005431D02*
X008761Y005480D01*
X008906Y005480D01*
X008906Y005528D02*
X008906Y005383D01*
X008761Y005383D01*
X008713Y005431D01*
X008761Y005576D02*
X008858Y005576D01*
X008906Y005528D01*
X009035Y005576D02*
X009180Y005576D01*
X009228Y005528D01*
X009228Y005383D01*
X009357Y005431D02*
X009357Y005528D01*
X009406Y005576D01*
X009551Y005576D01*
X009551Y005673D02*
X009551Y005383D01*
X009406Y005383D01*
X009357Y005431D01*
X009035Y005383D02*
X009035Y005576D01*
X009406Y005076D02*
X009502Y005076D01*
X009551Y005028D01*
X009679Y005173D02*
X009728Y005173D01*
X009728Y004883D01*
X009776Y004883D02*
X009679Y004883D01*
X009894Y004931D02*
X009943Y004883D01*
X010039Y004883D01*
X010088Y004931D01*
X010088Y005028D01*
X010039Y005076D01*
X009943Y005076D01*
X009894Y005028D01*
X009894Y004931D01*
X010217Y004931D02*
X010265Y004883D01*
X010410Y004883D01*
X010410Y004835D02*
X010410Y005076D01*
X010265Y005076D01*
X010217Y005028D01*
X010217Y004931D01*
X010313Y004786D02*
X010362Y004786D01*
X010410Y004835D01*
X010147Y005383D02*
X010050Y005383D01*
X010002Y005431D01*
X010098Y005528D02*
X010147Y005528D01*
X010195Y005480D01*
X010195Y005431D01*
X010147Y005383D01*
X010147Y005528D02*
X010195Y005576D01*
X010195Y005625D01*
X010147Y005673D01*
X010050Y005673D01*
X010002Y005625D01*
X010646Y005576D02*
X010840Y005576D01*
X010840Y005480D02*
X010646Y005480D01*
X010641Y002423D02*
X010738Y002423D01*
X010786Y002375D01*
X010593Y002181D01*
X010641Y002133D01*
X010738Y002133D01*
X010786Y002181D01*
X010786Y002375D01*
X010915Y002326D02*
X011011Y002423D01*
X011011Y002133D01*
X010915Y002133D02*
X011108Y002133D01*
X011237Y002133D02*
X011430Y002326D01*
X011430Y002375D01*
X011382Y002423D01*
X011285Y002423D01*
X011237Y002375D01*
X011237Y002133D02*
X011430Y002133D01*
X010593Y002181D02*
X010593Y002375D01*
X010641Y002423D01*
X010464Y002375D02*
X010415Y002423D01*
X010319Y002423D01*
X010270Y002375D01*
X010464Y002375D02*
X010464Y002326D01*
X010270Y002133D01*
X010464Y002133D01*
X009830Y002133D02*
X009782Y002133D01*
X009782Y002181D01*
X009830Y002181D01*
X009830Y002133D01*
X009733Y002036D01*
X009604Y002133D02*
X009604Y002278D01*
X009556Y002326D01*
X009411Y002326D01*
X009411Y002133D01*
X009282Y002181D02*
X009282Y002278D01*
X009234Y002326D01*
X009137Y002326D01*
X009089Y002278D01*
X009089Y002181D01*
X009137Y002133D01*
X009234Y002133D01*
X009282Y002181D01*
X008971Y002133D02*
X008922Y002181D01*
X008922Y002375D01*
X008874Y002326D02*
X008971Y002326D01*
X008745Y002326D02*
X008600Y002326D01*
X008552Y002278D01*
X008600Y002230D01*
X008697Y002230D01*
X008745Y002181D01*
X008697Y002133D01*
X008552Y002133D01*
X008423Y002230D02*
X008229Y002230D01*
X008229Y002278D02*
X008278Y002326D01*
X008374Y002326D01*
X008423Y002278D01*
X008423Y002230D01*
X008374Y002133D02*
X008278Y002133D01*
X008229Y002181D01*
X008229Y002278D01*
X008101Y002133D02*
X008101Y002423D01*
X007907Y002423D02*
X007907Y002133D01*
X008004Y002230D01*
X008101Y002133D01*
X007456Y002230D02*
X007263Y002230D01*
X007263Y002278D02*
X007311Y002326D01*
X007408Y002326D01*
X007456Y002278D01*
X007456Y002230D01*
X007408Y002133D02*
X007311Y002133D01*
X007263Y002181D01*
X007263Y002278D01*
X007139Y002326D02*
X006994Y002230D01*
X007139Y002133D01*
X006994Y002133D02*
X006994Y002423D01*
X006865Y002326D02*
X006865Y002133D01*
X006720Y002133D01*
X006672Y002181D01*
X006672Y002326D01*
X006543Y002133D02*
X006350Y002133D01*
X006350Y002423D01*
X005899Y002326D02*
X005899Y002085D01*
X005850Y002036D01*
X005802Y002036D01*
X005753Y002133D02*
X005899Y002133D01*
X005753Y002133D02*
X005705Y002181D01*
X005705Y002326D01*
X005576Y002278D02*
X005528Y002326D01*
X005383Y002326D01*
X005383Y002423D02*
X005383Y002133D01*
X005528Y002133D01*
X005576Y002181D01*
X005576Y002278D01*
X005576Y004383D02*
X005480Y004480D01*
X005528Y004480D02*
X005383Y004480D01*
X005383Y004383D02*
X005383Y004673D01*
X005528Y004673D01*
X005576Y004625D01*
X005576Y004528D01*
X005528Y004480D01*
X005705Y004480D02*
X005899Y004480D01*
X005899Y004528D01*
X005850Y004576D01*
X005753Y004576D01*
X005705Y004528D01*
X005705Y004431D01*
X005753Y004383D01*
X005850Y004383D01*
X006027Y004431D02*
X006027Y004528D01*
X006076Y004576D01*
X006221Y004576D01*
X006221Y004286D01*
X006221Y004383D02*
X006076Y004383D01*
X006027Y004431D01*
X006350Y004431D02*
X006398Y004383D01*
X006543Y004383D01*
X006543Y004576D01*
X006350Y004576D02*
X006350Y004431D01*
X006339Y004883D02*
X006291Y004931D01*
X006291Y005125D01*
X006339Y005076D02*
X006242Y005076D01*
X006124Y005076D02*
X006027Y005076D01*
X006076Y005125D02*
X006076Y004931D01*
X006124Y004883D01*
X005899Y004883D02*
X005899Y005076D01*
X005899Y004883D02*
X005753Y004883D01*
X005705Y004931D01*
X005705Y005076D01*
X005576Y005076D02*
X005528Y005028D01*
X005383Y005028D01*
X005528Y005028D02*
X005576Y004980D01*
X005576Y004931D01*
X005528Y004883D01*
X005383Y004883D01*
X005383Y005173D01*
X005528Y005173D01*
X005576Y005125D01*
X005576Y005076D01*
X005576Y005383D02*
X005480Y005480D01*
X005528Y005480D02*
X005383Y005480D01*
X005383Y005383D02*
X005383Y005673D01*
X005528Y005673D01*
X005576Y005625D01*
X005576Y005528D01*
X005528Y005480D01*
X005705Y005480D02*
X005899Y005480D01*
X005899Y005528D01*
X005850Y005576D01*
X005753Y005576D01*
X005705Y005528D01*
X005705Y005431D01*
X005753Y005383D01*
X005850Y005383D01*
X006027Y005383D02*
X006124Y005383D01*
X006076Y005383D02*
X006076Y005673D01*
X006027Y005673D01*
X006291Y005576D02*
X006387Y005576D01*
X006436Y005528D01*
X006436Y005383D01*
X006291Y005383D01*
X006242Y005431D01*
X006291Y005480D01*
X006436Y005480D01*
X006564Y005431D02*
X006613Y005383D01*
X006758Y005383D01*
X006758Y005335D02*
X006710Y005286D01*
X006661Y005286D01*
X006758Y005335D02*
X006758Y005576D01*
X006564Y005576D02*
X006564Y005431D01*
X006602Y005076D02*
X006505Y005076D01*
X006457Y005028D01*
X006457Y004931D01*
X006505Y004883D01*
X006602Y004883D01*
X006651Y004931D01*
X006651Y005028D01*
X006602Y005076D01*
X001378Y002728D02*
X001380Y002801D01*
X001386Y002874D01*
X001396Y002946D01*
X001410Y003018D01*
X001427Y003089D01*
X001449Y003159D01*
X001474Y003228D01*
X001503Y003295D01*
X001535Y003360D01*
X001571Y003424D01*
X001611Y003486D01*
X001653Y003545D01*
X001699Y003602D01*
X001748Y003656D01*
X001800Y003708D01*
X001854Y003757D01*
X001911Y003803D01*
X001970Y003845D01*
X002032Y003885D01*
X002096Y003921D01*
X002161Y003953D01*
X002228Y003982D01*
X002297Y004007D01*
X002367Y004029D01*
X002438Y004046D01*
X002510Y004060D01*
X002582Y004070D01*
X002655Y004076D01*
X002728Y004078D01*
X002801Y004076D01*
X002874Y004070D01*
X002946Y004060D01*
X003018Y004046D01*
X003089Y004029D01*
X003159Y004007D01*
X003228Y003982D01*
X003295Y003953D01*
X003360Y003921D01*
X003424Y003885D01*
X003486Y003845D01*
X003545Y003803D01*
X003602Y003757D01*
X003656Y003708D01*
X003708Y003656D01*
X003757Y003602D01*
X003803Y003545D01*
X003845Y003486D01*
X003885Y003424D01*
X003921Y003360D01*
X003953Y003295D01*
X003982Y003228D01*
X004007Y003159D01*
X004029Y003089D01*
X004046Y003018D01*
X004060Y002946D01*
X004070Y002874D01*
X004076Y002801D01*
X004078Y002728D01*
X004076Y002655D01*
X004070Y002582D01*
X004060Y002510D01*
X004046Y002438D01*
X004029Y002367D01*
X004007Y002297D01*
X003982Y002228D01*
X003953Y002161D01*
X003921Y002096D01*
X003885Y002032D01*
X003845Y001970D01*
X003803Y001911D01*
X003757Y001854D01*
X003708Y001800D01*
X003656Y001748D01*
X003602Y001699D01*
X003545Y001653D01*
X003486Y001611D01*
X003424Y001571D01*
X003360Y001535D01*
X003295Y001503D01*
X003228Y001474D01*
X003159Y001449D01*
X003089Y001427D01*
X003018Y001410D01*
X002946Y001396D01*
X002874Y001386D01*
X002801Y001380D01*
X002728Y001378D01*
X002655Y001380D01*
X002582Y001386D01*
X002510Y001396D01*
X002438Y001410D01*
X002367Y001427D01*
X002297Y001449D01*
X002228Y001474D01*
X002161Y001503D01*
X002096Y001535D01*
X002032Y001571D01*
X001970Y001611D01*
X001911Y001653D01*
X001854Y001699D01*
X001800Y001748D01*
X001748Y001800D01*
X001699Y001854D01*
X001653Y001911D01*
X001611Y001970D01*
X001571Y002032D01*
X001535Y002096D01*
X001503Y002161D01*
X001474Y002228D01*
X001449Y002297D01*
X001427Y002367D01*
X001410Y002438D01*
X001396Y002510D01*
X001386Y002582D01*
X001380Y002655D01*
X001378Y002728D01*
X016930Y004576D02*
X017027Y004673D01*
X017124Y004576D01*
X033378Y002728D02*
X033380Y002801D01*
X033386Y002874D01*
X033396Y002946D01*
X033410Y003018D01*
X033427Y003089D01*
X033449Y003159D01*
X033474Y003228D01*
X033503Y003295D01*
X033535Y003360D01*
X033571Y003424D01*
X033611Y003486D01*
X033653Y003545D01*
X033699Y003602D01*
X033748Y003656D01*
X033800Y003708D01*
X033854Y003757D01*
X033911Y003803D01*
X033970Y003845D01*
X034032Y003885D01*
X034096Y003921D01*
X034161Y003953D01*
X034228Y003982D01*
X034297Y004007D01*
X034367Y004029D01*
X034438Y004046D01*
X034510Y004060D01*
X034582Y004070D01*
X034655Y004076D01*
X034728Y004078D01*
X034801Y004076D01*
X034874Y004070D01*
X034946Y004060D01*
X035018Y004046D01*
X035089Y004029D01*
X035159Y004007D01*
X035228Y003982D01*
X035295Y003953D01*
X035360Y003921D01*
X035424Y003885D01*
X035486Y003845D01*
X035545Y003803D01*
X035602Y003757D01*
X035656Y003708D01*
X035708Y003656D01*
X035757Y003602D01*
X035803Y003545D01*
X035845Y003486D01*
X035885Y003424D01*
X035921Y003360D01*
X035953Y003295D01*
X035982Y003228D01*
X036007Y003159D01*
X036029Y003089D01*
X036046Y003018D01*
X036060Y002946D01*
X036070Y002874D01*
X036076Y002801D01*
X036078Y002728D01*
X036076Y002655D01*
X036070Y002582D01*
X036060Y002510D01*
X036046Y002438D01*
X036029Y002367D01*
X036007Y002297D01*
X035982Y002228D01*
X035953Y002161D01*
X035921Y002096D01*
X035885Y002032D01*
X035845Y001970D01*
X035803Y001911D01*
X035757Y001854D01*
X035708Y001800D01*
X035656Y001748D01*
X035602Y001699D01*
X035545Y001653D01*
X035486Y001611D01*
X035424Y001571D01*
X035360Y001535D01*
X035295Y001503D01*
X035228Y001474D01*
X035159Y001449D01*
X035089Y001427D01*
X035018Y001410D01*
X034946Y001396D01*
X034874Y001386D01*
X034801Y001380D01*
X034728Y001378D01*
X034655Y001380D01*
X034582Y001386D01*
X034510Y001396D01*
X034438Y001410D01*
X034367Y001427D01*
X034297Y001449D01*
X034228Y001474D01*
X034161Y001503D01*
X034096Y001535D01*
X034032Y001571D01*
X033970Y001611D01*
X033911Y001653D01*
X033854Y001699D01*
X033800Y001748D01*
X033748Y001800D01*
X033699Y001854D01*
X033653Y001911D01*
X033611Y001970D01*
X033571Y002032D01*
X033535Y002096D01*
X033503Y002161D01*
X033474Y002228D01*
X033449Y002297D01*
X033427Y002367D01*
X033410Y002438D01*
X033396Y002510D01*
X033386Y002582D01*
X033380Y002655D01*
X033378Y002728D01*
X034758Y033758D02*
X034758Y034048D01*
X034951Y033758D01*
X034951Y034048D01*
X035080Y034000D02*
X035080Y033806D01*
X035128Y033758D01*
X035225Y033758D01*
X035274Y033806D01*
X035274Y034000D02*
X035225Y034048D01*
X035128Y034048D01*
X035080Y034000D01*
X031728Y036578D02*
X031728Y039178D01*
X031728Y040128D01*
X027728Y040128D01*
X027728Y039178D01*
X027728Y036578D01*
X031728Y036578D01*
X031728Y039178D02*
X031078Y039178D01*
X030378Y039178D02*
X029078Y039178D01*
X028378Y039178D02*
X027728Y039178D01*
X023725Y034048D02*
X023628Y034048D01*
X023580Y034000D01*
X023580Y033806D01*
X023628Y033758D01*
X023725Y033758D01*
X023774Y033806D01*
X023774Y034000D02*
X023725Y034048D01*
X023451Y034048D02*
X023451Y033758D01*
X023258Y034048D01*
X023258Y033758D01*
X033378Y038728D02*
X033380Y038801D01*
X033386Y038874D01*
X033396Y038946D01*
X033410Y039018D01*
X033427Y039089D01*
X033449Y039159D01*
X033474Y039228D01*
X033503Y039295D01*
X033535Y039360D01*
X033571Y039424D01*
X033611Y039486D01*
X033653Y039545D01*
X033699Y039602D01*
X033748Y039656D01*
X033800Y039708D01*
X033854Y039757D01*
X033911Y039803D01*
X033970Y039845D01*
X034032Y039885D01*
X034096Y039921D01*
X034161Y039953D01*
X034228Y039982D01*
X034297Y040007D01*
X034367Y040029D01*
X034438Y040046D01*
X034510Y040060D01*
X034582Y040070D01*
X034655Y040076D01*
X034728Y040078D01*
X034801Y040076D01*
X034874Y040070D01*
X034946Y040060D01*
X035018Y040046D01*
X035089Y040029D01*
X035159Y040007D01*
X035228Y039982D01*
X035295Y039953D01*
X035360Y039921D01*
X035424Y039885D01*
X035486Y039845D01*
X035545Y039803D01*
X035602Y039757D01*
X035656Y039708D01*
X035708Y039656D01*
X035757Y039602D01*
X035803Y039545D01*
X035845Y039486D01*
X035885Y039424D01*
X035921Y039360D01*
X035953Y039295D01*
X035982Y039228D01*
X036007Y039159D01*
X036029Y039089D01*
X036046Y039018D01*
X036060Y038946D01*
X036070Y038874D01*
X036076Y038801D01*
X036078Y038728D01*
X036076Y038655D01*
X036070Y038582D01*
X036060Y038510D01*
X036046Y038438D01*
X036029Y038367D01*
X036007Y038297D01*
X035982Y038228D01*
X035953Y038161D01*
X035921Y038096D01*
X035885Y038032D01*
X035845Y037970D01*
X035803Y037911D01*
X035757Y037854D01*
X035708Y037800D01*
X035656Y037748D01*
X035602Y037699D01*
X035545Y037653D01*
X035486Y037611D01*
X035424Y037571D01*
X035360Y037535D01*
X035295Y037503D01*
X035228Y037474D01*
X035159Y037449D01*
X035089Y037427D01*
X035018Y037410D01*
X034946Y037396D01*
X034874Y037386D01*
X034801Y037380D01*
X034728Y037378D01*
X034655Y037380D01*
X034582Y037386D01*
X034510Y037396D01*
X034438Y037410D01*
X034367Y037427D01*
X034297Y037449D01*
X034228Y037474D01*
X034161Y037503D01*
X034096Y037535D01*
X034032Y037571D01*
X033970Y037611D01*
X033911Y037653D01*
X033854Y037699D01*
X033800Y037748D01*
X033748Y037800D01*
X033699Y037854D01*
X033653Y037911D01*
X033611Y037970D01*
X033571Y038032D01*
X033535Y038096D01*
X033503Y038161D01*
X033474Y038228D01*
X033449Y038297D01*
X033427Y038367D01*
X033410Y038438D01*
X033396Y038510D01*
X033386Y038582D01*
X033380Y038655D01*
X033378Y038728D01*
D14*
X027177Y037275D02*
X027177Y037177D01*
X027078Y037078D01*
X027177Y036980D01*
X027177Y036881D01*
X027078Y036783D01*
X026881Y036783D01*
X026783Y036881D01*
X026980Y037078D02*
X027078Y037078D01*
X027177Y037275D02*
X027078Y037373D01*
X026881Y037373D01*
X026783Y037275D01*
X015677Y037275D02*
X015578Y037373D01*
X015381Y037373D01*
X015283Y037275D01*
X015677Y037275D02*
X015677Y037177D01*
X015283Y036783D01*
X015677Y036783D01*
X006177Y036783D02*
X005783Y036783D01*
X005980Y036783D02*
X005980Y037373D01*
X005783Y037177D01*
D15*
X015940Y006608D02*
X016094Y006608D01*
X016171Y006531D01*
X016171Y006455D01*
X016094Y006378D01*
X016171Y006301D01*
X016171Y006225D01*
X016094Y006148D01*
X015940Y006148D01*
X015864Y006225D01*
X016017Y006378D02*
X016094Y006378D01*
X016370Y006378D02*
X016677Y006378D01*
X016877Y006378D02*
X016877Y006225D01*
X016953Y006148D01*
X017184Y006148D01*
X017383Y006148D02*
X017383Y006608D01*
X017460Y006455D02*
X017613Y006455D01*
X017690Y006378D01*
X017690Y006148D01*
X017889Y006225D02*
X017966Y006301D01*
X018196Y006301D01*
X018196Y006378D02*
X018196Y006148D01*
X017966Y006148D01*
X017889Y006225D01*
X017966Y006455D02*
X018120Y006455D01*
X018196Y006378D01*
X018396Y006455D02*
X018626Y006455D01*
X018703Y006378D01*
X018703Y006148D01*
X018902Y006148D02*
X018902Y006455D01*
X019132Y006455D01*
X019209Y006378D01*
X019209Y006148D01*
X019409Y006225D02*
X019409Y006378D01*
X019485Y006455D01*
X019639Y006455D01*
X019716Y006378D01*
X019716Y006301D01*
X019409Y006301D01*
X019409Y006225D02*
X019485Y006148D01*
X019639Y006148D01*
X019915Y006148D02*
X020069Y006148D01*
X019992Y006148D02*
X019992Y006608D01*
X019915Y006608D01*
X020759Y006455D02*
X020759Y005994D01*
X020759Y006148D02*
X020989Y006148D01*
X021066Y006225D01*
X021066Y006378D01*
X020989Y006455D01*
X020759Y006455D01*
X021266Y006378D02*
X021266Y006225D01*
X021342Y006148D01*
X021496Y006148D01*
X021572Y006225D01*
X021572Y006378D01*
X021496Y006455D01*
X021342Y006455D01*
X021266Y006378D01*
X021772Y006455D02*
X021772Y006225D01*
X021849Y006148D01*
X021925Y006225D01*
X022002Y006148D01*
X022079Y006225D01*
X022079Y006455D01*
X022278Y006378D02*
X022355Y006455D01*
X022509Y006455D01*
X022585Y006378D01*
X022585Y006301D01*
X022278Y006301D01*
X022278Y006225D02*
X022278Y006378D01*
X022278Y006225D02*
X022355Y006148D01*
X022509Y006148D01*
X022785Y006148D02*
X022785Y006455D01*
X022938Y006455D02*
X022785Y006301D01*
X022938Y006455D02*
X023015Y006455D01*
X023713Y006455D02*
X023713Y006148D01*
X023713Y006301D02*
X023867Y006455D01*
X023943Y006455D01*
X024135Y006378D02*
X024212Y006455D01*
X024365Y006455D01*
X024442Y006378D01*
X024442Y006301D01*
X024135Y006301D01*
X024135Y006225D02*
X024135Y006378D01*
X024135Y006225D02*
X024212Y006148D01*
X024365Y006148D01*
X024642Y006148D02*
X024795Y006148D01*
X024718Y006148D02*
X024718Y006608D01*
X024642Y006608D01*
X025056Y006455D02*
X025209Y006455D01*
X025286Y006378D01*
X025286Y006148D01*
X025056Y006148D01*
X024979Y006225D01*
X025056Y006301D01*
X025286Y006301D01*
X025486Y006225D02*
X025562Y006148D01*
X025793Y006148D01*
X025793Y006071D02*
X025793Y006455D01*
X025486Y006455D02*
X025486Y006225D01*
X025639Y005994D02*
X025716Y005994D01*
X025793Y006071D01*
X026499Y006148D02*
X026499Y006608D01*
X026499Y006455D02*
X026729Y006455D01*
X026805Y006378D01*
X026805Y006225D01*
X026729Y006148D01*
X026499Y006148D01*
X027005Y006225D02*
X027082Y006148D01*
X027235Y006148D01*
X027312Y006225D01*
X027312Y006378D01*
X027235Y006455D01*
X027082Y006455D01*
X027005Y006378D01*
X027005Y006225D01*
X027511Y006225D02*
X027588Y006301D01*
X027818Y006301D01*
X027818Y006378D02*
X027818Y006148D01*
X027588Y006148D01*
X027511Y006225D01*
X027588Y006455D02*
X027741Y006455D01*
X027818Y006378D01*
X028018Y006301D02*
X028171Y006455D01*
X028248Y006455D01*
X028440Y006378D02*
X028516Y006455D01*
X028747Y006455D01*
X028747Y006608D02*
X028747Y006148D01*
X028516Y006148D01*
X028440Y006225D01*
X028440Y006378D01*
X028018Y006455D02*
X028018Y006148D01*
X018396Y006148D02*
X018396Y006455D01*
X017460Y006455D02*
X017383Y006378D01*
X017184Y006455D02*
X016953Y006455D01*
X016877Y006378D01*
X015940Y006608D02*
X015864Y006531D01*
X015158Y006378D02*
X015158Y006148D01*
X015004Y006148D02*
X015004Y006378D01*
X015081Y006455D01*
X015158Y006378D01*
X015004Y006378D02*
X014928Y006455D01*
X014851Y006455D01*
X014851Y006148D01*
X014651Y006225D02*
X014651Y006378D01*
X014575Y006455D01*
X014421Y006455D01*
X014345Y006378D01*
X014345Y006225D01*
X014421Y006148D01*
X014575Y006148D01*
X014651Y006225D01*
X014145Y006148D02*
X013915Y006148D01*
X013838Y006225D01*
X013838Y006378D01*
X013915Y006455D01*
X014145Y006455D01*
X013662Y006225D02*
X013662Y006148D01*
X013585Y006148D01*
X013585Y006225D01*
X013662Y006225D01*
X013385Y006225D02*
X013309Y006301D01*
X013155Y006301D01*
X013079Y006378D01*
X013155Y006455D01*
X013385Y006455D01*
X013385Y006225D02*
X013309Y006148D01*
X013079Y006148D01*
X012879Y006225D02*
X012802Y006148D01*
X012572Y006148D01*
X012572Y005994D02*
X012572Y006455D01*
X012802Y006455D01*
X012879Y006378D01*
X012879Y006225D01*
X012373Y006148D02*
X012373Y006455D01*
X012373Y006148D02*
X012142Y006148D01*
X012066Y006225D01*
X012066Y006455D01*
X011866Y006378D02*
X011789Y006455D01*
X011636Y006455D01*
X011559Y006378D01*
X011559Y006225D01*
X011636Y006148D01*
X011789Y006148D01*
X011866Y006225D01*
X011866Y006378D01*
X011367Y006455D02*
X011291Y006455D01*
X011137Y006301D01*
X011137Y006148D02*
X011137Y006455D01*
X010938Y006455D02*
X010708Y006455D01*
X010631Y006378D01*
X010631Y006225D01*
X010708Y006148D01*
X010938Y006148D01*
X010938Y006071D02*
X010938Y006455D01*
X010938Y006071D02*
X010861Y005994D01*
X010784Y005994D01*
X010431Y006071D02*
X010431Y006455D01*
X010124Y006455D02*
X010124Y006225D01*
X010201Y006148D01*
X010431Y006148D01*
X010431Y006071D02*
X010355Y005994D01*
X010278Y005994D01*
X009925Y006071D02*
X009925Y006455D01*
X009695Y006455D01*
X009618Y006378D01*
X009618Y006225D01*
X009695Y006148D01*
X009925Y006148D01*
X009925Y006071D02*
X009848Y005994D01*
X009771Y005994D01*
X009426Y006455D02*
X009349Y006455D01*
X009196Y006301D01*
X009196Y006148D02*
X009196Y006455D01*
X008996Y006378D02*
X008996Y006301D01*
X008690Y006301D01*
X008690Y006225D02*
X008690Y006378D01*
X008766Y006455D01*
X008920Y006455D01*
X008996Y006378D01*
X008920Y006148D02*
X008766Y006148D01*
X008690Y006225D01*
X008490Y006148D02*
X008490Y006378D01*
X008413Y006455D01*
X008183Y006455D01*
X008183Y006148D01*
X007984Y006301D02*
X007677Y006301D01*
X007677Y006225D02*
X007677Y006378D01*
X007753Y006455D01*
X007907Y006455D01*
X007984Y006378D01*
X007984Y006301D01*
X007907Y006148D02*
X007753Y006148D01*
X007677Y006225D01*
X007493Y006148D02*
X007416Y006225D01*
X007416Y006531D01*
X007339Y006455D02*
X007493Y006455D01*
X007147Y006455D02*
X007071Y006455D01*
X006917Y006301D01*
X006917Y006148D02*
X006917Y006455D01*
X006718Y006378D02*
X006718Y006148D01*
X006487Y006148D01*
X006411Y006225D01*
X006487Y006301D01*
X006718Y006301D01*
X006718Y006378D02*
X006641Y006455D01*
X006487Y006455D01*
X006211Y006378D02*
X006211Y006148D01*
X006058Y006148D02*
X006058Y006378D01*
X006134Y006455D01*
X006211Y006378D01*
X006058Y006378D02*
X005981Y006455D01*
X005904Y006455D01*
X005904Y006148D01*
X005705Y006225D02*
X005628Y006301D01*
X005475Y006301D01*
X005398Y006378D01*
X005475Y006455D01*
X005705Y006455D01*
X005705Y006225D02*
X005628Y006148D01*
X005398Y006148D01*
D16*
X011728Y025017D03*
X023228Y025017D03*
X034728Y025017D03*
D17*
X030728Y021728D02*
X030228Y022228D01*
X004728Y022228D01*
X004728Y001228D01*
X030728Y001228D01*
X030728Y002228D01*
X031978Y003478D01*
X031978Y016228D01*
X030728Y017478D01*
X030728Y021728D01*
D18*
X013091Y002693D02*
X013193Y002591D01*
X013072Y002443D01*
X013103Y002383D01*
X013124Y002319D01*
X013314Y002300D01*
X013314Y002156D01*
X013124Y002137D01*
X013103Y002072D01*
X013072Y002013D01*
X013193Y001864D01*
X013091Y001763D01*
X012943Y001884D01*
X012883Y001853D01*
X012799Y002057D01*
X012837Y002079D01*
X012869Y002109D01*
X012893Y002146D01*
X012908Y002188D01*
X012912Y002232D01*
X012906Y002276D01*
X012890Y002317D01*
X012864Y002353D01*
X012830Y002381D01*
X012791Y002401D01*
X012748Y002411D01*
X012704Y002411D01*
X012661Y002400D01*
X012622Y002379D01*
X012589Y002350D01*
X012564Y002313D01*
X012549Y002272D01*
X012543Y002228D01*
X012548Y002185D01*
X012563Y002144D01*
X012588Y002108D01*
X012619Y002079D01*
X012657Y002057D01*
X012572Y001853D01*
X012513Y001884D01*
X012364Y001763D01*
X012263Y001864D01*
X012384Y002013D01*
X012353Y002072D01*
X012332Y002137D01*
X012142Y002156D01*
X012142Y002300D01*
X012332Y002319D01*
X012353Y002383D01*
X012384Y002443D01*
X012263Y002591D01*
X012364Y002693D01*
X012513Y002572D01*
X012572Y002603D01*
X012637Y002624D01*
X012656Y002814D01*
X012800Y002814D01*
X012819Y002624D01*
X012883Y002603D01*
X012943Y002572D01*
X013091Y002693D01*
X013119Y002665D02*
X013057Y002665D01*
X012987Y002608D02*
X013177Y002608D01*
X013160Y002550D02*
X012296Y002550D01*
X012279Y002608D02*
X012469Y002608D01*
X012398Y002665D02*
X012336Y002665D01*
X012343Y002493D02*
X013113Y002493D01*
X013076Y002435D02*
X012379Y002435D01*
X012351Y002377D02*
X012620Y002377D01*
X012569Y002320D02*
X012332Y002320D01*
X012142Y002262D02*
X012547Y002262D01*
X012546Y002205D02*
X012142Y002205D01*
X012229Y002147D02*
X012562Y002147D01*
X012608Y002089D02*
X012347Y002089D01*
X012374Y002032D02*
X012647Y002032D01*
X012623Y001974D02*
X012352Y001974D01*
X012305Y001917D02*
X012599Y001917D01*
X012575Y001859D02*
X012560Y001859D01*
X012483Y001859D02*
X012268Y001859D01*
X012325Y001801D02*
X012412Y001801D01*
X012833Y001974D02*
X013104Y001974D01*
X013082Y002032D02*
X012809Y002032D01*
X012848Y002089D02*
X013108Y002089D01*
X013226Y002147D02*
X012894Y002147D01*
X012910Y002205D02*
X013314Y002205D01*
X013314Y002262D02*
X012908Y002262D01*
X012887Y002320D02*
X013123Y002320D01*
X013105Y002377D02*
X012835Y002377D01*
X012868Y002608D02*
X012587Y002608D01*
X012641Y002665D02*
X012815Y002665D01*
X012809Y002723D02*
X012647Y002723D01*
X012653Y002781D02*
X012803Y002781D01*
X012857Y001917D02*
X013151Y001917D01*
X013188Y001859D02*
X012973Y001859D01*
X012895Y001859D02*
X012881Y001859D01*
X013044Y001801D02*
X013130Y001801D01*
M02*
