G75*
G70*
%OFA0B0*%
%FSLAX24Y24*%
%IPPOS*%
%LPD*%
%AMOC8*
5,1,8,0,0,1.08239X$1,22.5*
%
%ADD10C,0.1181*%
%ADD11C,0.1210*%
%ADD12C,0.0673*%
%ADD13C,0.1300*%
%ADD14C,0.0760*%
%ADD15C,0.0594*%
%ADD16C,0.0436*%
%ADD17C,0.0320*%
%ADD18C,0.1500*%
%ADD19C,0.0240*%
D10*
X010684Y031185D03*
X010684Y034189D03*
X022122Y034189D03*
X022122Y031185D03*
X033622Y031185D03*
X033622Y034189D03*
D11*
X026629Y030185D03*
X015129Y030185D03*
X003692Y030185D03*
D12*
X005188Y025185D03*
X009188Y025185D03*
X016626Y025185D03*
X020626Y025185D03*
X028126Y025185D03*
X032126Y025185D03*
D13*
X030728Y038478D03*
X028728Y038478D03*
X019228Y038478D03*
X017228Y038478D03*
X009728Y038478D03*
X007728Y038478D03*
D14*
X003728Y021228D03*
X003728Y020228D03*
X003728Y019228D03*
X003728Y018228D03*
X003728Y017228D03*
X003728Y016228D03*
D15*
X013978Y020931D02*
X013978Y021525D01*
X014978Y021525D02*
X014978Y020931D01*
X015978Y020931D02*
X015978Y021525D01*
X016978Y021525D02*
X016978Y020931D01*
X017978Y020931D02*
X017978Y021525D01*
X018978Y021525D02*
X018978Y020931D01*
X019978Y020931D02*
X019978Y021525D01*
X020978Y021525D02*
X020978Y020931D01*
X022728Y020931D02*
X022728Y021525D01*
X023728Y021525D02*
X023728Y020931D01*
X024728Y020931D02*
X024728Y021525D01*
X025728Y021525D02*
X025728Y020931D01*
X026728Y020931D02*
X026728Y021525D01*
X027728Y021525D02*
X027728Y020931D01*
X028728Y020931D02*
X028728Y021525D01*
X029728Y021525D02*
X029728Y020931D01*
X029728Y002525D02*
X029728Y001931D01*
X028728Y001931D02*
X028728Y002525D01*
X027728Y002525D02*
X027728Y001931D01*
X026728Y001931D02*
X026728Y002525D01*
X025728Y002525D02*
X025728Y001931D01*
X024728Y001931D02*
X024728Y002525D01*
X022728Y002525D02*
X022728Y001931D01*
X021728Y001931D02*
X021728Y002525D01*
X020728Y002525D02*
X020728Y001931D01*
X019728Y001931D02*
X019728Y002525D01*
X018728Y002525D02*
X018728Y001931D01*
X017728Y001931D02*
X017728Y002525D01*
D16*
X019478Y019728D03*
X011728Y021728D03*
X028728Y019728D03*
D17*
X022478Y019728D01*
X020978Y021228D01*
X019478Y019728D02*
X005228Y019728D01*
X003728Y018228D01*
X003728Y019228D02*
X004478Y019978D01*
X004478Y020478D01*
X003728Y021228D01*
X006228Y018728D02*
X031251Y018728D01*
X032126Y019603D01*
X032126Y025185D01*
X028126Y025185D02*
X026669Y023728D01*
X020228Y023728D01*
X018771Y025185D01*
X016626Y025185D01*
X010685Y025185D01*
X009228Y023728D01*
X006645Y023728D01*
X005188Y025185D01*
X006228Y018728D02*
X003728Y016228D01*
X011728Y021728D02*
X012728Y022728D01*
X023228Y022728D01*
X023728Y022228D01*
X023728Y021228D01*
D18*
X026629Y030185D02*
X026629Y036379D01*
X028728Y038478D01*
X030728Y038478D02*
X030728Y034078D01*
X033622Y031185D01*
X022122Y031185D02*
X019228Y034078D01*
X019228Y038478D01*
X017228Y038478D02*
X015129Y036379D01*
X015129Y030185D01*
X010684Y031185D02*
X008728Y033141D01*
X008728Y035728D01*
X009728Y036728D01*
X009728Y038478D01*
X007728Y038478D02*
X005478Y036228D01*
X005478Y031970D01*
X003692Y030185D01*
D19*
X001008Y026228D02*
X001008Y003441D01*
X001146Y003744D01*
X001146Y003744D01*
X001497Y004149D01*
X001497Y004149D01*
X001947Y004438D01*
X001947Y004438D01*
X002460Y004589D01*
X002460Y004589D01*
X002995Y004589D01*
X002995Y004589D01*
X003509Y004438D01*
X003509Y004438D01*
X003959Y004149D01*
X003959Y004149D01*
X004309Y003744D01*
X004309Y003744D01*
X004532Y003258D01*
X004532Y003257D01*
X004608Y002728D01*
X004532Y002198D01*
X004532Y002198D01*
X004309Y001711D01*
X003959Y001307D01*
X003959Y001307D01*
X003509Y001018D01*
X003475Y001008D01*
X033981Y001008D01*
X033947Y001018D01*
X033947Y001018D01*
X033497Y001307D01*
X033497Y001307D01*
X033146Y001711D01*
X033146Y001711D01*
X032924Y002198D01*
X032924Y002198D01*
X032848Y002728D01*
X032848Y002728D01*
X032924Y003257D01*
X032924Y003258D01*
X033146Y003744D01*
X033146Y003744D01*
X033497Y004149D01*
X033497Y004149D01*
X033947Y004438D01*
X033947Y004438D01*
X034460Y004589D01*
X034460Y004589D01*
X034995Y004589D01*
X034995Y004589D01*
X035509Y004438D01*
X035509Y004438D01*
X035959Y004149D01*
X035959Y004149D01*
X036309Y003744D01*
X036448Y003441D01*
X036448Y026228D01*
X001008Y026228D01*
X001008Y026206D02*
X036448Y026206D01*
X036448Y025968D02*
X001008Y025968D01*
X001008Y025729D02*
X004892Y025729D01*
X004839Y025707D02*
X005065Y025801D01*
X005311Y025801D01*
X005537Y025707D01*
X005711Y025534D01*
X005805Y025307D01*
X005805Y025190D01*
X006827Y024168D01*
X009046Y024168D01*
X010435Y025558D01*
X010597Y025625D01*
X010772Y025625D01*
X016194Y025625D01*
X016276Y025707D01*
X016503Y025801D01*
X016748Y025801D01*
X016975Y025707D01*
X017057Y025625D01*
X018859Y025625D01*
X019020Y025558D01*
X019144Y025434D01*
X019144Y025434D01*
X020410Y024168D01*
X026487Y024168D01*
X027509Y025190D01*
X027509Y025307D01*
X027603Y025534D01*
X027776Y025707D01*
X028003Y025801D01*
X028248Y025801D01*
X028475Y025707D01*
X028648Y025534D01*
X028742Y025307D01*
X028742Y025062D01*
X028648Y024835D01*
X028475Y024662D01*
X028248Y024568D01*
X028131Y024568D01*
X026918Y023355D01*
X026756Y023288D01*
X026581Y023288D01*
X020140Y023288D01*
X019979Y023355D01*
X019855Y023479D01*
X018589Y024745D01*
X017057Y024745D01*
X016975Y024662D01*
X016748Y024568D01*
X016503Y024568D01*
X016276Y024662D01*
X016194Y024745D01*
X010867Y024745D01*
X009601Y023479D01*
X009477Y023355D01*
X009315Y023288D01*
X006732Y023288D01*
X006557Y023288D01*
X006395Y023355D01*
X005182Y024568D01*
X005065Y024568D01*
X004839Y024662D01*
X004665Y024835D01*
X004571Y025062D01*
X004571Y025307D01*
X004665Y025534D01*
X004839Y025707D01*
X004647Y025491D02*
X001008Y025491D01*
X001008Y025252D02*
X004571Y025252D01*
X004592Y025013D02*
X001008Y025013D01*
X001008Y024775D02*
X004726Y024775D01*
X005214Y024536D02*
X001008Y024536D01*
X001008Y024298D02*
X005452Y024298D01*
X005691Y024059D02*
X001008Y024059D01*
X001008Y023821D02*
X005930Y023821D01*
X006168Y023582D02*
X001008Y023582D01*
X001008Y023344D02*
X006422Y023344D01*
X006697Y024298D02*
X009176Y024298D01*
X009065Y024568D02*
X008839Y024662D01*
X008665Y024835D01*
X008571Y025062D01*
X008571Y025307D01*
X008665Y025534D01*
X008839Y025707D01*
X009065Y025801D01*
X009311Y025801D01*
X009537Y025707D01*
X009711Y025534D01*
X009805Y025307D01*
X009805Y025062D01*
X009711Y024835D01*
X009537Y024662D01*
X009311Y024568D01*
X009065Y024568D01*
X009414Y024536D02*
X006458Y024536D01*
X006220Y024775D02*
X008726Y024775D01*
X008592Y025013D02*
X005981Y025013D01*
X005805Y025252D02*
X008571Y025252D01*
X008647Y025491D02*
X005729Y025491D01*
X005484Y025729D02*
X008892Y025729D01*
X009484Y025729D02*
X016329Y025729D01*
X016922Y025729D02*
X020329Y025729D01*
X020276Y025707D02*
X020503Y025801D01*
X020748Y025801D01*
X020975Y025707D01*
X021148Y025534D01*
X021242Y025307D01*
X021242Y025062D01*
X021148Y024835D01*
X020975Y024662D01*
X020748Y024568D01*
X020503Y024568D01*
X020276Y024662D01*
X020103Y024835D01*
X020009Y025062D01*
X020009Y025307D01*
X020103Y025534D01*
X020276Y025707D01*
X020085Y025491D02*
X019087Y025491D01*
X019326Y025252D02*
X020009Y025252D01*
X020029Y025013D02*
X019564Y025013D01*
X019803Y024775D02*
X020163Y024775D01*
X020042Y024536D02*
X026855Y024536D01*
X026617Y024298D02*
X020280Y024298D01*
X019751Y023582D02*
X009704Y023582D01*
X009943Y023821D02*
X019513Y023821D01*
X019274Y024059D02*
X010182Y024059D01*
X010420Y024298D02*
X019036Y024298D01*
X018797Y024536D02*
X010659Y024536D01*
X010130Y025252D02*
X009805Y025252D01*
X009784Y025013D02*
X009891Y025013D01*
X009653Y024775D02*
X009650Y024775D01*
X009729Y025491D02*
X010368Y025491D01*
X009450Y023344D02*
X020006Y023344D01*
X020093Y022102D02*
X019863Y022102D01*
X019651Y022014D01*
X019489Y021852D01*
X019478Y021826D01*
X019467Y021852D01*
X019305Y022014D01*
X019093Y022102D01*
X018863Y022102D01*
X018651Y022014D01*
X018489Y021852D01*
X018478Y021826D01*
X018467Y021852D01*
X018305Y022014D01*
X018093Y022102D01*
X017863Y022102D01*
X017651Y022014D01*
X017489Y021852D01*
X017478Y021826D01*
X017467Y021852D01*
X017305Y022014D01*
X017093Y022102D01*
X016863Y022102D01*
X016651Y022014D01*
X016489Y021852D01*
X016478Y021826D01*
X016467Y021852D01*
X016305Y022014D01*
X016093Y022102D01*
X015863Y022102D01*
X015651Y022014D01*
X015489Y021852D01*
X015445Y021747D01*
X015420Y021796D01*
X015372Y021862D01*
X015315Y021919D01*
X015249Y021967D01*
X015176Y022004D01*
X015099Y022029D01*
X015019Y022042D01*
X014978Y022042D01*
X014978Y021228D01*
X014978Y021228D01*
X014978Y022042D01*
X014937Y022042D01*
X014857Y022029D01*
X014779Y022004D01*
X014707Y021967D01*
X014641Y021919D01*
X014583Y021862D01*
X014536Y021796D01*
X014511Y021747D01*
X014467Y021852D01*
X014305Y022014D01*
X014093Y022102D01*
X013863Y022102D01*
X013651Y022014D01*
X013489Y021852D01*
X013401Y021640D01*
X013401Y020816D01*
X013489Y020604D01*
X013651Y020441D01*
X013863Y020354D01*
X014093Y020354D01*
X014305Y020441D01*
X014467Y020604D01*
X014511Y020709D01*
X014536Y020660D01*
X014583Y020594D01*
X014641Y020536D01*
X014707Y020488D01*
X014779Y020451D01*
X014857Y020426D01*
X014937Y020414D01*
X014978Y020414D01*
X015019Y020414D01*
X015099Y020426D01*
X015176Y020451D01*
X015249Y020488D01*
X015315Y020536D01*
X015372Y020594D01*
X015420Y020660D01*
X015445Y020709D01*
X015489Y020604D01*
X015651Y020441D01*
X015863Y020354D01*
X016093Y020354D01*
X016305Y020441D01*
X016467Y020604D01*
X016478Y020630D01*
X016489Y020604D01*
X016651Y020441D01*
X016863Y020354D01*
X017093Y020354D01*
X017305Y020441D01*
X017467Y020604D01*
X017478Y020630D01*
X017489Y020604D01*
X017651Y020441D01*
X017863Y020354D01*
X018093Y020354D01*
X018305Y020441D01*
X018467Y020604D01*
X018478Y020630D01*
X018489Y020604D01*
X018651Y020441D01*
X018863Y020354D01*
X019093Y020354D01*
X019305Y020441D01*
X019467Y020604D01*
X019478Y020630D01*
X019489Y020604D01*
X019651Y020441D01*
X019863Y020354D01*
X020093Y020354D01*
X020305Y020441D01*
X020467Y020604D01*
X020478Y020630D01*
X020489Y020604D01*
X020651Y020441D01*
X020863Y020354D01*
X021093Y020354D01*
X021190Y020394D01*
X022105Y019479D01*
X022229Y019355D01*
X022390Y019288D01*
X028489Y019288D01*
X028629Y019230D01*
X028827Y019230D01*
X029010Y019306D01*
X029150Y019446D01*
X029226Y019629D01*
X029226Y019827D01*
X029150Y020010D01*
X029010Y020150D01*
X028827Y020226D01*
X028629Y020226D01*
X028489Y020168D01*
X022660Y020168D01*
X021555Y021273D01*
X021555Y021640D01*
X021467Y021852D01*
X021305Y022014D01*
X021093Y022102D01*
X020863Y022102D01*
X020651Y022014D01*
X020489Y021852D01*
X020478Y021826D01*
X020467Y021852D01*
X020305Y022014D01*
X020093Y022102D01*
X020407Y021912D02*
X020549Y021912D01*
X019549Y021912D02*
X019407Y021912D01*
X018549Y021912D02*
X018407Y021912D01*
X017549Y021912D02*
X017407Y021912D01*
X016549Y021912D02*
X016407Y021912D01*
X015549Y021912D02*
X015322Y021912D01*
X014978Y021912D02*
X014978Y021912D01*
X014978Y021674D02*
X014978Y021674D01*
X014978Y021435D02*
X014978Y021435D01*
X014978Y021227D02*
X014978Y020414D01*
X014978Y021227D01*
X014978Y021227D01*
X014978Y021197D02*
X014978Y021197D01*
X014978Y020958D02*
X014978Y020958D01*
X014978Y020720D02*
X014978Y020720D01*
X014978Y020481D02*
X014978Y020481D01*
X015235Y020481D02*
X015611Y020481D01*
X016345Y020481D02*
X016611Y020481D01*
X017345Y020481D02*
X017611Y020481D01*
X018345Y020481D02*
X018611Y020481D01*
X019239Y020168D02*
X005140Y020168D01*
X004979Y020101D01*
X004918Y020040D01*
X004918Y020065D01*
X004918Y020565D01*
X004851Y020727D01*
X004727Y020851D01*
X004388Y021190D01*
X004388Y021359D01*
X004287Y021602D01*
X004102Y021787D01*
X003859Y021888D01*
X003597Y021888D01*
X003354Y021787D01*
X003168Y021602D01*
X003068Y021359D01*
X003068Y021097D01*
X003168Y020854D01*
X003295Y020728D01*
X003168Y020602D01*
X003068Y020359D01*
X003068Y020097D01*
X003168Y019854D01*
X003295Y019728D01*
X003168Y019602D01*
X003068Y019359D01*
X003068Y019097D01*
X003168Y018854D01*
X003295Y018728D01*
X003168Y018602D01*
X003068Y018359D01*
X003068Y018097D01*
X003168Y017854D01*
X003295Y017728D01*
X003168Y017602D01*
X003068Y017359D01*
X003068Y017097D01*
X003168Y016854D01*
X003295Y016728D01*
X003168Y016602D01*
X003068Y016359D01*
X003068Y016097D01*
X003168Y015854D01*
X003354Y015668D01*
X003597Y015568D01*
X003859Y015568D01*
X004102Y015668D01*
X004287Y015854D01*
X004388Y016097D01*
X004388Y016266D01*
X006410Y018288D01*
X031163Y018288D01*
X031338Y018288D01*
X031500Y018355D01*
X032499Y019354D01*
X032565Y019515D01*
X032565Y019690D01*
X032565Y024753D01*
X032648Y024835D01*
X032742Y025062D01*
X032742Y025307D01*
X032648Y025534D01*
X032475Y025707D01*
X032248Y025801D01*
X032003Y025801D01*
X031776Y025707D01*
X031603Y025534D01*
X031509Y025307D01*
X031509Y025062D01*
X031603Y024835D01*
X031686Y024753D01*
X031686Y019785D01*
X031068Y019168D01*
X006140Y019168D01*
X005979Y019101D01*
X005855Y018977D01*
X004344Y017466D01*
X004287Y017602D01*
X004161Y017728D01*
X004287Y017854D01*
X004388Y018097D01*
X004388Y018266D01*
X005410Y019288D01*
X019239Y019288D01*
X019379Y019230D01*
X019577Y019230D01*
X019760Y019306D01*
X019900Y019446D01*
X019976Y019629D01*
X019976Y019827D01*
X019900Y020010D01*
X019760Y020150D01*
X019577Y020226D01*
X019379Y020226D01*
X019239Y020168D01*
X019345Y020481D02*
X019611Y020481D01*
X019903Y020004D02*
X021579Y020004D01*
X021341Y020243D02*
X004918Y020243D01*
X004918Y020481D02*
X013611Y020481D01*
X013441Y020720D02*
X004854Y020720D01*
X004620Y020958D02*
X013401Y020958D01*
X013401Y021197D02*
X004388Y021197D01*
X004356Y021435D02*
X011316Y021435D01*
X011306Y021446D02*
X011446Y021306D01*
X011629Y021230D01*
X011827Y021230D01*
X012010Y021306D01*
X012150Y021446D01*
X012208Y021586D01*
X012910Y022288D01*
X023046Y022288D01*
X023288Y022046D01*
X023288Y021901D01*
X023239Y021852D01*
X023228Y021826D01*
X023217Y021852D01*
X023055Y022014D01*
X022843Y022102D01*
X022613Y022102D01*
X022401Y022014D01*
X022239Y021852D01*
X022151Y021640D01*
X022151Y020816D01*
X022239Y020604D01*
X022401Y020441D01*
X022613Y020354D01*
X022843Y020354D01*
X023055Y020441D01*
X023217Y020604D01*
X023228Y020630D01*
X023239Y020604D01*
X023401Y020441D01*
X023613Y020354D01*
X023843Y020354D01*
X024055Y020441D01*
X024217Y020604D01*
X024228Y020630D01*
X024239Y020604D01*
X024401Y020441D01*
X024613Y020354D01*
X024843Y020354D01*
X025055Y020441D01*
X025217Y020604D01*
X025228Y020630D01*
X025239Y020604D01*
X025401Y020441D01*
X025613Y020354D01*
X025843Y020354D01*
X026055Y020441D01*
X026217Y020604D01*
X026228Y020630D01*
X026239Y020604D01*
X026401Y020441D01*
X026613Y020354D01*
X026843Y020354D01*
X027055Y020441D01*
X027217Y020604D01*
X027228Y020630D01*
X027239Y020604D01*
X027401Y020441D01*
X027613Y020354D01*
X027843Y020354D01*
X028055Y020441D01*
X028217Y020604D01*
X028228Y020630D01*
X028239Y020604D01*
X028401Y020441D01*
X028613Y020354D01*
X028843Y020354D01*
X029055Y020441D01*
X029217Y020604D01*
X029228Y020630D01*
X029239Y020604D01*
X029401Y020441D01*
X029613Y020354D01*
X029843Y020354D01*
X030055Y020441D01*
X030217Y020604D01*
X030305Y020816D01*
X030305Y021640D01*
X030217Y021852D01*
X030055Y022014D01*
X029843Y022102D01*
X029613Y022102D01*
X029401Y022014D01*
X029239Y021852D01*
X029228Y021826D01*
X029217Y021852D01*
X029055Y022014D01*
X028843Y022102D01*
X028613Y022102D01*
X028401Y022014D01*
X028239Y021852D01*
X028228Y021826D01*
X028217Y021852D01*
X028055Y022014D01*
X027843Y022102D01*
X027613Y022102D01*
X027401Y022014D01*
X027239Y021852D01*
X027228Y021826D01*
X027217Y021852D01*
X027055Y022014D01*
X026843Y022102D01*
X026613Y022102D01*
X026401Y022014D01*
X026239Y021852D01*
X026228Y021826D01*
X026217Y021852D01*
X026055Y022014D01*
X025843Y022102D01*
X025613Y022102D01*
X025401Y022014D01*
X025239Y021852D01*
X025228Y021826D01*
X025217Y021852D01*
X025055Y022014D01*
X024843Y022102D01*
X024613Y022102D01*
X024401Y022014D01*
X024239Y021852D01*
X024228Y021826D01*
X024217Y021852D01*
X024168Y021901D01*
X024168Y022315D01*
X024101Y022477D01*
X023977Y022601D01*
X023477Y023101D01*
X023315Y023168D01*
X023140Y023168D01*
X012640Y023168D01*
X012479Y023101D01*
X012355Y022977D01*
X011586Y022208D01*
X011446Y022150D01*
X011306Y022010D01*
X011230Y021827D01*
X011230Y021629D01*
X011306Y021446D01*
X011230Y021674D02*
X004215Y021674D01*
X003241Y021674D02*
X001008Y021674D01*
X001008Y021912D02*
X011265Y021912D01*
X011448Y022151D02*
X001008Y022151D01*
X001008Y022389D02*
X011767Y022389D01*
X012006Y022628D02*
X001008Y022628D01*
X001008Y022867D02*
X012244Y022867D01*
X012355Y022977D02*
X012355Y022977D01*
X012489Y023105D02*
X001008Y023105D01*
X001008Y021435D02*
X003099Y021435D01*
X003068Y021197D02*
X001008Y021197D01*
X001008Y020958D02*
X003125Y020958D01*
X003286Y020720D02*
X001008Y020720D01*
X001008Y020481D02*
X003118Y020481D01*
X003068Y020243D02*
X001008Y020243D01*
X001008Y020004D02*
X003106Y020004D01*
X003257Y019766D02*
X001008Y019766D01*
X001008Y019527D02*
X003137Y019527D01*
X003068Y019288D02*
X001008Y019288D01*
X001008Y019050D02*
X003087Y019050D01*
X003211Y018811D02*
X001008Y018811D01*
X001008Y018573D02*
X003156Y018573D01*
X003068Y018334D02*
X001008Y018334D01*
X001008Y018096D02*
X003068Y018096D01*
X003167Y017857D02*
X001008Y017857D01*
X001008Y017619D02*
X003185Y017619D01*
X003077Y017380D02*
X001008Y017380D01*
X001008Y017142D02*
X003068Y017142D01*
X003148Y016903D02*
X001008Y016903D01*
X001008Y016664D02*
X003231Y016664D01*
X003096Y016426D02*
X001008Y016426D01*
X001008Y016187D02*
X003068Y016187D01*
X003129Y015949D02*
X001008Y015949D01*
X001008Y015710D02*
X003312Y015710D01*
X004144Y015710D02*
X036448Y015710D01*
X036448Y015472D02*
X001008Y015472D01*
X001008Y015233D02*
X036448Y015233D01*
X036448Y014995D02*
X001008Y014995D01*
X001008Y014756D02*
X036448Y014756D01*
X036448Y014518D02*
X001008Y014518D01*
X001008Y014279D02*
X036448Y014279D01*
X036448Y014040D02*
X001008Y014040D01*
X001008Y013802D02*
X036448Y013802D01*
X036448Y013563D02*
X001008Y013563D01*
X001008Y013325D02*
X036448Y013325D01*
X036448Y013086D02*
X001008Y013086D01*
X001008Y012848D02*
X036448Y012848D01*
X036448Y012609D02*
X001008Y012609D01*
X001008Y012371D02*
X036448Y012371D01*
X036448Y012132D02*
X001008Y012132D01*
X001008Y011894D02*
X036448Y011894D01*
X036448Y011655D02*
X001008Y011655D01*
X001008Y011416D02*
X036448Y011416D01*
X036448Y011178D02*
X001008Y011178D01*
X001008Y010939D02*
X036448Y010939D01*
X036448Y010701D02*
X001008Y010701D01*
X001008Y010462D02*
X036448Y010462D01*
X036448Y010224D02*
X001008Y010224D01*
X001008Y009985D02*
X036448Y009985D01*
X036448Y009747D02*
X001008Y009747D01*
X001008Y009508D02*
X036448Y009508D01*
X036448Y009270D02*
X001008Y009270D01*
X001008Y009031D02*
X036448Y009031D01*
X036448Y008793D02*
X001008Y008793D01*
X001008Y008554D02*
X036448Y008554D01*
X036448Y008315D02*
X001008Y008315D01*
X001008Y008077D02*
X036448Y008077D01*
X036448Y007838D02*
X001008Y007838D01*
X001008Y007600D02*
X036448Y007600D01*
X036448Y007361D02*
X001008Y007361D01*
X001008Y007123D02*
X036448Y007123D01*
X036448Y006884D02*
X001008Y006884D01*
X001008Y006646D02*
X036448Y006646D01*
X036448Y006407D02*
X001008Y006407D01*
X001008Y006169D02*
X036448Y006169D01*
X036448Y005930D02*
X001008Y005930D01*
X001008Y005691D02*
X036448Y005691D01*
X036448Y005453D02*
X001008Y005453D01*
X001008Y005214D02*
X036448Y005214D01*
X036448Y004976D02*
X001008Y004976D01*
X001008Y004737D02*
X036448Y004737D01*
X036448Y004499D02*
X035302Y004499D01*
X035785Y004260D02*
X036448Y004260D01*
X036448Y004022D02*
X036069Y004022D01*
X036276Y003783D02*
X036448Y003783D01*
X036309Y003744D02*
X036309Y003744D01*
X036401Y003545D02*
X036448Y003545D01*
X034154Y004499D02*
X003302Y004499D01*
X003785Y004260D02*
X033670Y004260D01*
X033497Y004149D02*
X033497Y004149D01*
X033387Y004022D02*
X004069Y004022D01*
X004276Y003783D02*
X033180Y003783D01*
X033055Y003545D02*
X004401Y003545D01*
X004510Y003306D02*
X032946Y003306D01*
X032897Y003067D02*
X029926Y003067D01*
X029843Y003102D02*
X029613Y003102D01*
X029401Y003014D01*
X029239Y002852D01*
X029228Y002826D01*
X029217Y002852D01*
X029055Y003014D01*
X028843Y003102D01*
X028613Y003102D01*
X028401Y003014D01*
X028239Y002852D01*
X028228Y002826D01*
X028217Y002852D01*
X028055Y003014D01*
X027843Y003102D01*
X027613Y003102D01*
X027401Y003014D01*
X027239Y002852D01*
X027228Y002826D01*
X027217Y002852D01*
X027055Y003014D01*
X026843Y003102D01*
X026613Y003102D01*
X026401Y003014D01*
X026239Y002852D01*
X026228Y002826D01*
X026217Y002852D01*
X026055Y003014D01*
X025843Y003102D01*
X025613Y003102D01*
X025401Y003014D01*
X025239Y002852D01*
X025228Y002826D01*
X025217Y002852D01*
X025055Y003014D01*
X024843Y003102D01*
X024613Y003102D01*
X024401Y003014D01*
X024239Y002852D01*
X024151Y002640D01*
X024151Y001816D01*
X024239Y001604D01*
X024401Y001441D01*
X024613Y001354D01*
X024843Y001354D01*
X025055Y001441D01*
X025217Y001604D01*
X025228Y001630D01*
X025239Y001604D01*
X025401Y001441D01*
X025613Y001354D01*
X025843Y001354D01*
X026055Y001441D01*
X026217Y001604D01*
X026228Y001630D01*
X026239Y001604D01*
X026401Y001441D01*
X026613Y001354D01*
X026843Y001354D01*
X027055Y001441D01*
X027217Y001604D01*
X027228Y001630D01*
X027239Y001604D01*
X027401Y001441D01*
X027613Y001354D01*
X027843Y001354D01*
X028055Y001441D01*
X028217Y001604D01*
X028228Y001630D01*
X028239Y001604D01*
X028401Y001441D01*
X028613Y001354D01*
X028843Y001354D01*
X029055Y001441D01*
X029217Y001604D01*
X029228Y001630D01*
X029239Y001604D01*
X029401Y001441D01*
X029613Y001354D01*
X029843Y001354D01*
X030055Y001441D01*
X030217Y001604D01*
X030305Y001816D01*
X030305Y002640D01*
X030217Y002852D01*
X030055Y003014D01*
X029843Y003102D01*
X029529Y003067D02*
X028926Y003067D01*
X029227Y002829D02*
X029229Y002829D01*
X028529Y003067D02*
X027926Y003067D01*
X028227Y002829D02*
X028229Y002829D01*
X027529Y003067D02*
X026926Y003067D01*
X027227Y002829D02*
X027229Y002829D01*
X026529Y003067D02*
X025926Y003067D01*
X026227Y002829D02*
X026229Y002829D01*
X025529Y003067D02*
X024926Y003067D01*
X025227Y002829D02*
X025229Y002829D01*
X024529Y003067D02*
X022926Y003067D01*
X022843Y003102D02*
X023055Y003014D01*
X023217Y002852D01*
X023305Y002640D01*
X023305Y001816D01*
X023217Y001604D01*
X023055Y001441D01*
X022843Y001354D01*
X022613Y001354D01*
X022401Y001441D01*
X022239Y001604D01*
X022195Y001709D01*
X022170Y001660D01*
X022122Y001594D01*
X022065Y001536D01*
X021999Y001488D01*
X021926Y001451D01*
X021849Y001426D01*
X021769Y001414D01*
X021728Y001414D01*
X021728Y002227D01*
X021728Y002227D01*
X021728Y001414D01*
X021687Y001414D01*
X021607Y001426D01*
X021529Y001451D01*
X021457Y001488D01*
X021391Y001536D01*
X021333Y001594D01*
X021286Y001660D01*
X021249Y001732D01*
X021228Y001796D01*
X021207Y001732D01*
X021170Y001660D01*
X021122Y001594D01*
X021065Y001536D01*
X020999Y001488D01*
X020926Y001451D01*
X020849Y001426D01*
X020769Y001414D01*
X020728Y001414D01*
X020728Y002227D01*
X020728Y002227D01*
X020728Y001414D01*
X020687Y001414D01*
X020607Y001426D01*
X020529Y001451D01*
X020457Y001488D01*
X020391Y001536D01*
X020333Y001594D01*
X020286Y001660D01*
X020261Y001709D01*
X020217Y001604D01*
X020055Y001441D01*
X019843Y001354D01*
X019613Y001354D01*
X019401Y001441D01*
X019239Y001604D01*
X019228Y001630D01*
X019217Y001604D01*
X019055Y001441D01*
X018843Y001354D01*
X018613Y001354D01*
X018401Y001441D01*
X018239Y001604D01*
X018228Y001630D01*
X018217Y001604D01*
X018055Y001441D01*
X017843Y001354D01*
X017613Y001354D01*
X017401Y001441D01*
X017239Y001604D01*
X017151Y001816D01*
X017151Y002640D01*
X017239Y002852D01*
X017401Y003014D01*
X017613Y003102D01*
X017843Y003102D01*
X018055Y003014D01*
X018217Y002852D01*
X018228Y002826D01*
X018239Y002852D01*
X018401Y003014D01*
X018613Y003102D01*
X018843Y003102D01*
X019055Y003014D01*
X019217Y002852D01*
X019228Y002826D01*
X019239Y002852D01*
X019401Y003014D01*
X019613Y003102D01*
X019843Y003102D01*
X020055Y003014D01*
X020217Y002852D01*
X020261Y002747D01*
X020286Y002796D01*
X020333Y002862D01*
X020391Y002919D01*
X020457Y002967D01*
X020529Y003004D01*
X020607Y003029D01*
X020687Y003042D01*
X020728Y003042D01*
X020728Y002228D01*
X020728Y002228D01*
X021245Y002228D01*
X021727Y002228D01*
X021727Y002228D01*
X021245Y002228D01*
X020728Y002228D01*
X020728Y002228D01*
X020728Y003042D01*
X020769Y003042D01*
X020849Y003029D01*
X020926Y003004D01*
X020999Y002967D01*
X021065Y002919D01*
X021122Y002862D01*
X021170Y002796D01*
X021207Y002724D01*
X021228Y002660D01*
X021249Y002724D01*
X021286Y002796D01*
X021333Y002862D01*
X021391Y002919D01*
X021457Y002967D01*
X021529Y003004D01*
X021607Y003029D01*
X021687Y003042D01*
X021728Y003042D01*
X021728Y002228D01*
X021728Y002228D01*
X021728Y003042D01*
X021769Y003042D01*
X021849Y003029D01*
X021926Y003004D01*
X021999Y002967D01*
X022065Y002919D01*
X022122Y002862D01*
X022170Y002796D01*
X022195Y002747D01*
X022239Y002852D01*
X022401Y003014D01*
X022613Y003102D01*
X022843Y003102D01*
X022529Y003067D02*
X019926Y003067D01*
X020227Y002829D02*
X020309Y002829D01*
X020728Y002829D02*
X020728Y002829D01*
X020728Y002590D02*
X020728Y002590D01*
X020728Y002352D02*
X020728Y002352D01*
X020728Y002113D02*
X020728Y002113D01*
X020728Y001875D02*
X020728Y001875D01*
X020728Y001636D02*
X020728Y001636D01*
X021153Y001636D02*
X021303Y001636D01*
X021728Y001636D02*
X021728Y001636D01*
X021728Y001875D02*
X021728Y001875D01*
X021728Y002113D02*
X021728Y002113D01*
X021728Y002352D02*
X021728Y002352D01*
X021728Y002590D02*
X021728Y002590D01*
X021728Y002829D02*
X021728Y002829D01*
X022146Y002829D02*
X022229Y002829D01*
X022225Y001636D02*
X022153Y001636D01*
X022506Y001398D02*
X019949Y001398D01*
X020231Y001636D02*
X020303Y001636D01*
X019506Y001398D02*
X018949Y001398D01*
X018506Y001398D02*
X017949Y001398D01*
X017506Y001398D02*
X004037Y001398D01*
X004244Y001636D02*
X017225Y001636D01*
X017151Y001875D02*
X004384Y001875D01*
X004493Y002113D02*
X017151Y002113D01*
X017151Y002352D02*
X004554Y002352D01*
X004588Y002590D02*
X017151Y002590D01*
X017229Y002829D02*
X004593Y002829D01*
X004559Y003067D02*
X017529Y003067D01*
X017926Y003067D02*
X018529Y003067D01*
X018229Y002829D02*
X018227Y002829D01*
X018926Y003067D02*
X019529Y003067D01*
X019229Y002829D02*
X019227Y002829D01*
X021146Y002829D02*
X021309Y002829D01*
X022949Y001398D02*
X024506Y001398D01*
X024225Y001636D02*
X023231Y001636D01*
X023305Y001875D02*
X024151Y001875D01*
X024151Y002113D02*
X023305Y002113D01*
X023305Y002352D02*
X024151Y002352D01*
X024151Y002590D02*
X023305Y002590D01*
X023227Y002829D02*
X024229Y002829D01*
X024949Y001398D02*
X025506Y001398D01*
X025949Y001398D02*
X026506Y001398D01*
X026949Y001398D02*
X027506Y001398D01*
X027949Y001398D02*
X028506Y001398D01*
X028949Y001398D02*
X029506Y001398D01*
X029949Y001398D02*
X033418Y001398D01*
X033211Y001636D02*
X030231Y001636D01*
X030305Y001875D02*
X033072Y001875D01*
X032963Y002113D02*
X030305Y002113D01*
X030305Y002352D02*
X032902Y002352D01*
X032868Y002590D02*
X030305Y002590D01*
X030227Y002829D02*
X032862Y002829D01*
X033727Y001159D02*
X003729Y001159D01*
X001055Y003545D02*
X001008Y003545D01*
X001008Y003783D02*
X001180Y003783D01*
X001008Y004022D02*
X001387Y004022D01*
X001497Y004149D02*
X001497Y004149D01*
X001670Y004260D02*
X001008Y004260D01*
X001008Y004499D02*
X002154Y004499D01*
X004327Y015949D02*
X036448Y015949D01*
X036448Y016187D02*
X004388Y016187D01*
X004548Y016426D02*
X036448Y016426D01*
X036448Y016664D02*
X004787Y016664D01*
X005025Y016903D02*
X036448Y016903D01*
X036448Y017142D02*
X005264Y017142D01*
X005502Y017380D02*
X036448Y017380D01*
X036448Y017619D02*
X005741Y017619D01*
X005979Y017857D02*
X036448Y017857D01*
X036448Y018096D02*
X006218Y018096D01*
X005689Y018811D02*
X004934Y018811D01*
X005172Y019050D02*
X005928Y019050D01*
X005451Y018573D02*
X004695Y018573D01*
X004456Y018334D02*
X005212Y018334D01*
X004974Y018096D02*
X004387Y018096D01*
X004289Y017857D02*
X004735Y017857D01*
X004496Y017619D02*
X004270Y017619D01*
X012140Y021435D02*
X013401Y021435D01*
X013415Y021674D02*
X012296Y021674D01*
X012535Y021912D02*
X013549Y021912D01*
X012773Y022151D02*
X023183Y022151D01*
X023157Y021912D02*
X023288Y021912D01*
X024168Y021912D02*
X024299Y021912D01*
X024168Y022151D02*
X031686Y022151D01*
X031686Y022389D02*
X024137Y022389D01*
X023950Y022628D02*
X031686Y022628D01*
X031686Y022867D02*
X023711Y022867D01*
X023467Y023105D02*
X031686Y023105D01*
X031686Y023344D02*
X026891Y023344D01*
X027145Y023582D02*
X031686Y023582D01*
X031686Y023821D02*
X027384Y023821D01*
X027622Y024059D02*
X031686Y024059D01*
X031686Y024298D02*
X027861Y024298D01*
X028100Y024536D02*
X031686Y024536D01*
X031663Y024775D02*
X028588Y024775D01*
X028722Y025013D02*
X031529Y025013D01*
X031509Y025252D02*
X028742Y025252D01*
X028666Y025491D02*
X031585Y025491D01*
X031829Y025729D02*
X028422Y025729D01*
X027829Y025729D02*
X020922Y025729D01*
X021166Y025491D02*
X027585Y025491D01*
X027509Y025252D02*
X021242Y025252D01*
X021222Y025013D02*
X027332Y025013D01*
X027094Y024775D02*
X021088Y024775D01*
X021407Y021912D02*
X022299Y021912D01*
X022165Y021674D02*
X021541Y021674D01*
X021555Y021435D02*
X022151Y021435D01*
X022151Y021197D02*
X021631Y021197D01*
X021870Y020958D02*
X022151Y020958D01*
X022108Y020720D02*
X022191Y020720D01*
X022347Y020481D02*
X022361Y020481D01*
X022585Y020243D02*
X031686Y020243D01*
X031686Y020481D02*
X030095Y020481D01*
X030265Y020720D02*
X031686Y020720D01*
X031686Y020958D02*
X030305Y020958D01*
X030305Y021197D02*
X031686Y021197D01*
X031686Y021435D02*
X030305Y021435D01*
X030291Y021674D02*
X031686Y021674D01*
X031686Y021912D02*
X030157Y021912D01*
X029299Y021912D02*
X029157Y021912D01*
X028299Y021912D02*
X028157Y021912D01*
X027299Y021912D02*
X027157Y021912D01*
X026299Y021912D02*
X026157Y021912D01*
X025299Y021912D02*
X025157Y021912D01*
X025095Y020481D02*
X025361Y020481D01*
X026095Y020481D02*
X026361Y020481D01*
X027095Y020481D02*
X027361Y020481D01*
X028095Y020481D02*
X028361Y020481D01*
X029095Y020481D02*
X029361Y020481D01*
X029153Y020004D02*
X031686Y020004D01*
X031666Y019766D02*
X029226Y019766D01*
X029184Y019527D02*
X031427Y019527D01*
X031189Y019288D02*
X028969Y019288D01*
X031450Y018334D02*
X036448Y018334D01*
X036448Y018573D02*
X031718Y018573D01*
X031956Y018811D02*
X036448Y018811D01*
X036448Y019050D02*
X032195Y019050D01*
X032433Y019288D02*
X036448Y019288D01*
X036448Y019527D02*
X032565Y019527D01*
X032565Y019766D02*
X036448Y019766D01*
X036448Y020004D02*
X032565Y020004D01*
X032565Y020243D02*
X036448Y020243D01*
X036448Y020481D02*
X032565Y020481D01*
X032565Y020720D02*
X036448Y020720D01*
X036448Y020958D02*
X032565Y020958D01*
X032565Y021197D02*
X036448Y021197D01*
X036448Y021435D02*
X032565Y021435D01*
X032565Y021674D02*
X036448Y021674D01*
X036448Y021912D02*
X032565Y021912D01*
X032565Y022151D02*
X036448Y022151D01*
X036448Y022389D02*
X032565Y022389D01*
X032565Y022628D02*
X036448Y022628D01*
X036448Y022867D02*
X032565Y022867D01*
X032565Y023105D02*
X036448Y023105D01*
X036448Y023344D02*
X032565Y023344D01*
X032565Y023582D02*
X036448Y023582D01*
X036448Y023821D02*
X032565Y023821D01*
X032565Y024059D02*
X036448Y024059D01*
X036448Y024298D02*
X032565Y024298D01*
X032565Y024536D02*
X036448Y024536D01*
X036448Y024775D02*
X032588Y024775D01*
X032722Y025013D02*
X036448Y025013D01*
X036448Y025252D02*
X032742Y025252D01*
X032666Y025491D02*
X036448Y025491D01*
X036448Y025729D02*
X032422Y025729D01*
X024361Y020481D02*
X024095Y020481D01*
X023361Y020481D02*
X023095Y020481D01*
X022389Y019288D02*
X019719Y019288D01*
X019934Y019527D02*
X022056Y019527D01*
X021818Y019766D02*
X019976Y019766D01*
X020345Y020481D02*
X020611Y020481D01*
X014721Y020481D02*
X014345Y020481D01*
X014407Y021912D02*
X014634Y021912D01*
M02*
