%
M48
M72
T01C0.0236
T02C0.0354
T03C0.0394
T04C0.0433
T05C0.0470
T06C0.0787
T07C0.0810
T08C0.1181
%
T01
X19478Y19728
X11728Y21728
X28728Y19728
X30478Y5978
T02
X27728Y7728
X27728Y8728
X27728Y9728
X27728Y10728
X27728Y11728
X27728Y12728
X27728Y13728
X26728Y13728
X26728Y12728
X26728Y11728
X26728Y10728
X26728Y9728
X26728Y8728
X26728Y7728
X25728Y7728
X24728Y7728
X24728Y8728
X24728Y9728
X25728Y9728
X25728Y8728
X25728Y10728
X25728Y11728
X24728Y11728
X24728Y10728
X23728Y10728
X23728Y11728
X23728Y12728
X23728Y13728
X24728Y13728
X25728Y13728
X25728Y12728
X24728Y12728
X22728Y12728
X22728Y13728
X21728Y13728
X21728Y12728
X21728Y11728
X22728Y11728
X22728Y10728
X21728Y10728
X21728Y9728
X22728Y9728
X22728Y8728
X21728Y8728
X21728Y7728
X22728Y7728
X23728Y7728
X23728Y8728
X23728Y9728
X20728Y9728
X20728Y8728
X20728Y7728
X19728Y7728
X18728Y7728
X18728Y8728
X18728Y9728
X19728Y9728
X19728Y8728
X19728Y10728
X19728Y11728
X18728Y11728
X18728Y10728
X17728Y10728
X17728Y11728
X17728Y12728
X17728Y13728
X18728Y13728
X19728Y13728
X19728Y12728
X18728Y12728
X20728Y12728
X20728Y13728
X20728Y11728
X20728Y10728
X17728Y9728
X17728Y8728
X17728Y7728
X16728Y7728
X16728Y8728
X16728Y9728
X16728Y10728
X16728Y11728
X16728Y12728
X16728Y13728
X15728Y13728
X15728Y12728
X14728Y12728
X14728Y13728
X13728Y13728
X13728Y12728
X13728Y11728
X13728Y10728
X14728Y10728
X14728Y11728
X15728Y11728
X15728Y10728
X15728Y9728
X15728Y8728
X14728Y8728
X14728Y9728
X13728Y9728
X13728Y8728
X13728Y7728
X14728Y7728
X15728Y7728
X12728Y7728
X11728Y7728
X11728Y8728
X11728Y9728
X12728Y9728
X12728Y8728
X12728Y10728
X12728Y11728
X11728Y11728
X11728Y10728
X10728Y10728
X10728Y11728
X10728Y12728
X10728Y13728
X11728Y13728
X12728Y13728
X12728Y12728
X11728Y12728
X9728Y12728
X9728Y13728
X8728Y13728
X8728Y12728
X8728Y11728
X9728Y11728
X9728Y10728
X8728Y10728
X8728Y9728
X9728Y9728
X9728Y8728
X8728Y8728
X8728Y7728
X9728Y7728
X10728Y7728
X10728Y8728
X10728Y9728
X7728Y9728
X7728Y8728
X7728Y7728
X6728Y7728
X5728Y7728
X5728Y8728
X5728Y9728
X6728Y9728
X6728Y8728
X6728Y10728
X6728Y11728
X5728Y11728
X5728Y10728
X5728Y12728
X5728Y13728
X6728Y13728
X6728Y12728
X7728Y12728
X7728Y13728
X7728Y11728
X7728Y10728
X13978Y21228
X14978Y21228
X15978Y21228
X16978Y21228
X17978Y21228
X18978Y21228
X19978Y21228
X20978Y21228
X22728Y21228
X23728Y21228
X24728Y21228
X25728Y21228
X26728Y21228
X27728Y21228
X28728Y21228
X29728Y21228
X29728Y2228
X28728Y2228
X27728Y2228
X26728Y2228
X25728Y2228
X24728Y2228
X22728Y2228
X21728Y2228
X20728Y2228
X19728Y2228
X18728Y2228
X17728Y2228
T03
X3728Y16228
X3728Y17228
X3728Y18228
X3728Y19228
X3728Y20228
X3728Y21228
T04
X5188Y25185
X9188Y25185
X16626Y25185
X20626Y25185
X28126Y25185
X32126Y25185
T05
X30728Y38478
X28728Y38478
X19228Y38478
X17228Y38478
X9728Y38478
X7728Y38478
T06
X10684Y34189
X10684Y31185
X22122Y31185
X22122Y34189
X33622Y34189
X33622Y31185
T07
X26629Y30185
X15129Y30185
X3692Y30185
T08
X2728Y2728
X34728Y2728
X34728Y38728
X2728Y38728
M30
